<svg xmlns="http://www.w3.org/2000/svg" width="485.779" height="1067.7" viewBox="0 0 485.779 1067.7"><defs><style>.a{fill:rgba(251,38,244,0.5);}.b{fill:rgba(255,162,252,0.91);}</style></defs><g transform="translate(40.993 72.087)"><g transform="translate(-18.054 -62.532)"><path class="a" d="M131.837-4.88c-5.23.911-11.005.841-16.333.766-28.572-.31-56.628-11.095-74.888-28.328C25.071-47.113,20.8-65.353,17.726-83.791c-.3-1.831-.435-3.65-.607-5.484-.037-.394-.092-.745-.151-1.075-1.208-.861-1.841-1.865-1.126-2.967A108.616,108.616,0,0,1,9-107.629C3.316-122.08-2.466-136.8,1.1-152a172.49,172.49,0,0,0,4.676,25.138c.12.472.25.941.386,1.407.014.049.027.1.041.147a47.222,47.222,0,0,0,2.876,7.367c.012.026.024.052.037.078.155.316.319.631.481.946.336.652.68,1.3,1.046,1.949q.185.331.356.667c1.705,3.332,2.426,7.087,3.953,10.536q.548,1.176,1.148,2.342l.072.137c1.082,2.091,2.277,4.156,3.541,6.2.687.412,1.054,1.433,1.647,2.361A14.01,14.01,0,0,1,22.72-90.62c.744,1.148,1.486,2.3,2.236,3.443l-.067-.02q1.125,1.651,2.249,3.288l.5.72.8,1.147c2.5,3.571,5.156,7.07,7.912,10.526.984,1.233,3.333,3,3.784,4.387a1.314,1.314,0,0,1,.031.149,89.777,89.777,0,0,0,21.12,17.767c-1-.86-3.119-3.779-3.68-4.357-1.716-1.769-3.579-3.416-5.45-5.083a117.482,117.482,0,0,1-9.525-9.326A175.433,175.433,0,0,1,28.4-86.606c-.041-.038-.086-.073-.125-.111-2.178-2.141-3.549-5.376-5.117-7.824,6.2,2.291,13.065,3.784,19.433,5.818a180.691,180.691,0,0,1,18.491,6.939A219.019,219.019,0,0,1,84.717-69.776c8.583,4.245,15.795,10.087,22.161,16.218,7.532,7.254,14.435,14.571,18.7,23.379a59.6,59.6,0,0,1,4.725,13.407c.043.2.1.415.157.639a39.946,39.946,0,0,1,2.646,4.839c1.192,2.616,4.008,5.494-1.273,6.413" transform="translate(68.093 364.171)"/><path class="a" d="M208.529,277.269c-5.809,3.054-13.725,3.572-20.89,3.256-27.987-1.236-54.751-10.884-78.159-24.534a198.225,198.225,0,0,1-34.772-26.417A85.443,85.443,0,0,1,59.447,211.52a58.109,58.109,0,0,1-5.927-13.652,120.88,120.88,0,0,1-3.877-17.261c-.316-2.267-2.567-14.32,2.016-14.32a4.272,4.272,0,0,1-.049-.83c-10.662-13.188-17.63-28.4-24.108-42.816C21.865,110.1,16.765,97.471,13.2,84.593A354.392,354.392,0,0,1,3,33.408c-.451-3.671-.823-7.34-1.171-11.011Q1.388,17.7.944,13C.615,9.494-.357,5.427.137,1.975.567-1.031,3.8-.43,4.108,2.594c.368,3.652.537,7.3.929,10.958q.781,7.278,1.6,14.556A306.731,306.731,0,0,0,35.5,127.638a240.482,240.482,0,0,0,22.444,37.8,302.865,302.865,0,0,0,26.739,31.1c9.241,9.544,18.817,18.891,29.952,27.123a254.021,254.021,0,0,0,29.007,18.125c12.84,7.033,25.647,13.908,39.444,19.482,7.172,2.9,14.462,5.529,21.684,8.323,1.3.5,2.69,1,3.944,1.567,4.184,1.905,2.977,4.443-.185,6.106" transform="translate(0.222 38) rotate(-13)"/><path class="a" d="M67.366-2.037c11.5,0,21.725-1.2,32.317-4.861a155.393,155.393,0,0,0,25.565-11.9c11.379-6.408,20.342-13.867,26.616-23.749,3.748-5.9,6.5-14.258,3.981-20.7a20.343,20.343,0,0,0-21.83-12.573c-6.631.826-12.709,4.345-17.749,7.657a59.037,59.037,0,0,0-14.839,14.019c-6.5,8.632-10.32,18.391-15.842,27.412a138.969,138.969,0,0,1-8.291,12.662,22.07,22.07,0,0,1-5.565,5.508c-1.261.8-6.578,2.187-4.545,3.986C37.374-4.891,10.964-23.249,5.242-45.972c-.533-2.118-.95-4.253-1.39-6.384-.278-1.346-.166-6.308-1.666-7.167C-1.123-61.419.268-55.659.41-54.83q.55,3.215,1.169,6.423c2.235,11.63,8.692,22.441,19.46,30.734A77.028,77.028,0,0,0,67.366-2.037Z" transform="translate(62.014 183.065)"/></g><g transform="matrix(-0.819, -0.574, 0.574, -0.819, 234.413, 995.613)"><path class="b" d="M257.3,0c7.953,0,15.882.128,23.825.459,6.055.254,15.307-.752,20.431,2.271,5.323,3.139,4.956,9.565,4.125,14.1-4.4,24-15.125,45.277-37.569,62.279-34.558,26.18-74.176,39.481-121.056,45.4-32.931,4.161-63.331-1.617-87.573-20.371C41.767,130.472,28.33,159.6,21.587,189.009a163.735,163.735,0,0,0-3.757,43.617c.377,9.463,1.028,18.9,2.295,28.321.549,4.092,3.463,126.8,1.462,130.663-2.348,4.541-10.265,4.981-13.82,1.108-2.958-3.223-2.723-126.061-3.33-129.875C3.43,256.506,2.5,250.165,1.83,243.8A281.09,281.09,0,0,1,0,212.822C.139,189.585,6.59,166.258,15.414,144.2c16.929-42.317,44.4-79.926,87.117-109.435C128.8,16.62,158.86,9.272,192.968,5.328,214.2,2.872,235.785,0,257.3,0" transform="translate(328.632 384.525) rotate(180)"/><path class="b" d="M10.6,3c1.5-.872,5.053-1.182,6.707-1.443A135.109,135.109,0,0,1,38.272,0,480.761,480.761,0,0,1,103.09,4.663c13.492,1.866,29.8,8.145,43.223,4.735,23.382-5.942,47.013-5.65,69.2,2.832a87.74,87.74,0,0,1,44.663,38.4c1.356,2.4,6.855,11.246,8.412,17.208.666,1.219,1.3,2.446,1.881,3.692,1.636,3.536,3.1,7.135,4.467,10.741.583,1.538,2.048,4.934.308,5.591a94.149,94.149,0,0,1,7.3,12.71c5.969,12.709,12.495,26.65,14.592,40.12a50.351,50.351,0,0,1,.085,15c-.357,2.47-.209,7.437-2.3,9.315-4.439,3.985-6.718-1.594-6.218-4.251,3.822-20.253-3.558-39.271-12.3-58.308-5.655-12.31-14.947-23.573-25.356-33.772a103.187,103.187,0,0,0-29.008-20.231c-14.121-6.693-29.219-12.1-44.177-17.533-9.838-3.571-19.688-7.047-29.8-10.124-2.249-.685-5.787-2.44-8.28-2.447-5.273-.015-12.745,3.1-17.838,4.259C105.179,26.417,88.213,31.3,70.9,33.246,59.794,34.5,49.39,33.089,39,30.127a32.863,32.863,0,0,1-5.02-2.19c-7.711-2.375-15-5.363-21.356-9.674A77.13,77.13,0,0,1,2.622,9.63,4.026,4.026,0,0,1,1.3,6.787C.615,6.5.16,6.165.057,5.773-.7,2.881,6.191,2.828,10.6,3" transform="translate(351.102 442.991) rotate(180)"/><path class="b" d="M128.181,0C213.714,0,271.32,55.86,298.557,113.916c10.267,21.884,12.674,45.914,16.631,68.892,1.27,7.374.8,18.611,4.494,25.18,1.34,2.382,4.414,3.239,2.944,6.484-.889,1.966-2.635,3.169-5.256,3.56-5.38.8-12.987-3.945-17.6-5.82-38.259-15.548-63.4-39.589-83.9-69-12.712-18.231-25.609-37.157-33.161-57.172a164.722,164.722,0,0,1-8.875-37.788,116.994,116.994,0,0,1-1.185-15.135c.036-4.986,2.9-7.622,4.957-11.962-28.54-8.754-60.754-11.14-89.663-2.068-26.738,8.39-48.95,24.6-61.387,44.974a76.212,76.212,0,0,0-7.539,16.578c-1.188,3.732-1.245,8.573-3.447,11.947-5.34,8.179-16.573,2.711-15.495-4.9,3.007-21.238,18-42.559,37.164-57.325C61.406,11.734,94.167,0,128.181,0" transform="translate(323.014 218.122) rotate(180)"/></g></g></svg>