<svg xmlns="http://www.w3.org/2000/svg" xmlns:xlink="http://www.w3.org/1999/xlink" width="865.041" height="776.001" viewBox="0 0 865.041 776.001"><defs><style>.a{fill:url(#a);}.b{fill:url(#b);}.c{fill:url(#c);}.d{fill:rgba(0,0,0,0.81);}.e{fill:#132734;}.f{fill:url(#d);}.ad,.ag,.bp,.cb,.cj,.g,.h,.j,.n,.o,.p,.q,.s,.w,.x,.y{opacity:0.5;}.g{fill:url(#e);}.h{fill:url(#f);}.i{fill:url(#g);}.j{fill:url(#h);}.k{fill:url(#i);}.l{fill:#c18b5f;}.m{fill:#3d2621;}.n{fill:url(#j);}.o{fill:url(#k);}.p{fill:url(#l);}.q{fill:url(#m);}.r{fill:#323333;}.s{fill:url(#n);}.t{fill:#4c2f27;}.u{fill:#cc4d9b;}.v{fill:#ef720c;}.w{fill:url(#o);}.x{fill:url(#p);}.y{fill:url(#q);}.z{fill:#7bccf2;}.aa,.ab,.af{opacity:0.3;}.aa{fill:url(#r);}.ab{fill:url(#s);}.ac{fill:url(#t);}.ad{fill:url(#u);}.ae,.ax,.be,.bf{opacity:0.2;}.ae{fill:url(#v);}.af{fill:url(#w);}.ag{fill:url(#x);}.ah{fill:#b9b9b9;}.ai{fill:#a4a4a2;}.aj,.ak{opacity:0.52;}.aj{fill:url(#y);}.ak{fill:url(#z);}.al{fill:#bce4ed;}.am{fill:#faa106;}.an{fill:#e83429;opacity:0.73;}.ao{fill:#f98b04;}.ap{mix-blend-mode:luminosity;isolation:isolate;}.aq{fill:#f1f3f0;}.ar{fill:#acb5d0;}.as{fill:#e2e6e0;}.at{fill:#ffffb1;}.au{fill:#f83086;}.av{fill:#e08574;}.aw{fill:#ffcf9f;}.ay,.be{fill:#a17e9e;}.az{fill:url(#aa);}.ba{fill:url(#ab);}.bb{fill:#c85d66;}.bc{fill:#ffd728;}.bd{fill:#d794a3;}.bf{fill:#be6ba7;}.bg{fill:url(#ac);}.bh{fill:#ffff9d;}.bi{fill:#f6f8f4;}.bj{fill:#c05791;}.bk{fill:#eaffd4;}.bl{fill:#bca1ba;}.bm{fill:#e2e6e6;}.bn{fill:#ffe16b;}.bo{fill:#ffbd7e;}.bp,.bq,.br,.bs,.bt,.bu,.bv,.bw,.bx,.by,.bz,.cb,.cc,.cd,.ce,.cf,.cg,.ch,.ci,.cj,.ck,.cl,.cm{fill-rule:evenodd;}.bp{fill:url(#ad);}.bq{fill:#c74a3b;}.br{fill:url(#ae);}.bs{fill:url(#af);}.bt{fill:url(#ag);}.bu{fill:url(#ah);}.bv{fill:url(#ai);}.bw{fill:url(#aj);}.bx{fill:url(#ak);}.by{fill:url(#ao);}.bz{fill:url(#ap);}.ca,.cc{fill:url(#aq);}.cb{fill:url(#ar);}.cd{fill:url(#at);}.ce{fill:url(#au);}.cf{fill:url(#av);}.cg{fill:url(#aw);}.ch{fill:url(#bc);}.ci{fill:url(#bd);}.cj{fill:url(#bf);}.ck{fill:url(#bi);}.cl{fill:url(#bn);}.cm{fill:url(#bq);}</style><linearGradient id="a" x1="0.5" x2="0.416" y2="0.81" gradientUnits="objectBoundingBox"><stop offset="0" stop-color="#ffefff" stop-opacity="0.749"/><stop offset="0.088" stop-color="#ffdaf5" stop-opacity="0.761"/><stop offset="1" stop-color="#ff0389" stop-opacity="0.878"/></linearGradient><linearGradient id="b" x1="1.003" y1="0.029" x2="0.154" y2="1.26" gradientUnits="objectBoundingBox"><stop offset="0" stop-color="#fc88d9" stop-opacity="0.651"/><stop offset="0.402" stop-color="#ec00bc" stop-opacity="0.651"/><stop offset="0.72" stop-color="#dc00be" stop-opacity="0.651"/><stop offset="1" stop-color="#6d056a" stop-opacity="0.651"/></linearGradient><linearGradient id="c" x1="0.522" y1="-0.077" x2="0.929" y2="1.499" gradientUnits="objectBoundingBox"><stop offset="0" stop-color="#feeffd" stop-opacity="0.89"/><stop offset="1" stop-color="#fbfbfb"/></linearGradient><linearGradient id="d" y1="0.5" x2="1" y2="0.5" gradientUnits="objectBoundingBox"><stop offset="0.01" stop-color="#b00244"/><stop offset="1" stop-color="#ff023e"/></linearGradient><linearGradient id="e" x1="-22.562" y1="1.226" x2="-23.453" y2="0.417" gradientUnits="objectBoundingBox"><stop offset="0" stop-color="#ffda5d"/><stop offset="0.99" stop-color="#e31a5b"/></linearGradient><linearGradient id="f" x1="-10.24" y1="1.009" x2="-10.45" y2="0.428" xlink:href="#e"/><linearGradient id="g" x1="-2.872" y1="1.024" x2="-2.872" y2="0.123" gradientUnits="objectBoundingBox"><stop offset="0" stop-color="#eed5e7"/><stop offset="1" stop-color="#cbe6ea"/></linearGradient><linearGradient id="h" x1="-9.766" y1="0.006" x2="-9.756" y2="0.398" xlink:href="#g"/><linearGradient id="i" x1="-12.097" y1="0.975" x2="-11.637" y2="0.23" gradientUnits="objectBoundingBox"><stop offset="0" stop-color="#fff"/><stop offset="1" stop-color="#fff"/></linearGradient><linearGradient id="j" x1="-6.27" y1="0.162" x2="-6.241" y2="0.545" xlink:href="#g"/><linearGradient id="k" x1="-39.391" y1="0.275" x2="-39.546" y2="0.933" gradientUnits="objectBoundingBox"><stop offset="0" stop-color="#facbbf"/><stop offset="1" stop-color="#e16d5a"/></linearGradient><linearGradient id="l" x1="-22.459" y1="0.5" x2="-21.46" y2="0.5" xlink:href="#k"/><linearGradient id="m" x1="-30.752" y1="0.033" x2="-30.788" y2="1.364" xlink:href="#k"/><linearGradient id="n" x1="-17.044" y1="0.038" x2="-17.178" y2="1.028" gradientUnits="objectBoundingBox"><stop offset="0" stop-color="#865da6"/><stop offset="1" stop-color="#242258"/></linearGradient><linearGradient id="o" x1="-13.993" y1="0.5" x2="-12.992" y2="0.5" gradientUnits="objectBoundingBox"><stop offset="0.01" stop-color="#fff0a1"/><stop offset="1" stop-color="#eb4a95"/></linearGradient><linearGradient id="p" x1="0" y1="0.5" x2="1" y2="0.5" xlink:href="#k"/><linearGradient id="q" x1="-70.705" y1="0.5" x2="-69.706" y2="0.5" xlink:href="#k"/><linearGradient id="r" x1="-7.908" y1="1.278" x2="-8.652" y2="-0.382" gradientUnits="objectBoundingBox"><stop offset="0" stop-color="#374b9a"/><stop offset="1" stop-color="#430739"/></linearGradient><linearGradient id="s" x1="-11.928" y1="-0.209" x2="-10.738" y2="0.989" xlink:href="#r"/><linearGradient id="t" x1="-3.449" y1="1.03" x2="-3.439" y2="-0.297" xlink:href="#g"/><linearGradient id="u" x1="518.894" y1="-0.386" x2="518.596" y2="1.149" xlink:href="#r"/><linearGradient id="v" x1="-24.629" y1="0.501" x2="-23.63" y2="0.501" xlink:href="#o"/><linearGradient id="w" x1="-3.033" y1="-0.165" x2="-2.931" y2="0.943" xlink:href="#g"/><linearGradient id="x" x1="-79.061" y1="-0.079" x2="-78.914" y2="0.771" xlink:href="#g"/><linearGradient id="y" x1="-53.866" y1="0.5" x2="-52.866" y2="0.5" xlink:href="#k"/><linearGradient id="z" x1="-86.844" y1="0.5" x2="-85.844" y2="0.5" xlink:href="#k"/><linearGradient id="aa" x1="-0.003" y1="0.5" x2="3.198" y2="0.5" gradientUnits="objectBoundingBox"><stop offset="0" stop-color="#ffe7bc"/><stop offset="0.85" stop-color="#f2b362"/><stop offset="0.99" stop-color="#ffdd9e"/></linearGradient><linearGradient id="ab" x1="-0.003" y1="0.5" x2="3.2" y2="0.5" gradientUnits="objectBoundingBox"><stop offset="0" stop-color="#ffd892"/><stop offset="0.85" stop-color="#f27462"/><stop offset="0.99" stop-color="#ffac9e"/></linearGradient><linearGradient id="ac" x1="0" y1="0.5" x2="1" y2="0.5" xlink:href="#ab"/><linearGradient id="ad" x1="0.501" y1="0.999" x2="0.501" y2="-0.001" gradientUnits="objectBoundingBox"><stop offset="0" stop-color="#8b1356"/><stop offset="1" stop-color="#a43d72"/></linearGradient><linearGradient id="ae" x1="0.5" y1="1" x2="0.5" gradientUnits="objectBoundingBox"><stop offset="0.02" stop-color="#a42423"/><stop offset="0.99" stop-color="#7f1d36"/></linearGradient><linearGradient id="af" x1="0.5" y1="1" x2="0.5" gradientUnits="objectBoundingBox"><stop offset="0" stop-color="#ffc7cb"/><stop offset="1" stop-color="#ffea9f"/></linearGradient><linearGradient id="ag" y1="0.999" y2="-0.005" xlink:href="#af"/><linearGradient id="ah" x1="0.499" y1="1" x2="0.499" gradientUnits="objectBoundingBox"><stop offset="0" stop-color="#ffea9f"/><stop offset="1" stop-color="#ffc7cb"/></linearGradient><linearGradient id="ai" x1="0.5" y1="1" x2="0.5" y2="0" xlink:href="#ah"/><linearGradient id="aj" x1="0.502" y1="1" x2="0.502" y2="0" xlink:href="#ah"/><linearGradient id="ak" x1="0.502" y1="1" x2="0.502" y2="0" xlink:href="#ah"/><linearGradient id="ao" y1="1" y2="0" xlink:href="#af"/><linearGradient id="ap" x1="0.501" y1="1" x2="0.501" y2="0" xlink:href="#af"/><linearGradient id="aq" x1="0.5" y1="1" x2="0.5" y2="0" xlink:href="#ae"/><linearGradient id="ar" x1="0.501" y1="1" x2="0.501" y2="0" xlink:href="#ad"/><linearGradient id="at" x1="0.499" y1="1" x2="0.499" y2="0" xlink:href="#af"/><linearGradient id="au" y1="1.003" y2="-0.004" xlink:href="#af"/><linearGradient id="av" x1="0.501" y1="1" x2="0.501" y2="0" xlink:href="#ah"/><linearGradient id="aw" x1="0.499" y1="1" x2="0.499" y2="0" xlink:href="#ah"/><linearGradient id="bc" y1="1" y2="0" xlink:href="#af"/><linearGradient id="bd" x1="0.499" y1="1" x2="0.499" y2="0" xlink:href="#af"/><linearGradient id="bf" x1="0.501" y1="1" x2="0.501" y2="0" xlink:href="#ad"/><linearGradient id="bi" y1="1" y2="-0.002" xlink:href="#af"/><linearGradient id="bn" x1="0.499" y1="1" x2="0.499" y2="0" xlink:href="#ah"/><linearGradient id="bq" y1="0.999" y2="0" xlink:href="#af"/></defs><g transform="translate(-500.459 8.5)"><path class="a" d="M2057.747,878.188C2033.783,816.147,2037.9,770.2,2037.9,770.2s23.746-138.359-121.373-230.6-139.843-166.03-163.59-225.985c-16.907-42.687-139.471-152-208.675-211.427H2375v776Z" transform="translate(-1009.5 -110.687)"/><path class="b" d="M1639.656,938.071c73.73-61.893,160.44-139.6,174.386-173.641,24.936-60.863,16.355-134.4,178.31-232.35s130.1-235.283,130.1-235.283S2115,242.63,2148.66,171.071H2504.7v767Z" transform="translate(-1139.197 -170.571)"/><path class="c" d="M2329.826,936.161c-49.671-24.687-92.4-44.4-126.993-58.593-43.245-17.741-73.832-26.855-90.915-27.09-1.079-.015-2.191-.022-3.3-.022-12.835,0-25.665.977-39.249,2.011l-1.687.129c-12.542.953-28.147,2.139-44.424,2.14a291.386,291.386,0,0,1-44.249-3.229c-8.139-1.238-16.39-2.875-24.522-4.863-8.708-2.129-17.6-4.741-26.433-7.763-9.362-3.2-18.977-6.975-28.579-11.212-10.1-4.458-20.518-9.576-30.959-15.213-10.922-5.9-22.217-12.545-33.573-19.763-11.824-7.517-24.079-15.882-36.422-24.865a363.055,363.055,0,0,0-53.213-32.312h655.1l29.062,91.036V987.469C2402.956,973.393,2367.316,954.794,2329.826,936.161Z" transform="translate(-1063.97 -735.017)"/><path class="d" d="M1907.452,767.5c-.56-7.209-3.225-14.26-10.857-22.389-27.79-29.6-126.257,19.473-126.257,19.473a84.185,84.185,0,0,1-9.071,2.916h-42.674c-20.1-7.7-35.731-31.116-23.656-91.866,25.869-130.141,462.139-465.4,632.605-336.362,17.344,13.129,30.787,27.62,40.959,43.084V597.132c-30.43,74.95-76.033,133.056-76.033,133.056s-30.206,16.207-73.484,37.312Z" transform="translate(-1003)"/><path class="e" d="M436.52,656.4a83.261,83.261,0,0,1-21.9-8.11,85.269,85.269,0,0,0,4.47,9.12c10.18,17.64,25.13,32.42,40.87,44.41,17.53,13.34,33.64,22.36,45.68,27.65a23.739,23.739,0,0,0,10.9,4.09c3.42.36,7.76.81,11.2-2.09,3.7-3.11,3.89-8,3.9-9.15h0C521.12,718.84,467.58,700.18,436.52,656.4Z" transform="translate(561 -42)"/><path class="f" d="M622.27,562.94c-4.62-12-14.94-21.5-34.86-23.25-5.37-.47-16.08-2-16.08-2s-2.15-1.94-10.73-9.09-33.78-13-33.78-13a61.183,61.183,0,0,0-8.58-11.6c-5.89-6.49-23.59-11.69-23.59-11.69s-1.61-1.3-7.5-5.84c-2.07-1.6-7.77-5.1-14.3-9-53.37-17.09-103-20-135.37-10.33-20.27,6.06-33.82,17.05-37.39,32.6a56.387,56.387,0,0,0-1.3,9.23v.1c-.75,12.63,2.06,27.62,8.51,43.19.3.72.61,1.45.93,2.18l.21.48c.26.62.54,1.23.82,1.85.06.12.11.24.17.38q1,2.24,2.16,4.47l.19.39q.51,1,1.05,2l.11.2q1.23,2.34,2.58,4.7l.05.08a169.37,169.37,0,0,0,29.37,37.42c18.5,17.84,42.62,33.44,72.51,43.52,34.72,11.7,72.26,12.8,105.69,7.33,27.66-4.52,52.51-13.54,70.62-24.76h0l.14-.09c.26-.15.51-.31.76-.48.42-.26.85-.53,1.27-.81l.71-.46c.6-.39,1.19-.79,1.78-1.19l.48-.34,1.4-1,.58-.41,1.61-1.2.15-.11,1.69-1.33.45-.36,1.4-1.15a3,3,0,0,1,.27-.23c.54-.46,1.06-.92,1.58-1.38l.31-.29c.44-.39.86-.79,1.28-1.18.1-.1.2-.2.31-.29.49-.47,1-1,1.44-1.42l.17-.18c.41-.42.82-.84,1.2-1.26l.33-.35c.43-.48.86-1,1.27-1.44a45.522,45.522,0,0,0,6.77-10.21c.23-.47.43-.93.62-1.4l.15-.35c.17-.43.34-.87.5-1.31a1.943,1.943,0,0,1,.14-.45c.04-.15.13-.35.19-.53h0c.24-.77.47-1.55.65-2.32C625.9,587.85,626.66,574.3,622.27,562.94ZM351.74,600a180.768,180.768,0,0,1-14.91-15.42c-12.6-14.42-25.65-32.34-27.16-39.74-1.36-6.7-3.08-14.59-3.66-20.71,6.63,10.86,16.12,21.28,28.08,31a195.536,195.536,0,0,0,17.1,12.4c1.73,6.52,4.05,16.21,4.05,21.26C355.24,592.5,353.56,596.63,351.74,600Zm70,33.84a37.994,37.994,0,0,1-2.64,6.59,191,191,0,0,1-51.94-27.86c-2-5.7-4.4-13.79-4.4-19.48s1.69-12.32,3.06-16.8a331.362,331.362,0,0,0,51.82,22.74c2.47,9.49,6.36,26.86,4.09,34.83Zm68.4,17.53a255.328,255.328,0,0,1-44.81-4.12c-2.31-.41-4.58-.87-6.83-1.36-1.91-3.25-4.3-7.85-5-11.51-1.41-7.74.65-21.25,2.23-29.64a396,396,0,0,0,52.63,11.11c1.74,7.25,4.12,17.8,4.12,21.21a47.141,47.141,0,0,1-2.35,14.33ZM552,642.64c-5.15,1.51-10.58,2.9-16.29,4.09a213.929,213.929,0,0,1-27.74,4,36.692,36.692,0,0,1-5.82-11c-1.49-5.21-1.43-16.12-1.25-22.29a360.1,360.1,0,0,0,50.22,2.22,81.006,81.006,0,0,1,2.15,9.61,27.355,27.355,0,0,1,.35,4A33.181,33.181,0,0,1,552,642.64Zm13.58-4.47c-1.74-1.65-3.85-4-4.45-6.45-.87-3.48,0-10.14.39-12.52,19.39-1.29,37-4.58,51.29-10.14-1.81,3.09-30.63,23.07-47.22,29.11Z" transform="translate(561 -42)"/><path class="g" d="M344.93,606.43A169.367,169.367,0,0,1,315.56,569l-.05-.08q-1.35-2.35-2.58-4.7l-.11-.2q-.54-1-1.05-2l-.19-.39q-1.12-2.24-2.16-4.47c-.06-.14-.11-.26-.17-.38-.28-.62-.56-1.23-.82-1.85l-.21-.48c-.32-.73-.63-1.46-.93-2.18-6.45-15.57-9.26-30.56-8.51-43.19v-.1a56.387,56.387,0,0,1,1.3-9.23c3.57-15.55,17.12-26.54,37.39-32.6l4.9,43.42a149.729,149.729,0,0,0-8.29,44.62c-12-9.73-21.45-20.15-28.08-31,.58,6.12,2.3,14,3.66,20.71,1.51,7.4,14.56,25.32,27.16,39.74a89.329,89.329,0,0,0,8.11,21.79Z" transform="translate(561 -42)"/><path class="h" d="M622.27,562.94c-6.78-4-11.8-6.82-11.8-6.82s-30.56,4.29-37.53,39.14c-2.28,11.37-10.1,23.22-19.66,34a27.346,27.346,0,0,1,.35,4,33.183,33.183,0,0,1-1.62,9.31c-5.15,1.51-10.58,2.9-16.29,4.09-4.38,3.89-8.67,7.45-12.59,10.55,27.66-4.52,52.51-13.54,70.62-24.76h0l.14-.09c.26-.15.51-.31.76-.48.42-.26.85-.53,1.27-.81l.71-.46c.6-.39,1.19-.79,1.78-1.19l.48-.34,1.4-1,.58-.41,1.61-1.2.15-.11,1.69-1.33.45-.36,1.4-1.15a3,3,0,0,1,.27-.23c.54-.46,1.06-.92,1.58-1.38l.31-.29c.44-.39.86-.79,1.28-1.18.1-.1.2-.2.31-.29.49-.47,1-1,1.44-1.42l.17-.18c.41-.42.82-.84,1.2-1.26l.33-.35c.43-.48.86-1,1.27-1.44a45.522,45.522,0,0,0,6.77-10.21c.23-.47.43-.93.62-1.4l.15-.35c.17-.43.34-.87.5-1.31a1.943,1.943,0,0,1,.14-.45c.04-.15.13-.35.19-.53h0c.24-.77.47-1.55.65-2.32C625.9,587.85,626.66,574.3,622.27,562.94Zm-56.68,75.23c-1.74-1.65-3.85-4-4.45-6.45-.87-3.48,0-10.14.39-12.52,19.39-1.29,37-4.58,51.29-10.14C611,612.15,582.18,632.13,565.59,638.17Z" transform="translate(561 -42)"/><path class="i" d="M631.38,582.93A24.84,24.84,0,0,1,623.47,595c-24.93,21.8-99.37,19.61-176.25-1.78-89-24.77-153.41-72.49-143.92-106.58a26.081,26.081,0,0,1,4-8.28c6.51-9,19.14-15.52,36.13-19.3,27.38-6.08,66.08-5.12,108.69,3.59,7.85,1.6,15.84,3.47,23.92,5.6,5.82,2.87,11,5.48,13.49,6.95.31.17.58.33.8.48,5.9,3.75,7.51,4.83,7.51,4.83s2.39.58,5.71,1.58c5.7,1.71,14.15,4.68,17.88,8.07a51.91,51.91,0,0,1,8.58,9.65s25.2,4.82,33.78,10.72,10.72,7.51,10.72,7.51,10.72,1.22,16.09,1.61C629.47,522.47,636.64,564,631.38,582.93Z" transform="translate(561 -42)"/><path class="j" d="M452.15,462.66c-8.6,2.62-16.13,5-21,2-7.5-4.56-29.49-1.34-46.11,5.09s-13.13,2.95-16.08-2.41c-1.95-3.55-16.1-6.63-25.46-8.31C370.84,453,409.54,454,452.15,462.66Z" transform="translate(561 -42)"/><g transform="translate(561 -42)"><path class="k" d="M425.75,469.26s-9.2-7.87-3.48-17.52,9.65-18.94,19.66-15.73,17.87,3.58,18.94-2.14-3.57-29.67,5-27.88,14.29,3.21,14.29-3.93S488,382,488,382s0-10,4.65-8.58,5.36,5.36,4.29,10.36-7.15,12.87-1.08,15,6.44-11.8,8.94-8.58,8.58,3.57,4.29,8.22-4.65,4.29-5,8.58c0,0,2.14,13.94-7.87,15.37s-18.94-3.93-22.52,4.29,5,22.16-8.22,22.88-26.1-2.51-26.81,4.29a27.191,27.191,0,0,0,2.14,12.86Z"/></g><path class="l" d="M528.7,534.13c-.55,1.78-3.2,4.21-5.85,6.27-3,2.32-6,4.19-6,4.19l-14.2,1.61-22,4.56-7.42-12.29-.35-.58s15.81,0,21.18-1.88,12.86-8.58,13.94-8.58,4.55,0,4.82,1.34c.16.77-4.49,2.56-5.36,3.76-.65.88,1.61,4,1.61,4l17.16-11.8S529.41,531.82,528.7,534.13Z" transform="translate(561 -42)"/><path class="m" d="M444.07,481.23l4.87,2.37s-1.83,2.64-6.65,4.6a14,14,0,0,1-10.19,0l2.32-3.57Z" transform="translate(561 -42)"/><path class="n" d="M382.23,507.15s.36,23.59,2.86,39,25,14.3,37.18,19.3,59.33,9.29,70.41,9.65,35.39-1.79,37.54-3.22,17.51-7.14,17.51-7.14-7.14.35-16.8-12.52-27.52-24.66-42.18-30.74-19.66-.35-27.88-10.72-15.37-9.29-23.95-9.65-33.24-3.58-33.24-3.58Z" transform="translate(561 -42)"/><path class="l" d="M401.09,491.51l-7.51,5.63-24.66-8.85-6.7-1.34a74.759,74.759,0,0,0,7-16.46c.1-.35.19-.7.28-1.06a40.869,40.869,0,0,0,.65-13.76c-.21-2-.47-3.3-.47-3.3l12.6.8,1.5,2.5,10.57,17.61a43,43,0,0,0,2.8,8,3.36,3.36,0,0,0,1.16,1.4h.06c.71.31,1.27,1.65,1.68,3.2a41.011,41.011,0,0,1,1.04,5.63Z" transform="translate(561 -42)"/><path class="o" d="M397.19,481.23c-3.32-3.18-9.35-4.11-12.81-4.11-4.29,0-2.51-2.86-6.08-7.86-2-2.77-5.91-.95-9,1.23.1-.35.19-.7.28-1.06a40.869,40.869,0,0,0,.65-13.76h13.63l10.57,17.61a43,43,0,0,0,2.76,7.95Z" transform="translate(561 -42)"/><path class="p" d="M522.85,540.4c-3,2.32-6,4.19-6,4.19l-14.2,1.61-22,4.56-7.42-12.29c3.42,1.41,7.68,2.9,10.37,2.9,5.09,0,9.92-1.07,13.67.81s13.41,2.68,22.52-.81C520.86,541,521.86,540.67,522.85,540.4Z" transform="translate(561 -42)"/><path class="l" d="M415.41,448c-2.61,15.67-13,27.31-20.35,27.31s-17.2-10.72-19.9-23H375c-2.59-.19-6.15-4.47-5.81-8.95.3-3.92,3.89-5.35,6.52-5.52C379.76,425.25,393,417.4,401,418c4.54.35,9.2,1.14,12.22,5.12,1.6,2.11,2.74,5.11,3.13,9.41a61.258,61.258,0,0,1-.94,15.47Z" transform="translate(561 -42)"/><path class="q" d="M416.36,432.54c-4.91,2.73-12.85,6.71-18.4,7.4-8.58,1.08-8.22,1.08-9.65,1.43s-7.59,3.15-7.59,3.15l7.59-15.65s17.15-3.94,18.94-4.65a51.6,51.6,0,0,1,6-1.09C414.83,425.24,416,428.24,416.36,432.54Z" transform="translate(561 -42)"/><path class="r" d="M420,420.24c-.1,3.87-2.7,8-11.62,13.09-11.26,6.44-19.84,4-21.45,4-1.19,0-4.64,6.6-6.21,7.59a1.211,1.211,0,0,1,.05-.42c.34-4.48-1.38-6.56-4-6.75s-7.25,1-7.59,5.52,3.22,8.76,5.81,8.95a3.371,3.371,0,0,0,.63,0c.38,1.35,1.14,4,1.89,6.05a42.82,42.82,0,0,0,2.42,5.37s-9.65,1.87-12.87-1.88-2.14-10.19-5.36-15.55c-2.9-4.82-10.7-20.63,1.41-31.17a26.37,26.37,0,0,1,4.85-3.32c18.76-10.19,48.43-7.33,51.65,5.54a11.23,11.23,0,0,1,.39,2.98Z" transform="translate(561 -42)"/><path class="s" d="M420,420.24c-.1,3.87-2.7,8-11.62,13.09-11.26,6.44-19.84,4-21.45,4-1.19,0-4.64,6.6-6.21,7.59a1.211,1.211,0,0,1,.05-.42c.34-4.48-1.38-6.56-4-6.75s-7.25,1-7.59,5.52,3.22,8.76,5.81,8.95a3.371,3.371,0,0,0,.63,0c.38,1.35,1.14,4,1.89,6.05a42.82,42.82,0,0,0,2.42,5.37s-9.65,1.87-12.87-1.88-2.14-10.19-5.36-15.55c-2.9-4.82-10.7-20.63,1.41-31.17-2.26,4.88-3.08,10.51,2.34,13.83,11.08,6.79,16.44-9.65,22.88-1.79s21.8,8.22,28.24-1.78C417.64,423.59,418.79,421.89,420,420.24Z" transform="translate(561 -42)"/><path class="t" d="M421.48,469.24,444.39,462s8,19.95-4,23.77C425.43,490.49,421.48,469.24,421.48,469.24Z" transform="translate(561 -42)"/><path class="u" d="M428.7,469.61l-.54-1,7.11-2.42s8.09,17.83,6.3,18.9a8.5,8.5,0,0,1-3.57,1.17l-5-11.44L428.7,470" transform="translate(561 -42)"/><path class="v" d="M494.65,552.63l-31.36,4.56-28.71-3.44L415,551.39l-18.7-2.24L352,528.24l-10.19-21.18-1.61-7.24a33.049,33.049,0,0,1,4.6-6.71c2.25-2.51,10.89-6.94,14.44-7.63a25,25,0,0,1,2.65-.39c7.26-.62,9,3.23,19.33,5.88,11.53,2.95,16.35-3.13,16.35-3.13L395.73,477c1.09.37,4.82,2.58,10.25,5.83,0,0,4.68,2.73,8.59,5.12,14.78,9,55.3,47.93,60.63,50.95l3.37,1.91h0l-3.37-1.91,3.37,1.91C481.83,542.69,486.85,546,494.65,552.63Z" transform="translate(561 -42)"/><path class="w" d="M494.65,552.63l-31.36,4.56-28.71-3.44L415,551.39c4.7-11.34,9.81-23.15,9.81-23.15L427.3,496l.33-4.25s0,1.74.13,4.57c.46,11,2.49,38.42,11.3,43,11.09,5.72,13.59-8.23,22.53-.36,6.82,6,13.85,7.43,13.61,0a27.691,27.691,0,0,0,3.37,1.91C485.81,544.05,494.65,552.63,494.65,552.63Z" transform="translate(561 -42)"/><path class="l" d="M431.58,494.19l4,59.56-.73-.09-26-3.13-11.58-1.38L389,545.24l-20.09-9.49L353,528.24l-10.19-21.18-1.61-7.24a33.049,33.049,0,0,1,4.6-6.71c5.95-3.44,15.05-6.82,23.28-2.14,3.65,2.08,8.55,6.25,13.79,11.25,3.57,3.41,7.29,7.21,10.87,11l.44.45c10.7,11.25,21.28,20.2,21.28,20.2l2.15-46.38,9.11-18.23,2.15.53,7.24-1.61,4,11.6,1.64,4.76Z" transform="translate(561 -42)"/><path class="v" d="M417.67,487.54,415.57,533s-10.58-9-21.29-20.19c-.14-.16-.29-.31-.43-.46-3.58-3.79-7.3-7.59-10.87-11-5.24-5-10.14-9.17-13.79-11.25-8.23-4.68-17.33-1.3-23.28,2.14a33.047,33.047,0,0,0-4.6,6.71l1.61,7.24,10.18,21.18,15.9,7.51,20.08,9.49,8.26,3.91,11.58,1.39,26,3.12.73.09-4-58.91a85.746,85.746,0,0,1-13.98-6.43Z" transform="translate(561 -42)"/><path class="x" d="M417.67,487.09l-2.1,45.44s-10.58-8.94-21.29-20.19c-.14-.15-.29-.3-.43-.46-3.58-3.79-7.3-7.59-10.87-11-5.24-5-10.14-9.17-13.79-11.25-8.23-4.67-17.33-1.29-23.28,2.15a32.841,32.841,0,0,0-4.6,6.7l1.61,7.24L353.1,526.9l15.9,7.51,20.08,9.5,8.26,3.9,11.58,1.39,26,3.12.73.09-4-58.9a86.627,86.627,0,0,1-13.98-6.42Z" transform="translate(561 -42)"/><path class="v" d="M421.39,490.15Q420,512.73,418.7,535.3a84.729,84.729,0,0,1-17.29-10.81,63.3,63.3,0,0,1-9.39-9c-5.11-6.09-4.8-8.29-9-13.57a51.211,51.211,0,0,0-13.79-11.25c-8.23-4.68-17.33-1.3-23.28,2.14a32.751,32.751,0,0,0-4.6,6.71l1.61,7.24L353.1,528l15.9,7.52L389.08,545l8.26,3.91,11.58,1.38,26,3.12.73.1-4-58.91Z" transform="translate(561 -42)"/><path class="y" d="M430.58,494.19l4,59.56-.73-.09c-3.44-7.4-9.29-20.72-8-23.28,1.79-3.58,3.22-21.81,0-28.24s3.57-11.44,8.94-14.65c2.45-1.48,3.71-4.67,4.35-7.71l1.64,4.76Z" transform="translate(561 -42)"/><path class="v" d="M387.2,546.09a10.326,10.326,0,0,1,.05,1.46l-36-17-10.19-21.18-1.61-7.24a32.84,32.84,0,0,1,4.6-6.7c5.95-3.44,15.05-6.82,23.28-2.14,6.14,3.49,15.83,12.91,24.66,22.24C389.53,522.87,386.16,535.28,387.2,546.09Z" transform="translate(561 -42)"/><path class="z" d="M474.63,467.11" transform="translate(561 -42)"/><path class="t" d="M704.29,607.44a62.738,62.738,0,0,1,4.18-9.94,63,63,0,0,1,4.87-11.17c-2.29-1.8-5.5-4.32-9.39-7.35-23.78-18.52-72.64-55.82-87.58-61.74C588,506,501.09,552.9,501.09,552.9l27.34,15,20.12,2.27,27.6,3.09L626,563.09,674.26,588l16.62,8.59,10.2,5.28C702.08,602.54,702.54,604.76,704.29,607.44Z" transform="translate(561 -42)"/><path class="aa" d="M674.26,588,626,563.09l-49.87,10.18-27.6-3.09-1.89-3.88s42.9-21.44,56.3-17.69,22.52,10.72,29.49,9.65,23.59-7.5,27.35,7.51C661.85,574,668.6,582.25,674.26,588Z" transform="translate(561 -42)"/><path class="m" d="M669.84,648.69l.9,1,10.94,12a85,85,0,0,1,19.11-11.88c-1.31-2-4.5-6.93-8.93-13.6-.23-.36-.48-.73-.73-1.1C673,607.84,635.88,553.7,621,544.68c-12.31-7.48-51.83,25.38-51.83,25.38l7,3.4,44.16,21.62,49,53Z" transform="translate(561 -42)"/><path class="ab" d="M669.84,648.69l-.52-.57-49-53L576.16,573.5l1.08-.72s31.62-3.78,40.2,4.22,9.11,18.76,15.55,23.05,23,12.34,25.74,22.52C660.62,629.8,666.54,642.1,669.84,648.69Z" transform="translate(561 -42)"/><path class="ac" d="M622.09,597.58l-97.59-7.86-161.21-35-16.8-23.24-6.44-11.79s2,.27,5.19.78c9.87,1.57,30.95,5.34,37.71,9.94l8.93,6.08s28.6,3.21,38.25,8.22,10.37,5.72,10.37,5.72,54.33-2.5,72.92,4.64,26.45,11.44,26.45,11.44,7.15-2.5,22.52,1.79,16.44,4.64,16.44,4.64,16.09-1.07,24.67-.35c2.57.22,7.14,3.93,7.14,3.93S621,579,622.09,585.07a33.772,33.772,0,0,1,.44,4.28,45.242,45.242,0,0,1-.44,8.23Z" transform="translate(561 -42)"/><path class="ad" d="M564.36,510.9a27.444,27.444,0,0,0,3.16.64c-.62-5.45-1.49-12.69-2.43-19.35Z" transform="translate(561 -42)"/><path class="ae" d="M400,500.62c-9.71.19-28.19-9.75-38.1-15.53,7.26-.62,9,3.23,19.33,5.88,11.53,2.95,16.35-3.13,16.35-3.13L395.73,477c1.09.37,4.82,2.58,10.25,5.83C407.78,490.35,408.6,500.46,400,500.62Z" transform="translate(561 -42)"/><path class="af" d="M623.47,595c-24.93,21.8-99.37,19.61-176.25-1.78-89-24.77-153.41-72.49-143.92-106.58a26.081,26.081,0,0,1,4-8.28c-.87,8.5-.28,22.43,10.56,30.92,16.44,12.87,32.53,18.95,36.82,30.38S397.24,569,410.47,569s87.22,12.5,100.44,23.23,104.38,10,110.46,3.93A3.3,3.3,0,0,1,623.47,595Z" transform="translate(561 -42)"/><path class="ag" d="M503.58,482.1c-6.95.62-8,5.87-8.66,3-.43-1.87-3-6.23-5.36-9.86.31.17.58.33.8.48,5.9,3.75,7.51,4.83,7.51,4.83S500.26,481.1,503.58,482.1Z" transform="translate(561 -42)"/><path class="ah" d="M496.93,746.87a96.439,96.439,0,0,1-13.13,7.72c22.54-2.73,41.84-7.88,55.3-14.61-3.72-16.36-42.14-29.32-89.57-29.84C476,717.48,494.4,731.07,496.93,746.87Z" transform="translate(561 -42)"/><path class="ai" d="M353.72,740c20.46,10.2,54.36,16.85,92.69,16.85a301.456,301.456,0,0,0,37.39-2.24,96.429,96.429,0,0,0,13.13-7.72c-2.53-15.8-21-29.39-47.4-36.73h-3.12C397.57,710.11,357.53,723.27,353.72,740Z" transform="translate(561 -42)"/><path class="e" d="M437.5,652.69h0c-15.7,2.34-16.05,2.37-16.05,2.37-15.7,1-30.42-5.44-30.42-5.44h0S366.74,638,346.58,618.74c-4-3.83-7-7.14-8.59-9h0c3.59,21.54,4.11,24,4.11,24,3.26,15.43,9.13,26.63,13,33.92,28.39,54.11,92.33,76.4,103.9,80.23h0c0,1.13-.2,6-3.9,9.16-3.44,2.89-7.78,2.44-11.19,2.08A23.74,23.74,0,0,1,433,755.09c-12-5.28-28.15-14.31-45.67-27.65-15.75-12-30.7-26.77-40.88-44.41,0,0-21-34.87-18.65-93.71,0-.85.35-7.94,2-8.15,1.89-.25,3.24,8.85,9.45,18.82,3.39,5.43,6.7,8.69,11.23,13.14a119.73,119.73,0,0,0,27.33,20,151.169,151.169,0,0,0,59.71,19.51Z" transform="translate(561 -42)"/><path class="l" d="M753.63,689.8S739,693,730,689.8s-13.94-10-24.67-8.22c-11.15,1.86-13.94,3.58-18.94-2.5S682.85,663,682.85,663h0l-12.09-13.28a41,41,0,0,0,16.65-10.38,52.166,52.166,0,0,0,3.74-4.17c.25.37.5.74.73,1.1,5.88,8.86,9.58,14.61,9.58,14.61s28.6,22.53,31.45,25.38,7.16,5.72,9.66,5.72,9.29,1.43,10,3.93S753.63,689.8,753.63,689.8Z" transform="translate(561 -42)"/><path class="aj" d="M683.39,646.2c-6.17,9.26-1,16.21-.56,16.76l-12.09-13.28c7.1-2.19,16.72-11.31,20.69-15.28C690.37,636.53,685,643.76,683.39,646.2Z" transform="translate(561 -42)"/><path class="l" d="M754.7,606c-9.11,1.61-18.23.54-23.59,2.68s-15.35,8.51-21.81,3.93-6.61-9.65-8.22-10.72l-2.3-1.19-7.9-4.09.19-.08c6.6-2.55,10.54-10.69,12.64-16.85.09-.24.16-.46.24-.68,7.77,6,12.86,10.09,13.22,10.38s15,1.61,21.45,2.14,28.77-.89,30.38,1.79S763.82,604.37,754.7,606Z" transform="translate(561 -42)"/><path class="ak" d="M701.8,589.36c-2.42,5.64-3.63,9.26-3,11.32l-7.9-4.09.19-.08c6.6-2.55,10.54-10.69,12.64-16.85a23.38,23.38,0,0,1-1.93,9.7Z" transform="translate(561 -42)"/><path class="al" d="M462.2,559.84l63.22-10.74,65.37-31.13-67.15,7.58Z" transform="translate(561 -42)"/><path class="am" d="M590.89,518.34l-65.37,31.13,7.81-74.07c.36-3.33,2.58-5.78,5.28-7.7.3-.22.6-.43.9-.62,15.64-10.21,59.61-30.61,62.38-25.05C605.93,450.12,590.89,518.34,590.89,518.34Z" transform="translate(561 -42)"/><path class="an" d="M574,496.29c.07,6.24-1.79,11.81-4.14,12.43s-4.33-3.94-4.4-10.19,1.79-11.81,4.15-12.43S573.94,490,574,496.29Z" transform="translate(561 -42)"/><path class="ao" d="M590.64,518.46l-65.12,31,7.81-74.07c.36-3.33,2.58-5.78,5.28-7.7C540.45,478.88,547.15,516.09,590.64,518.46Z" transform="translate(561 -42)"/><g class="ap" transform="translate(243.141 -10.51) rotate(-9)"><path class="aq" d="M559.61,314.79l4.73-7.89h30.62l-.39,7.89Z" transform="translate(28.67 -10.542)"/><path class="ar" d="M594.96,306.9l4.29,2.53,3.9,8.02-8.58-2.66Z" transform="translate(40.441 -10.728)"/><path class="as" d="M550.33,417.281l-.34-102.491h49.26v103.3Z" transform="translate(48.837 -35.923)"/><path class="ar" d="M599.25,314.79l7.81,2.239V417.858l-7.81.231Z" transform="translate(42.186 -35.923)"/><path class="aq" d="M693.15,377.37l3.55-5.91h22.91l-.29,5.91Z" transform="translate(82.418 -61.518)"/><path class="ar" d="M719.61,371.46l3.21,1.9,2.93,6.01-6.43-2Z" transform="translate(88.598 -61.948)"/><path class="as" d="M686.2,473.044l-.25-95.674h36.87v96.424Z" transform="translate(81.631 -95.065)"/><path class="ar" d="M722.82,377.37l5.85,2.094v94.116l-5.85.215Z" transform="translate(89.83 -95.065)"/><rect class="at" width="2.03" height="26.77" transform="translate(850.493 285.1)"/><path class="at" d="M757.59,361.33H736.51V340.06l6.9-.94Z" transform="translate(98.738 -41.734)"/><path class="as" d="M739.26,428.288V354.6h33.15v74.434Z" transform="translate(102.937 -60.9)"/><path class="at" d="M739.26,354.6l-6.41.719,1.46,73.656,4.95.258Z" transform="translate(93.839 -60.9)"/><path class="as" d="M768.73,360.39H743.41V339.12l5.9-8.33h8.99l10.43,9.27Z" transform="translate(102.594 -31.653)"/><path class="at" d="M749.31,330.79l-3.14.75-9.66,8.52,6.9-.94Z" transform="translate(96.743 -30.162)"/><path class="as" d="M749.31,330.79l.64-18.6,3.42-2.76,3.52,2.83,1.41,18.53Z" transform="translate(100.846 -12.61)"/><path class="at" d="M753.37,309.43l-4.06,1.67-1.81,1.61-1.33,18.83,3.14-.75.64-18.6Z" transform="translate(99.191 -12.678)"/><rect class="as" width="2.03" height="26.77" transform="translate(851.904 285.1)"/><circle class="au" cx="0.43" cy="0.43" r="0.43" transform="translate(1042.412 325.66)"/><path class="au" d="M802.6,491.23a.43.43,0,1,0,.42-.42.42.42,0,0,0-.42.42Z" transform="translate(119.289 -140.986)"/><path class="au" d="M706.46,515.61a.43.43,0,1,0,.42-.42.42.42,0,0,0-.42.42Z" transform="translate(82.508 -157.435)"/><circle class="au" cx="0.43" cy="0.43" r="0.43" transform="translate(730.429 345.313)"/><circle class="au" cx="0.43" cy="0.43" r="0.43" transform="translate(735.78 358.516)"/><circle class="au" cx="0.43" cy="0.43" r="0.43" transform="translate(764.482 340.242)"/><path class="au" d="M763.46,492.06a.43.43,0,1,0,.42-.42.42.42,0,0,0-.42.42Z" transform="translate(104.315 -141.546)"/><circle class="au" cx="0.43" cy="0.43" r="0.43" transform="translate(809.803 357.426)"/><path class="au" d="M830.42,366.81a.69.69,0,0,0,.69.69.7.7,0,0,0,.7-.69.71.71,0,0,0-.7-.7.7.7,0,0,0-.69.7Z" transform="translate(103.476 -56.951)"/><path class="au" d="M618.47,448.93a.7.7,0,1,0,.69-.69.69.69,0,0,0-.69.69Z" transform="translate(48.907 -112.467)"/><path class="au" d="M889.28,431.9a.7.7,0,1,0,.7-.617.7.7,0,0,0-.7.617Z" transform="translate(161.362 -101.005)"/><rect class="av" width="30.54" height="66.184" transform="translate(946.051 300.44)"/><rect class="aw" width="30.54" height="66.184" transform="translate(933.672 300.44)"/><g class="ax" transform="translate(932.424 267.112)"><rect class="ay" width="1.04" height="1.63" transform="translate(23.97 38.27)"/><rect class="ay" width="1.04" height="1.63" transform="translate(10.32 29.64)"/><rect class="ay" width="1.04" height="1.63" transform="translate(27.93 122.51)"/><rect class="ay" width="1.04" height="1.63" transform="translate(10.32 49.18)"/><rect class="ay" width="1.04" height="1.63" transform="translate(10.32 62.38)"/><rect class="ay" width="1.04" height="1.63" transform="translate(28.45 12.25)"/><rect class="ay" width="1.04" height="1.63" transform="translate(0 125.18)"/><rect class="ay" width="1.04" height="1.63" transform="translate(11.35)"/><rect class="ay" width="1.04" height="1.63" transform="translate(13.27)"/></g><rect class="as" width="30.99" height="121.02" transform="translate(678.768 270.007)"/><path class="az" d="M905.77,513.974c1.68-15.423,3.69-30.9.9-46.307a63.729,63.729,0,0,1,6.76-28.241,62.245,62.245,0,0,1-4-26.955l-8.94,1.91v99.575C902.22,513.936,904,513.942,905.77,513.974Z" transform="translate(161.362 -132.705)"/><path class="ba" d="M905.77,513.974c1.68-14.416,3.69-28.88.9-43.284a56.316,56.316,0,0,1,6.75-26.374,57.466,57.466,0,0,1-3.93-15.476h-9v85.116C902.22,513.938,904,513.944,905.77,513.974Z" transform="translate(161.362 -142.191)"/><path class="bb" d="M698.64,428.91h36.79l.75,13.13-9.1,23.85-23.72-2.45S696.32,437.76,698.64,428.91Z" transform="translate(87 -112.937)"/><rect class="at" width="27.37" height="0.57" transform="translate(790.122 334.187)"/><rect class="at" width="27.37" height="0.57" transform="translate(790.122 336.973)"/><rect class="at" width="31.63" height="0.57" transform="translate(788.058 331.71)"/><path class="at" d="M735.47,516.609c2.52,0,5,.061,7.5.134l-5.66-90.964h-1.88v5.7l-2.58-.031V435.9l-2.1.043v4.889h-2.64V446.4h-2.88v70.187h1.38C729.52,516.548,732.48,516.542,735.47,516.609Z" transform="translate(93.428 -140.745)"/><path class="av" d="M727.08,516.636q4.155-.073,8.39,0c3.3,0,6.57.079,9.81.208v-87l-8-4.065v5.7l-2.58-.031V435.9l-2.09.043v4.891h-2.64v5.575h-2.88Z" transform="translate(94.273 -140.795)"/><path class="av" d="M692.56,517.921q4.92,0,9.75.2c2.17-.227,4.35-.43,6.56-.584V446.506H706V440.9h-2.64v-4.918l-2.09-.043v-4.481l-2.58.031V425.76H697.1l-6,92.124Z" transform="translate(79.832 -141.425)"/><path class="at" d="M692.56,517.921q4.91,0,9.73.2c1.65-.178,3.31-.332,5-.467V446.506h-2.88V440.9h-2.64v-4.918l-2.1-.043v-4.481l-2.58.031V425.76l-8,4.088v88.024C690.23,517.878,691.39,517.89,692.56,517.921Z" transform="translate(79.115 -141.425)"/><path class="bb" d="M725.21,574.39V459.51H708.87V575.07a119.3,119.3,0,0,1,16.34-.68Z" transform="translate(86.609 -186.773)"/><path class="av" d="M766.81,516.369V397.62l42.36,45.07v73.3Z" transform="translate(117.121 -126.478)"/><path class="at" d="M766.81,397.62h-4.83l1.43,118.735,3.4.014Z" transform="translate(104.735 -126.478)"/><path class="aw" d="M761.98,397.62,751.78,440.2v76.146h11.63Z" transform="translate(102.463 -126.468)"/><path class="aw" d="M814.11,499.54l-41.7,22.21v46.47l39.61-.14Z" transform="translate(119.29 -200.087)"/><path class="at" d="M772.41,521.75l7.72,1.49,33.98-23.7-4.94-2.62Z" transform="translate(119.29 -158.611)"/><path class="av" d="M772.41,568.22h7.72V523.24l-7.72-1.49Z" transform="translate(109.521 -200.087)"/><path class="av" d="M759.48,568.42v-46.1l-5.12,1.89v44.04Z" transform="translate(101.863 -200.087)"/><path class="at" d="M759.48,522.32l-7.7-19.4-5.05,1.05,7.63,20.24Z" transform="translate(100.755 -160.095)"/><path class="aw" d="M754.36,568.25h-7.63V503.97l7.63,20.24Z" transform="translate(99.512 -200.087)"/><rect class="bc" width="1.04" height="1.63" transform="translate(904.255 343.797)"/><rect class="bc" width="1.04" height="1.63" transform="translate(885.381 341.002)"/><rect class="bc" width="1.04" height="1.63" transform="translate(909.745 357.453)"/><rect class="bc" width="1.04" height="1.63" transform="translate(873.683 352.32)"/><rect class="bc" width="1.04" height="1.63" transform="translate(907.076 356.941)"/><rect class="bc" width="1.04" height="1.63" transform="translate(871.83 352.32)"/><rect class="bc" width="1.04" height="1.63" transform="translate(852.789 357.34)"/><rect class="bc" width="1.04" height="1.63" transform="translate(910.45 335.375)"/><rect class="bc" width="1.04" height="1.63" transform="translate(858.058 350.003)"/><rect class="bc" width="1.04" height="1.63" transform="translate(871.125 360.123)"/><rect class="bc" width="1.04" height="1.63" transform="translate(886.819 331.412)"/><rect class="bc" width="1.04" height="1.63" transform="translate(889.46 331.412)"/><path class="ar" d="M638.67,458.453h39.55V410.9L638.67,391.35Z" transform="translate(62.286 -90.34)"/><path class="as" d="M635.99,480.864h39.54V411.918L635.99,377.94Z" transform="translate(61.156 -98.885)"/><path class="ar" d="M678.22,442.88h-2.69l-39.54-64.94,27.49,3.4Z" transform="translate(61.588 -82.853)"/><path class="ar" d="M658.44,516.252,635.99,397.63V516.349Z" transform="translate(58.544 -126.473)"/><g class="ax" transform="translate(697.146 356.49)"><rect class="bd" width="39.54" height="0.45"/></g><g class="ax" transform="translate(697.146 354.793)"><rect class="bd" width="39.54" height="0.45"/></g><g class="ax" transform="translate(697.146 358.773)"><rect class="bd" width="39.54" height="0.45"/></g><g class="ax" transform="translate(697.146 358.689)"><rect class="bd" width="39.54" height="0.45"/></g><g class="ax" transform="translate(697.146 355.469)"><rect class="bd" width="39.54" height="0.45"/></g><g class="ax" transform="translate(697.146 351.476)"><rect class="bd" width="39.54" height="0.45"/></g><g class="ax" transform="translate(697.146 347.487)"><rect class="bd" width="39.54" height="0.45"/></g><g class="ax" transform="translate(697.146 343.494)"><rect class="bd" width="39.54" height="0.45"/></g><g class="ax" transform="translate(697.146 339.502)"><rect class="bd" width="39.54" height="0.45"/></g><g class="ax" transform="translate(697.146 335.512)"><rect class="bd" width="39.54" height="0.45"/></g><g class="ax" transform="translate(696.325 331.52)"><rect class="bd" width="34.33" height="0.45"/></g><g class="ax" transform="translate(695.189 327.527)"><rect class="bd" width="26.88" height="0.45"/></g><g class="ax" transform="translate(694.075 323.538)"><rect class="bd" width="19.29" height="0.45"/></g><g class="ax" transform="translate(693.051 319.545)"><rect class="bd" width="12.05" height="0.45"/></g><g class="ax" transform="translate(692.045 315.556)"><rect class="bd" width="4.68" height="0.45"/></g><path class="ar" d="M660.65,380.99l-2.21-2.17L641.54,377,640,378.44Z" transform="translate(59.892 -64.887)"/><rect class="be" width="10.7" height="1.1" transform="translate(732.027 356.995)"/><rect class="be" width="7.74" height="1.1" transform="translate(735.654 356.995)"/><rect class="bf" width="3.87" height="1.1" transform="translate(740.382 356.995)"/><rect class="be" width="10.7" height="1.1" transform="translate(695.481 359.643)"/><rect class="be" width="7.74" height="1.1" transform="translate(699.181 359.643)"/><rect class="bf" width="3.87" height="1.1" transform="translate(704.003 359.643)"/><rect class="be" width="10.7" height="1.1" transform="translate(695.481 335.659)"/><rect class="be" width="7.74" height="1.1" transform="translate(699.181 335.659)"/><rect class="bf" width="3.87" height="1.1" transform="translate(704.003 335.659)"/><rect class="be" width="1.04" height="1.63" transform="translate(733.265 338.97)"/><rect class="be" width="1.04" height="1.63" transform="translate(714.39 336.178)"/><rect class="be" width="1.04" height="1.63" transform="translate(738.74 356.286)"/><rect class="bf" width="1.04" height="1.63" transform="translate(702.678 347.492)"/><rect class="be" width="1.04" height="1.63" transform="translate(700.839 347.492)"/><rect class="bf" width="1.04" height="1.63" transform="translate(733.984 344.985)"/><rect class="bf" width="1.04" height="1.63" transform="translate(700.12 357.985)"/><rect class="be" width="1.04" height="1.63" transform="translate(715.814 326.584)"/><rect class="be" width="1.04" height="1.63" transform="translate(718.469 326.584)"/><rect class="as" width="47.54" height="90.144" transform="translate(535.84 285.1)"/><rect class="ar" width="25.58" height="73.73" transform="translate(595.175 294.313)"/><rect class="bg" width="60.28" height="111.39" transform="translate(597.783 274.822)"/><rect class="bh" width="5.14" height="69.113" transform="translate(662.505 298.65)"/><g class="ax" transform="translate(621.8 298.65)"><rect class="bd" width="0.46" height="69.113"/></g><g class="ax" transform="translate(607.653 298.65)"><rect class="bd" width="0.46" height="69.113"/></g><g class="ax" transform="translate(618.448 298.65)"><rect class="bd" width="0.46" height="69.113"/></g><g class="ax" transform="translate(629.257 298.65)"><rect class="bd" width="0.46" height="69.113"/></g><g class="ax" transform="translate(640.052 298.65)"><rect class="bd" width="0.46" height="69.113"/></g><g class="ax" transform="translate(650.861 298.65)"><rect class="bd" width="0.46" height="69.113"/></g><g class="ax" transform="translate(661.656 298.65)"><rect class="bd" width="0.46" height="69.113"/></g><g class="ax" transform="translate(672.465 298.65)"><rect class="bd" width="0.46" height="69.113"/></g><path class="at" d="M594.72,405.39A30.38,30.38,0,0,0,625.1,375H564.34A30.38,30.38,0,0,0,594.72,405.39Z" transform="translate(32.792 -69.875)"/><rect class="be" width="10.7" height="1.1" transform="translate(646.255 354.218)"/><rect class="be" width="7.74" height="1.1" transform="translate(650.054 354.218)"/><rect class="bf" width="3.87" height="1.1" transform="translate(655.004 354.218)"/><rect class="be" width="10.7" height="1.1" transform="translate(609.709 351.083)"/><rect class="be" width="7.74" height="1.1" transform="translate(613.581 351.083)"/><rect class="bf" width="3.87" height="1.1" transform="translate(618.625 351.083)"/><rect class="be" width="10.7" height="1.1" transform="translate(609.709 332.883)"/><rect class="be" width="7.74" height="1.1" transform="translate(613.581 332.883)"/><rect class="bf" width="3.87" height="1.1" transform="translate(618.625 332.883)"/><rect class="be" width="1.04" height="1.63" transform="translate(648.046 336.2)"/><rect class="be" width="1.04" height="1.63" transform="translate(664.888 335.294)"/><rect class="be" width="1.04" height="1.63" transform="translate(629.172 333.408)"/><rect class="be" width="1.04" height="1.63" transform="translate(667.57 338.106)"/><rect class="be" width="1.04" height="1.63" transform="translate(665.593 357.857)"/><rect class="be" width="1.04" height="1.63" transform="translate(653.536 357.532)"/><rect class="bf" width="1.04" height="1.63" transform="translate(617.473 344.726)"/><rect class="be" width="1.04" height="1.63" transform="translate(615.621 344.726)"/><rect class="bf" width="1.04" height="1.63" transform="translate(654.241 327.781)"/><rect class="bf" width="1.04" height="1.63" transform="translate(664.169 331.078)"/><rect class="bf" width="1.04" height="1.63" transform="translate(614.915 352.545)"/><rect class="be" width="1.04" height="1.63" transform="translate(630.61 323.818)"/><rect class="be" width="1.04" height="1.63" transform="translate(633.251 323.818)"/><rect class="bb" width="31.08" height="17.55" transform="translate(1026.002 305.587)"/><rect class="as" width="31.08" height="17.55" transform="translate(1013.312 305.587)"/><rect class="bb" width="37.96" height="95.05" transform="translate(1023.972 283.088)"/><rect class="as" width="37.96" height="95.05" transform="translate(1008.472 283.088)"/><path class="bb" d="M878.34,464.825c8.615-.735,17.413-1.072,26.22-1V391.94H860.93V462.4l8.18,2.573C872.15,464.873,875.23,464.829,878.34,464.825Z" transform="translate(161.362 -90.34)"/><rect class="as" width="43.63" height="66.593" transform="translate(1004.472 301.6)"/><rect class="bb" width="15.6" height="18.3" transform="translate(1017.452 307.796)"/><rect class="bb" width="9.78" height="76.403" transform="translate(1021.582 292.45)"/><rect class="bi" width="9.78" height="76.403" transform="translate(1019.062 292.45)"/><rect class="av" width="3.71" height="66.593" transform="translate(1044.392 301.6)"/><path class="av" d="M904.56,462.093V391.94h-2.33v70.146Z" transform="translate(161.362 -90.34)"/><rect class="bj" width="2" height="66.843" transform="translate(955.932 301.6)"/><path class="av" d="M490.8,396.055c.23,1.67.41,3.339.52,5a45.973,45.973,0,0,1,0,4.981v.307a42.985,42.985,0,0,1-.13,6.329c.05.538.09,1.069.13,1.607a43.57,43.57,0,0,1-.32,7.852c.13,1.2.24,2.41.32,3.611a42.237,42.237,0,0,1-.44,8.732,71.75,71.75,0,0,1,1.7,11.54,41.542,41.542,0,0,1-1.13,12.162,70.769,70.769,0,0,1,2.39,14.278,43.3,43.3,0,0,1-.2,7.125,71.548,71.548,0,0,1,1.46,10.478,41.382,41.382,0,0,1-3.3,18.728c.37,2.284.63,4.568.78,6.839v.545h58V396.02Z" transform="translate(0 -125.578)"/><g class="ax" transform="translate(498.48 279.055)"><rect class="bd" width="51.85" height="0.46"/><rect class="bd" width="51.85" height="0.46" transform="translate(0 11.78)"/><rect class="bd" width="51.85" height="0.46" transform="translate(0 23.57)"/><rect class="bd" width="51.85" height="0.46" transform="translate(0 23.386)"/><rect class="bd" width="51.85" height="0.46" transform="translate(0 31.185)"/><rect class="bd" width="51.85" height="0.46" transform="translate(0 38.978)"/><rect class="bd" width="51.85" height="0.46" transform="translate(0 46.778)"/><rect class="bd" width="51.85" height="0.46" transform="translate(0 54.571)"/><rect class="bd" width="51.85" height="0.46" transform="translate(0 62.371)"/><rect class="bd" width="51.85" height="0.46" transform="translate(0 70.164)"/><rect class="bd" width="51.85" height="0.46" transform="translate(0 77.964)"/><rect class="bd" width="51.85" height="0.46" transform="translate(0 77.779)"/><rect class="bd" width="51.85" height="0.46" transform="translate(0 89.569)"/><rect class="bd" width="51.85" height="0.46" transform="translate(0 101.349)"/></g><path class="aw" d="M490.8,396.055c.23,1.67.41,3.339.52,5a45.973,45.973,0,0,1,0,4.981v.307a42.985,42.985,0,0,1-.13,6.329c.05.538.09,1.069.13,1.607a43.57,43.57,0,0,1-.32,7.852c.13,1.2.24,2.41.32,3.611a42.237,42.237,0,0,1-.44,8.732,71.75,71.75,0,0,1,1.7,11.54,41.542,41.542,0,0,1-1.13,12.162,70.769,70.769,0,0,1,2.39,14.278,43.3,43.3,0,0,1-.2,7.125,71.548,71.548,0,0,1,1.46,10.478,41.382,41.382,0,0,1-3.3,18.728c.37,2.284.63,4.568.78,6.839v.545h30.09V396.02Z" transform="translate(0 -125.578)"/><rect class="bk" width="30.96" height="122.209" transform="translate(504.88 269.412)"/><rect class="bl" width="30.96" height="122.209" transform="translate(508.92 269.412)"/><rect class="bk" width="19.41" height="114.01" transform="translate(512.98 273.512)"/><rect class="bl" width="19.41" height="114.01" transform="translate(515.52 273.512)"/><rect class="ay" width="2.97" height="114.01" transform="translate(525.27 273.512)"/><g class="ax" transform="translate(491.08 279.055)"><path class="bd" d="M491.36,405.16v.46h17.55v-.46Z" transform="translate(-491.08 -405.16)"/><path class="bd" d="M491.33,416.94v.46h17.61v-.46Z" transform="translate(-491.08 -405.16)"/><path class="bd" d="M491.32,428.73v.46h17.62v-.46Z" transform="translate(-491.08 -405.16)"/><path class="bd" d="M491.36,440.51v.46h17.55v-.46Z" transform="translate(-491.08 -417.124)"/><path class="bd" d="M491.08,452.3l.06.46h17.78v-.46Z" transform="translate(-491.08 -421.115)"/><path class="bd" d="M492.36,464.08v.46h16.53v-.46Z" transform="translate(-491.08 -425.102)"/><path class="bd" d="M492.51,475.87v.46h16.44v-.46Z" transform="translate(-491.08 -429.092)"/><path class="bd" d="M491.91,487.65l.09.46h16.92v-.46Z" transform="translate(-491.08 -433.079)"/><path class="bd" d="M493.44,499.44v.46h15.44v-.46Z" transform="translate(-491.08 -437.069)"/><path class="bd" d="M493.87,511.22v.46h15.07v-.46Z" transform="translate(-491.08 -441.056)"/><path class="bd" d="M494.53,523a1.445,1.445,0,0,0,.05.46h14.34V523Z" transform="translate(-491.08 -445.043)"/><path class="bd" d="M495.16,534.79v.46h13.77v-.46Z" transform="translate(-491.08 -457.011)"/><path class="bd" d="M494.25,546.58a1.055,1.055,0,0,1-.07.46h14.74v-.46Z" transform="translate(-491.08 -457.011)"/><path class="bd" d="M491.89,558.36v.46h17v-.46Z" transform="translate(-491.08 -457.011)"/></g><rect class="bl" width="25.46" height="36.17" transform="translate(509.96 331.423)"/><rect class="bm" width="25.46" height="36.17" transform="translate(502.79 331.423)"/><rect class="be" width="1.04" height="1.63" transform="translate(493.91 339.064)"/><rect class="bn" width="1.04" height="1.63" transform="translate(520.13 338.84)"/><rect class="bn" width="1.04" height="1.63" transform="translate(516.78 351.799)"/><rect class="bn" width="1.04" height="1.63" transform="translate(517.3 327.225)"/><rect class="bn" width="1.04" height="1.63" transform="translate(527.73 318.544)"/><rect class="be" width="1.04" height="1.63" transform="translate(494.43 323.685)"/><rect class="bf" width="1.04" height="1.63" transform="translate(504.98 354.231)"/><rect class="bf" width="1.04" height="1.63" transform="translate(519.61 360.206)"/><rect class="bf" width="1.04" height="1.63" transform="translate(542.95 331.34)"/><rect class="bf" width="1.04" height="1.63" transform="translate(545.29 320.395)"/><rect class="bf" width="1.04" height="1.63" transform="translate(544.26 339.064)"/><rect class="bf" width="1.04" height="1.63" transform="translate(543.46 354.517)"/><rect class="be" width="1.04" height="1.63" transform="translate(516.27 353.763)"/><rect class="be" width="1.04" height="1.63" transform="translate(541.56 331.34)"/><rect class="be" width="1.04" height="1.63" transform="translate(542.08 354.211)"/><rect class="be" width="1.04" height="1.63" transform="translate(531.36 359.576)"/><rect class="be" width="10.7" height="1.1" transform="translate(1033.402 354.348)"/><rect class="be" width="7.74" height="1.1" transform="translate(1036.362 354.348)"/><rect class="bf" width="3.87" height="1.1" transform="translate(1040.242 354.348)"/><rect class="be" width="10.7" height="1.1" transform="translate(1007.142 351.483)"/><rect class="be" width="7.74" height="1.1" transform="translate(1010.102 351.483)"/><rect class="bf" width="3.87" height="1.1" transform="translate(1013.982 351.483)"/><rect class="be" width="10.7" height="1.1" transform="translate(1007.142 333.013)"/><rect class="be" width="7.74" height="1.1" transform="translate(1010.102 333.013)"/><rect class="bf" width="3.87" height="1.1" transform="translate(1013.982 333.013)"/><rect class="be" width="1.04" height="1.63" transform="translate(1035.432 336.33)"/><rect class="be" width="1.04" height="1.63" transform="translate(1021.782 333.537)"/><rect class="be" width="1.04" height="1.63" transform="translate(1039.392 357.721)"/><rect class="bf" width="1.04" height="1.63" transform="translate(1013.312 344.855)"/><rect class="be" width="1.04" height="1.63" transform="translate(1011.982 344.855)"/><rect class="bf" width="1.04" height="1.63" transform="translate(1039.912 327.911)"/><rect class="bf" width="1.04" height="1.63" transform="translate(1011.462 352.799)"/><rect class="be" width="1.04" height="1.63" transform="translate(1022.812 323.947)"/><rect class="be" width="1.04" height="1.63" transform="translate(1024.732 323.947)"/><rect class="bf" width="31.08" height="8.35" transform="translate(1013.312 307.515)"/><rect class="be" width="25.33" height="8.35" transform="translate(1019.062 307.515)"/><path class="av" d="M654.91,568.42l-.34-77.95h34.18v78.84Z" transform="translate(68.03 -200.087)"/><path class="bo" d="M654.57,490.47l-6.3.34v77.61h6.64Z" transform="translate(61.082 -200.087)"/></g><g transform="matrix(1, 0.017, -0.017, 1, 674.401, 452.951)"><path class="bp" d="M102.16,255.753c0-4.113-3.26-7.821-8.45-10.438l.81-.294-2-1-.25.186-2.1-.773-.1-.464L87,242.319l-.59.263-2.32-.53-.4-.363-2.75-.387-.71.186-2-.186-.31-.251H76.4L75.16,226.89l1.07-1.059-1.84-1.871L72.7,225.7l1.23,1.256,1.59,14.1c-1.473.022-2.938.092-4.38.209v.236l-1.49.193c-.822.07-1.63.162-2.42.274l-.7-.159-5.25,1.195.15.186c-.67.189-1.32.387-2,.622l-.3-.344-2.72,1.063.38.332c-5.79,2.621-9.47,6.533-9.47,10.913,0,6.1,7.14,11.3,17.17,13.345l.92.271.27-.046c.828.15,1.679.279,2.55.387l.43.12.4-.031c.33.035.65.066,1,.093l.15.155,2.23.158,3.9.2.18-.2,3.54-.158.27.158,3.11-.325v-.329l1.39-.166v.263l2.67-.468-.24-.634C96.08,266.241,102.16,261.377,102.16,255.753ZM72.8,268.819V243.158l-2.84.286L71.19,268.7l-1.11-.1-.18-.023-1.27-.251-2-24.107,3.36-.773,4.57-.464,5.52.329L78,268.692l-.52.039-1.1.108.73-25.681-2.54-.178-.48,25.9Zm9.1-.591v-.1H80.18L82.75,244.1l1.87.487.8-.2-3.36,23.79ZM63,245.036l4.06,22.979-.29-.058-1.12-.321-4.38-21.8-.51-.6q.88-.356,1.85-.677Zm-4.15,1.589,4.84,20.45-.09.2c-7.57-2.242-12.7-6.572-12.7-11.528,0-3.727,2.9-7.09,7.54-9.487ZM83.9,267.806l3.8-22.128.91.36-3.47,21.452c-.38.108-.79.216-1.21.317Zm6.2-21.181,1-.348c4.63,2.4,7.52,5.752,7.52,9.475,0,4.74-4.68,8.891-11.69,11.211Z" transform="translate(0 -20.787)"/><path class="bq" d="M71.72,264.78c-14.71,0-26.64,10.3-26.64,23.006S57,310.792,71.72,310.792s26.65-10.3,26.65-23.006S86.44,264.78,71.72,264.78Zm0,44.23c-13.57,0-24.57-9.506-24.57-21.224s11-21.218,24.57-21.218,24.58,9.5,24.58,21.218S85.3,309.01,71.72,309.01Z" transform="translate(0 -61.4)"/><path class="br" d="M73.21,264.78c-14.72,0-26.65,10.3-26.65,23.006s11.93,23.006,26.65,23.006,26.64-10.3,26.64-23.006S87.92,264.78,73.21,264.78Zm0,44.23c-13.58,0-24.58-9.506-24.58-21.224s11-21.218,24.58-21.218,24.57,9.5,24.57,21.218S86.78,309.01,73.21,309.01Z" transform="translate(0 -61.4)"/><path class="bs" d="M54.17,272.62l2.72-2.74,2.1,6.17-2.41,2.06Z" transform="translate(0 -55.058)"/><path class="bt" d="M59,268.68,60.72,274l6.93-4.11,4.58-1.2,7.8,1.2v1.45l2.29,1.55.8-.52L85.53,274l-.55,1.2,2.84,2.92,4.4-4.12-2-2.57-.25.47-2.11-2-.09-1.2L84.7,267l-.59.69-2.32-1.38-.4-.94-2.75-1-.72.48-2-.48-.31-.64a25.918,25.918,0,0,0-6.77.51v.61s-3,1-3.87,1.24l-.74-.43Z" transform="translate(0 -51.023)"/><path class="bu" d="M56.58,277.156l5.21,30.6,1.88.6L58.99,276.05Z" transform="translate(0 -66.866)"/><path class="bv" d="M60.72,273.083l4.3,36h1.4L64.3,271.87Z" transform="translate(0 -64.711)"/><path class="bw" d="M67.65,269.572l1.27,39.509H70.5V269.13Z" transform="translate(0 -63.123)"/><path class="bx" d="M72.23,268.68l-.51,42.237L74,311.2l.77-42.25Z" transform="translate(0 -63.756)"/><path class="bv" d="M77.75,269.52,75.6,309.081h2.15l2.77-39.35Z" transform="translate(0 -63.348)"/><path class="bv" d="M83.12,272.36l-3.53,36.721h1.77l4.17-35.794Z" transform="translate(0 -64.996)"/><path class="bv" d="M87.82,277.168l-3.48,31.013-1.78.9,3.81-33.031Z" transform="translate(-5.116 -67.145)"/><path class="by" d="M61.42,331l-.7,4.07,2.45,1.86,1.02-.45,2.23,1.61,1.23-.25.3.8,2.22.41,3.9.52.19-.52,3.54-.41.26.41,3.11-.83v-.86l1.39-.43v.69l2.63-1.12-.65-4.56-1.98.87-1.57.78-1.4.73v-.61l-2.07.05-.15,1.07-2.23.46-1.93.49-3.14-.31-2.42-.57-3.15-1.61Z" transform="translate(0 -109.607)"/><path class="bz" d="M73.21,264.78V229.57l-1.23-3.25,1.69-4.5,1.84,4.84-1.07,2.74-.35,34.22Z" transform="translate(0 -15.139)"/><ellipse class="ca" cx="1.05" cy="1.46" rx="1.05" ry="1.46" transform="translate(72.7 211.222)"/><path class="cb" d="M180,311.416c0-4.113-3.25-7.817-8.45-10.438l.81-.294-2-.993-.24.182-2.11-.773-.09-.464-3.09-.665-.59.267-2.24-.518-.4-.387-2.76-.387-.71.186-2-.186-.31-.247s-.58-.019-1.51,0h0L153,282.53l1.06-1.063-1.83-1.867-1.69,1.736,1.22,1.26,1.59,14.1c-1.469.018-2.932.087-4.37.2v.236l-1.49.193q-1.235.109-2.43.274l-.69-.155-5.26,1.195.15.182c-.67.193-1.32.387-2,.622l-.3-.34-2.73,1.059.39.336c-5.79,2.617-9.47,6.533-9.47,10.909,0,6.1,7.13,11.3,17.17,13.345l.92.271.26-.046c.826.151,1.678.28,2.55.387l.43.124.41-.031,1,.089.15.155,2.22.159,3.9.2.19-.2,3.54-.159.26.159,3.11-.321v-.332l1.39-.166v.267l2.63-.433-.23-.634C174,321.892,180,317.041,180,311.416Zm-29.35,13.07V298.821l-2.85.29,1.24,25.252-1.11-.1-.18-.019-1.27-.255-2-24.1,3.35-.773,4.58-.464,5.51.329-2.08,25.379-.52.043-1.1.108.73-25.685-2.54-.174-.49,25.9Zm9.09-.6v-.1h-1.71l2.57-24.018,1.86.487.81-.2L160,323.86ZM140.87,300.7,145,323.678l-.28-.054-1.12-.321L139.21,301.5l-.54-.611q.882-.358,1.86-.677Zm-4.14,1.593,4.84,20.446-.09.209c-7.58-2.246-12.7-6.572-12.7-11.532,0-3.727,2.89-7.09,7.54-9.487Zm25,21.177,3.8-22.128.91.36-3.46,21.452c-.33.116-.75.22-1.17.321ZM168,302.292l1-.348c4.64,2.393,7.52,5.752,7.52,9.471,0,4.74-4.68,8.891-11.69,11.211Z" transform="translate(-14.37 -76.427)"/><path class="bq" d="M149.61,320.49c-14.72,0-26.61,10.285-26.61,23.006S134.93,366.5,149.65,366.5,176.3,356.2,176.3,343.5,164.33,320.49,149.61,320.49Zm0,44.23C136,364.714,125,355.214,125,343.5s11-21.224,24.58-21.224,24.58,9.5,24.58,21.224-10.98,21.218-24.55,21.218Z" transform="translate(-13.848 -117.081)"/><path class="cc" d="M151.09,320.49c-14.72,0-26.65,10.3-26.65,23.006S136.37,366.5,151.09,366.5s26.65-10.3,26.65-23.006S165.81,320.49,151.09,320.49Zm0,44.23c-13.57,0-24.58-9.5-24.58-21.218s11-21.224,24.58-21.224,24.58,9.5,24.58,21.224-11.01,21.212-24.58,21.212Z" transform="translate(-14.104 -117.081)"/><path class="cd" d="M132.05,328.32l2.72-2.74,2.11,6.17-2.42,2.06Z" transform="translate(-11.847 -104.637)"/><path class="ce" d="M136.88,324.38l1.73,5.32,6.93-4.12,4.58-1.2,7.79,1.2V327l2.29,1.54.81-.51,2.41,1.63-.56,1.2,2.85,2.91,4.39-4.11-2-2.58-.25.48-2.1-2-.09-1.2-3.1-1.71-.58.68-2.3-1.33-.41-.94-2.75-1-.71.48-2-.48-.31-.65a26.271,26.271,0,0,0-6.78.52v.61s-3,1-3.86,1.23l-.74-.43Z" transform="translate(-14.487 -101.58)"/><path class="cf" d="M134.46,332.856l5.22,30.609,1.87.6-4.67-32.311Z" transform="translate(-12.31 -120.908)"/><path class="cg" d="M138.61,328.788l4.3,36h1.39l-2.11-37.221Z" transform="translate(-12.794 -119.464)"/><path class="bv" d="M145.54,325.272l1.27,39.52h1.57V324.83Z" transform="translate(-13.555 -118.222)"/><path class="bv" d="M150.12,324.38l-.51,42.247,2.28.284.76-42.26Z" transform="translate(-14.118 -119.136)"/><path class="bv" d="M155.63,325.23l-2.14,39.561h2.14l2.78-39.356Z" transform="translate(-14.775 -118.405)"/><path class="bv" d="M161,328.07l-3.52,36.721h1.76L163.42,329Z" transform="translate(-15.394 -119.688)"/><path class="bv" d="M165.71,332.868l-3.49,31.023-1.77.9,3.8-33.041Z" transform="translate(-15.749 -121.302)"/><path class="ch" d="M139.3,386.71l-.69,4.06,2.44,1.87,1.03-.46,2.22,1.61,1.24-.25.29.81,2.23.41,3.9.51.18-.51,3.55-.41.26.41,3.11-.84v-.86l1.39-.42v.68l2.63-1.11-.66-4.56-1.97.87-1.58.77-1.39.73v-.6l-2.07.04-.16,1.08-2.23.45-1.93.49-3.14-.3-2.41-.57-3.16-1.62Z" transform="translate(-14.073 -159.244)"/><path class="ci" d="M151.09,320.49V285.28l-1.22-3.26,1.69-4.49,1.84,4.83-1.07,2.75-.36,34.21Z" transform="translate(-14.186 -72.998)"/><ellipse class="ca" cx="1.05" cy="1.46" rx="1.05" ry="1.46" transform="translate(136.395 217.445)"/><path class="cj" d="M257.49,373.759c0-4.111-3.25-7.812-8.45-10.431l.81-.294-2-.993-.25.182-2.1-.773-.09-.464-3.1-.664-.58.267-2.32-.529-.41-.367-2.75-.386-.71.185-2-.185-.31-.247h-1.52l-1.23-14.151,1.06-1.059-1.84-1.87L228,343.7l1.22,1.259,1.59,14.093c-1.473.02-2.939.09-4.38.209v.232l-1.5.193c-.821.072-1.629.164-2.42.274l-.69-.155L216.56,361l.15.182q-1.016.293-1.95.626l-.31-.344-2.72,1.059.38.336c-5.79,2.615-9.47,6.529-9.47,10.9,0,6.1,7.14,11.292,17.18,13.336l.91.27.27-.046c.828.15,1.679.279,2.55.386l.43.12.4-.031c.33.031.66.066,1,.089l.14.158,2.23.158,3.9.2.18-.2,3.55-.158.26.158,3.11-.324v-.332l1.39-.166v.267l2.63-.429-.24-.637C251.41,384.24,257.49,379.38,257.49,373.759Zm-29.36,13.062V361.173l-2.84.29,1.23,25.235-1.11-.1-.18-.023-1.27-.251-2-24.091,3.35-.773,4.58-.464,5.51.328-2.09,25.362-.52.042-1.09.108.72-25.668L229.89,361l-.49,25.884Zm9.1-.595v-.1h-1.72l2.58-24,1.86.487.81-.2-3.37,23.775Zm-18.87-23.18,4.06,22.983-.29-.058-1.13-.328-4.38-21.793-.54-.61c.6-.24,1.22-.467,1.85-.676Zm-4.15,1.592,4.84,20.437-.09.2c-7.57-2.245-12.7-6.568-12.7-11.524,0-3.724,2.9-7.085,7.54-9.477Zm25,21.163,3.8-22.113.91.363-3.42,21.437c-.4.112-.82.22-1.24.317Zm6.2-21.163,1-.348c4.63,2.391,7.52,5.749,7.52,9.465,0,4.74-4.68,8.886-11.69,11.2Z" transform="translate(-28.277 -138.782)"/><path class="bq" d="M227.06,382.83c-14.72,0-26.65,10.3-26.65,23.006s11.93,23.006,26.65,23.006,26.64-10.3,26.64-23.006S241.77,382.83,227.06,382.83Zm0,44.23c-13.58,0-24.58-9.5-24.58-21.218s11-21.224,24.58-21.224,24.57,9.506,24.57,21.224-11,21.212-24.57,21.212Z" transform="translate(-28.277 -179.438)"/><path class="br" d="M228.54,382.83c-14.72,0-26.65,10.3-26.65,23.006s11.93,23.006,26.65,23.006,26.64-10.3,26.64-23.006S243.25,382.83,228.54,382.83Zm0,44.23C215,427.054,204,417.554,204,405.836s11-21.224,24.58-21.224,24.58,9.506,24.58,21.224-11.05,21.218-24.62,21.218Z" transform="translate(-28.277 -179.438)"/><path class="bs" d="M209.5,390.67l2.72-2.75,2.1,6.18-2.41,2.05Z" transform="translate(-22.397 -160.127)"/><path class="ck" d="M214.32,386.72l1.74,5.32,6.93-4.12,4.57-1.2,7.8,1.2v1.46l2.29,1.54.8-.51,2.42,1.63-.56,1.2,2.84,2.91,4.4-4.11-2-2.57-.25.47-2.1-2-.1-1.2L240,385l-.59.68-2.32-1.37-.4-.94-2.75-1-.71.48-2-.48-.3-.64a26,26,0,0,0-6.78.51v.61s-3,1-3.86,1.23l-.75-.42Z" transform="translate(-28.277 -158.206)"/><path class="cf" d="M211.91,395.2l5.22,30.6,1.87.6-4.68-32.3Z" transform="translate(-22.976 -183.019)"/><path class="cg" d="M216.06,391.128l4.3,36h1.39l-2.12-37.221Z" transform="translate(-28.277 -181.817)"/><path class="bv" d="M222.99,387.419l1.26,21.677h1.58V387.18Z" transform="translate(-28.277 -171.542)"/><path class="bv" d="M227.56,386.72l-.5,42.247,2.28.284L230.1,387Z" transform="translate(-28.277 -181.481)"/><path class="cl" d="M233.08,387.57l-2.14,39.561h2.14l2.77-39.356Z" transform="translate(-28.277 -180.866)"/><path class="bv" d="M238.45,390.41l-3.52,36.721h1.76l4.18-35.794Z" transform="translate(-28.277 -182.01)"/><path class="bv" d="M243.16,395.212l-3.49,31.019-1.77.9,3.8-33.031Z" transform="translate(-28.277 -183.334)"/><path class="cm" d="M216.75,449.05l-.69,4.06,2.44,1.87,1.03-.46,2.22,1.62,1.24-.25.29.8,2.23.41,3.89.52.19-.52,3.54-.41.27.41,3.1-.84v-.85l1.4-.43v.68l2.63-1.11-.66-4.56-1.97.87-1.58.77-1.39.73v-.6l-2.08.05-.15,1.07-2.23.45-1.93.49-3.14-.3-2.41-.57-3.16-1.62Z" transform="translate(-28.277 -215.841)"/><path class="bs" d="M228.54,382.83V347.62l-1.22-3.26,1.68-4.49,1.84,4.84-1.06,2.74-.36,34.22Z" transform="translate(-28.277 -134.765)"/><ellipse class="ca" cx="1.05" cy="1.46" rx="1.05" ry="1.46" transform="translate(199.753 225.244)"/></g></g></svg>