<svg xmlns="http://www.w3.org/2000/svg" width="1300.629" height="773" viewBox="0 0 1300.629 773"><defs><style>.a{fill:rgba(253,183,255,0.89);}.b{opacity:0.7;}.c{fill:#d886d5;}.d{fill:rgba(211,15,225,0.6);}.e{fill:rgba(255,162,252,0.5);}.f{fill:rgba(251,38,244,0.5);}.g{fill:#d30fe1;}</style></defs><g transform="translate(-36)"><g transform="translate(36)"><g transform="translate(0 152.673)"><ellipse class="a" cx="42.5" cy="22.5" rx="42.5" ry="22.5" transform="translate(7 12)"/><path class="a" d="M99,50C99,22.386,76.838,0,49.5,0S0,22.386,0,50" transform="translate(0)"/></g><rect class="a" width="5" height="160" transform="translate(47)"/></g><g class="b" transform="translate(126)"><g transform="translate(0 113)"><ellipse class="c" cx="31.768" cy="18.158" rx="31.768" ry="18.158" transform="translate(5.232 9.684)"/><path class="c" d="M74,40.351C74,18.066,57.435,0,37,0S0,18.066,0,40.351" transform="translate(0)"/></g><rect class="c" width="5" height="136" transform="translate(35)"/></g><g class="b" transform="translate(1141 467.875)"><path class="d" d="M35.218.046C52.962.877,73.705,12.016,73.572,29.155c-.1,12.453-1.982,24.705-1.328,37.21a90.25,90.25,0,0,0,6.8,29.183c3.67,9.053,12.537,17.292,13.976,26.732.917,6.015-.967,14.181-3.875,19.712-3.536,6.724-2.032,6.306,2.667,12.66,9.207,12.452,17.328,25.1,22.431,39.423,7.351,20.632,10.966,44.287,4.8,65.55-.784,2.7-2.5,12.492-6.849,12.783-4.861.326-1.962-5.1-1.491-6.891,3-11.451,5.649-21.459,5.092-33.424-2.15-46.167-35.471-79.549-54.9-120.368-1.084-2.113-3.307-7.11-4.874-10.416-2.473-5.22-4.432-14.9-8.139-18.941-6.98-7.619-1.457,6.907-.252,9.694,1.524,3.526,3.215,7.279,4.836,10.395,7.394,14.432,15.687,30.205,23.327,45.084C34.584,151.91,11.326,106.488,3.87,77.354-2.274,53.351-6.481-1.824,35.218.046" transform="matrix(0.995, -0.105, 0.105, 0.995, -66.539, 1.274)"/><path class="e" d="M82.24.1C63.8,1.561,51.968,13.726,46.458,30.742c-2.97,9.17-3.31,18.59-4.96,28.014-2.482,14.178-7.824,24.922-18.262,35.023a35.248,35.248,0,0,0-7.309,9.776,41.642,41.642,0,0,0-8.439,12.06c-2.747,6.062-3.524,13.335-.353,19.379.853,1.625,2.98,4.886,5.184,6.368C4.066,158.94-.473,178.192.039,197.419c.309,11.607.876,23.218,1.537,34.81.178,3.113,1.192,8.252,2.714,3.032,1.393-4.775-.354-12.27-.516-17.258-.787-24.3-1.459-46.394,8.544-69.1q1.573-3.569,3.319-7.081a2.353,2.353,0,0,0,.195-.133c.044.034.084.071.128.1.074-.132.175-.289.293-.464a6.263,6.263,0,0,0,.9-1.259c.887-1.23,1.891-2.674,1.9-3.465,0-.006,0-.016,0-.022a327.135,327.135,0,0,1,20.53-29.024c-.054.068,7.858-10.705,6.635-4.747-.59,2.871-6.41,8.339-8.76,11.38a283.523,283.523,0,0,0-16.38,23.629c-.683.392-1.647,2.319-2.345,3.754-.385.727-.745,1.46-1.1,2.1,17.979,5.94,31.965-6.025,41.5-19.943.012-.016.022-.033.033-.05a60.476,60.476,0,0,1,9.589-10.7c6.2-5.073,12.833-5.967,20.138-8.464,19.924-6.807,28.395-32.628,31.085-51.788C123.01,31.111,108.162-2.033,82.24.1" transform="translate(75.264 44.2)"/><path class="f" d="M79.237,2.443C57.758,24.8,44.9,58.963,34.161,91.33c-12,36.151-21.339,73.389-25.692,112.487C5.61,229.506,2.338,255.281.747,281.175c-.566,9.2-.848,18.461-.714,27.688.011.758.315,21.36,3.148,17.1,1.611-2.422-.285-21.366-.253-24.456.186-17.4,1.634-34.7,3.54-51.914,3.138-28.337,5.5-56.67,10.664-84.523a121.766,121.766,0,0,1,2.69-12.529c1.268-4.238.042-2.513,2.842-3.763,2.72-1.215,5.834-.389,8.7-2.017,11.349-6.456,18.987-27.047,24.653-40.436,6.48-15.311,11.206-32.044,15.325-48.659,3.025-12.208,5.559-24.429,7.591-36.987.64-3.958,1.1-8.136,2.106-11.957.272-1.031,1.272-2.757,1.343-3.7.149-2-.632-3.336-.529-5.02q-1.325,1.184-2.613,2.443" transform="translate(31.208 -86.407) rotate(-8)"/><path class="g" d="M0,0A58.971,58.971,0,0,0,58.971,58.971,58.971,58.971,0,0,0,117.941,0" transform="translate(17.909 246.154)"/><path class="d" d="M61.951,74a9.056,9.056,0,0,1-6.2-2.186,12.491,12.491,0,0,1-3.339-5.388c-1.52-4.4-1.664-9.8-1.759-13.377a54.347,54.347,0,0,0-1.906-14.426,26.014,26.014,0,0,0-2.886-6.317,25.488,25.488,0,0,0-4.9-5.642c-1-.867-2.066-1.693-3.1-2.492-.92-.713-1.87-1.449-2.77-2.212l-.43-.364c-2.893-2.44-5.884-4.963-6.25-8.954-.2-2.218.152-3.848,1.058-4.845A4.568,4.568,0,0,1,33.06,6.52a14.679,14.679,0,0,1,3.043.374c.16.035.59.2,1.185.425,1.7.646,4.537,1.727,6.053,1.727.466,0,.772-.105.91-.313a.911.911,0,0,0-.04-.85c-.35-.843-1.55-1.587-3.568-2.212-4.06-.444-7.894-.842-10.177-.842a7.529,7.529,0,0,0-1.476.105,22.359,22.359,0,0,0-10.894,6.1,38.842,38.842,0,0,0-7.517,10.885c-4.587,9.468-6.339,20-6.975,25.441-.172,1.473-.328,3.069-.477,4.879H0A106.248,106.248,0,0,1,1.159,40.477c.887-5.266,3.139-15.42,8.26-24.255A35.966,35.966,0,0,1,17.49,6.363a22.4,22.4,0,0,1,11.2-5.044A16.516,16.516,0,0,1,30.5,1.252c1.175,0,2.591.045,3.986.127A10.368,10.368,0,0,1,38.9.069C39.521.023,40.155,0,40.788,0A31.97,31.97,0,0,1,51.447,1.96a45.842,45.842,0,0,1,10.181,5.2,53.179,53.179,0,0,1,8.8,7.412,44.785,44.785,0,0,1,6.512,8.6A33.3,33.3,0,0,1,81,39.725a53.78,53.78,0,0,1-2.843,17.017,39.023,39.023,0,0,1-5.7,11.244C69.4,71.933,65.913,73.955,62.1,74Z" transform="translate(78 194.125)"/></g></g></svg>