<svg xmlns="http://www.w3.org/2000/svg" xmlns:xlink="http://www.w3.org/1999/xlink" width="1365" height="726.5" viewBox="0 0 1365 726.5"><defs><style>.a{fill:url(#a);}.b{fill:url(#b);}.c{opacity:0.505;}.d{fill:#f2f2f2;}.e{opacity:0.7;}.f{fill:#69a1ac;}.g{fill:#89c5cc;}.h{opacity:0.5;}.i,.j{fill:#c1dee2;}.j{opacity:0.2;}</style><linearGradient id="a" x1="-1.235" y1="0.386" x2="0.576" y2="0.907" gradientUnits="objectBoundingBox"><stop offset="0" stop-color="#fc88d9" stop-opacity="0.651"/><stop offset="0.402" stop-color="#ec00bc" stop-opacity="0.651"/><stop offset="0.772" stop-color="#dc00be" stop-opacity="0.651"/><stop offset="1" stop-color="#6d056a" stop-opacity="0.651"/></linearGradient><linearGradient id="b" x1="0.014" y1="-0.253" x2="0.853" y2="1.106" gradientUnits="objectBoundingBox"><stop offset="0" stop-color="#fc88d9" stop-opacity="0.651"/><stop offset="0.178" stop-color="#ec00bc" stop-opacity="0.651"/><stop offset="0.777" stop-color="#dc00be" stop-opacity="0.651"/><stop offset="1" stop-color="#6d056a" stop-opacity="0.651"/></linearGradient></defs><g transform="translate(-0.5 -55)"><path class="a" d="M-1427.781,785.5l-30.631-2.835S-1151.7,650.218-1118.7,605.423s29.2-102.256,219.787-163.845,165.62-170.262,165.62-170.262S-737.058,232.1-698.5,182.6V785.5Z" transform="translate(2064 -18)"/><path class="b" d="M-997.727,781.5V505.3c39.46,24.077,36.812,46.867,36.812,46.867s-21.791,64.937,169.171,79.348,188.773,47.718,222.787,69.75c24.914,16.138,196.963,43.136,287.23,56.426v16.9l-42.149,6.908Z" transform="translate(998.226)"/><g class="c" transform="translate(340 522)"><path class="d" d="M630.16,153.8c9.19,68.74-213.675,113.577-405.5,82.286S-55.166,82.6,36.37,17.489,620.97,85.055,630.16,153.8Z" transform="translate(0 0)"/></g><path class="d" d="M0,260a46.774,46.774,0,0,1-1,6A17.922,17.922,0,0,0,0,260Zm-10.832-47.012c-5.818-12.326-14.116-22.979-23.677-32.458,1.911-6.943,20.49-17.785,8.743-23.526-6.238-3.035-12.155,2.853-13.171,8.813-.7,4.1.956,9.109,2.633,12.961q-4.5-4.328-9.309-8.347c-4.416-3.7-8.927-7.286-13.477-10.821,6.819-7.114,12.6-26.731,2.816-29.377-14.443-3.894-6.229,22.02-4.981,26.893a.772.772,0,0,0,.649-.285c-.056.455-.123.942-.211,1.435-8.7-6.726-17.527-13.3-26.086-20.21.708-.583,1.77-2.724,2.632-3.88a42.082,42.082,0,0,0,5.1-8.312c2.052-4.734,3.879-12.21-2.344-14.605-6.768-2.611-9.474,5.878-9.26,10.847.148,3.435,1.255,6.649,1.918,9.99.208,1.042-.131,5.8,1.193,3.695a10.144,10.144,0,0,0,.044,1.682q-2.3-1.87-4.581-3.779a1.777,1.777,0,0,0,.1-.578,1.718,1.718,0,0,0-2.542-1.488q-3.006-2.572-5.947-5.23c-4.145-3.764-8.351-7.638-12.536-11.6.822-.784.427-1.79,1.19-2.616s2.322-1.341,3.228-2.119a22.871,22.871,0,0,0,5.4-7.423c2.125-4.459,4.688-13.714-2.292-15.421-7.2-1.762-10.332,7.182-10.5,12.68a139.867,139.867,0,0,0,2.051,14.018c-7.744-7.367-15.382-15.03-22.35-22.869,1.982-.122,7.39-4.478,8.468-5.647,2.631-2.849,6.725-9.053,1.7-11.959-4.468-2.578-9.583,1.763-11.225,5.806a55.526,55.526,0,0,0-.965,9.49c-2.888-3.328-5.653-6.682-8.238-10.057q-2.587-3.366-4.874-6.922a3.235,3.235,0,0,0,.9-.988c7.144-1.6,15.745-13.329,7.073-16.8-4.128-1.65-8.3,2.42-10.109,5.668a41.933,41.933,0,0,0-1.256,6.512A135.132,135.132,0,0,1-165.713,41.24a1.576,1.576,0,0,0,1.152-1.525c3.395-2.178,6.071-3.984,8.313-7.949,1.393-2.462,3.841-8.051-.688-9.14-5.894-1.417-9.075,7.638-9.32,12.029-.029.509.05,1.984.14,3.334a1.95,1.95,0,0,0-.6.042c-1.617-5.363-2.969-10.811-4.1-16.278,3.115-1.185,2.79-17.85.557-20.108-4.992-5.056-7.916,2.779-7.452,6.815.547,4.759,2.939,8.989,5.717,12.709.3.393.218.378.259-.194a1.14,1.14,0,0,0,.307.624,72.434,72.434,0,0,0,.115,7.324,169.525,169.525,0,0,0,3.175,18.948q.513,2.272,1.137,4.5a36.977,36.977,0,0,0-7.568-4.316c-3.568-1.38-9.029-2.785-12.353.043a5.834,5.834,0,0,0-.208,8.733c2.958,2.978,8.055,2.6,11.848,2.092,1.715-.228,10.876-1.447,8.617-2.838a7.435,7.435,0,0,1,.915.379q.36,1.089.75,2.17c-.052.034-.1.071-.153.105.061-.031.1-.063.157-.094a84.537,84.537,0,0,0,10.573,20.282,19.879,19.879,0,0,0-4.828-1.022c-4.831-.355-14.731,3.9-9.028,10.012,5.468,5.856,13.137-1.136,18.931-2.348A273.561,273.561,0,0,0-129.7,107.418a1.558,1.558,0,0,0-.913.845c-2.7-1.2-5.533-2.958-7.991-3.347-3.547-.56-10.764-.634-13.25,2.645-3.059,4.032.6,6.985,4.492,7.523,5.643.781,12.812-2.332,18.091-4.458a1.777,1.777,0,0,0,1.658-.651c.117-.046.233-.09.347-.133,7.012,6.943,14.265,13.631,21.469,20.167h-.222a18.6,18.6,0,0,0-5.912-2.331c-4.862-.919-10.509-.628-14.224,3.049-3.7,3.661-4.757,9.782-.538,13.455,8.443,7.352,19.353-10.992,23.367-11.945,7.317,6.569,15.008,12.661,22.809,18.617a13.3,13.3,0,0,0-2.645-.4c-7.359-.317-24.077,9.562-14.627,17.923,8.235,7.286,16.522-8,22.562-13.515,7.347,5.547,14.73,11.051,21.927,16.795a20.034,20.034,0,0,0-11.392.67c-4.094,1.477-10.643,4.97-7.718,10.449,2.974,5.573,10.9,2.551,15,.517,2.238-1.109,6.655-4.688,10.613-6.305,11.515,9.785,21.619,20.7,29.519,33.763A120.977,120.977,0,0,1-5.583,236.788C-3.742,242.59-.207,252.312-.41,260,1.667,244.524-4.5,226.391-10.832,212.988ZM-172,29.766c-.613,0-2.912-6.215-3.636-7.135a20.724,20.724,0,0,0-8.2-5.945c-5.036-2.177-11.433.989-8.366,7.281,2.449,5.023,9.082,6.034,14.827,6.034C-175.412,30-173.553,29.882-172,29.766Z" transform="translate(502.657 65.101) rotate(3)"/><g class="e" transform="translate(1080 367)"><path class="f" d="M-50.4.057C-28.438,1.086-2.76,14.874-2.925,36.091c-.12,15.416-2.453,30.582-1.644,46.062A111.721,111.721,0,0,0,3.846,118.28c4.544,11.206,15.519,21.406,17.3,33.092,1.135,7.446-1.2,17.555-4.8,24.4-4.378,8.323-2.515,7.806,3.3,15.672,11.4,15.415,21.45,31.07,27.767,48.8,9.1,25.541,13.575,54.822,5.943,81.145-.97,3.343-3.09,15.464-8.478,15.824-6.018.4-2.429-6.308-1.846-8.53,3.716-14.176,6.993-26.564,6.3-41.376-2.662-57.15-43.91-98.474-67.96-149-1.341-2.615-4.094-8.8-6.033-12.894-3.061-6.461-5.487-18.44-10.075-23.447-8.641-9.432-1.8,8.55-.311,12,1.886,4.364,3.98,9.011,5.986,12.868C-19.9,144.7-9.633,164.225-.176,182.642c-51.012,5.408-79.8-50.82-89.034-86.885C-96.815,66.044-102.022-2.258-50.4.057" transform="matrix(0.995, -0.105, 0.105, 0.995, 26.946, 15.036)"/><path class="g" d="M101.805.121C78.983,1.932,64.331,16.992,57.511,38.056c-3.676,11.351-4.1,23.013-6.14,34.678-3.073,17.551-9.685,30.851-22.607,43.355a43.634,43.634,0,0,0-9.048,12.1A51.548,51.548,0,0,0,9.269,143.12c-3.4,7.5-4.362,16.508-.436,23.989,1.055,2.011,3.689,6.049,6.418,7.883C5.033,196.752-.585,220.584.048,244.386c.383,14.368,1.084,28.741,1.9,43.091.22,3.853,1.475,10.216,3.36,3.754,1.725-5.911-.438-15.189-.638-21.364-.974-30.081-1.806-57.431,10.576-85.536q1.948-4.418,4.109-8.766a2.913,2.913,0,0,0,.241-.165c.055.042.1.088.159.129.092-.163.217-.358.363-.575a7.753,7.753,0,0,0,1.112-1.559c1.1-1.522,2.341-3.31,2.348-4.289,0-.008,0-.019,0-.027A404.962,404.962,0,0,1,48.99,133.149c-.067.084,9.728-13.252,8.213-5.877-.73,3.554-7.935,10.323-10.845,14.087a350.971,350.971,0,0,0-20.277,29.25c-.845.486-2.039,2.871-2.9,4.647-.477.9-.922,1.807-1.359,2.6,22.257,7.354,39.57-7.459,51.376-24.687.014-.02.027-.041.04-.061,3.593-4.761,7.273-9.488,11.871-13.251,7.671-6.279,15.885-7.387,24.929-10.478,24.664-8.427,35.15-40.391,38.48-64.108C152.274,38.513,133.894-2.517,101.805.121" transform="translate(109 78)"/><path class="g" d="M98.087,3.024C71.5,30.7,55.586,72.991,42.288,113.058c-14.852,44.751-26.415,90.848-31.8,139.249-3.54,31.8-7.59,63.706-9.559,95.76-.7,11.384-1.05,22.853-.884,34.274.014.939.39,26.442,3.9,21.168,1.995-3-.353-26.449-.313-30.274.23-21.546,2.023-42.959,4.383-64.265,3.885-35.078,6.807-70.152,13.2-104.631a150.734,150.734,0,0,1,3.33-15.509c1.57-5.247.053-3.111,3.518-4.659,3.367-1.5,7.222-.482,10.764-2.5,14.049-7.992,23.5-33.482,30.518-50.056,8.021-18.953,13.872-39.667,18.971-60.235,3.745-15.112,6.882-30.241,9.4-45.786.793-4.9,1.357-10.072,2.607-14.8.337-1.276,1.575-3.413,1.662-4.582.185-2.474-.782-4.13-.655-6.214q-1.641,1.466-3.234,3.024" transform="translate(54.463 -83.679) rotate(-8)"/><path class="g" d="M0,0A73,73,0,0,0,146,0" transform="translate(38 328)"/><path class="f" d="M76.483,91a11.207,11.207,0,0,1-7.65-2.688,15.352,15.352,0,0,1-4.122-6.626c-1.877-5.408-2.054-12.053-2.172-16.45C62.392,59.721,62,53.3,60.186,47.5a31.931,31.931,0,0,0-3.563-7.769,31.379,31.379,0,0,0-6.046-6.938c-1.234-1.067-2.55-2.082-3.823-3.064-1.136-.876-2.309-1.782-3.42-2.72l-.531-.447c-3.571-3-7.264-6.1-7.716-11.011-.252-2.727.187-4.732,1.306-5.959a5.652,5.652,0,0,1,4.422-1.571,18.19,18.19,0,0,1,3.757.46c.2.043.728.244,1.463.522,2.1.794,5.6,2.124,7.473,2.124.575,0,.953-.13,1.123-.385a1.117,1.117,0,0,0-.049-1.046c-.432-1.036-1.914-1.952-4.405-2.721-5.013-.545-9.746-1.035-12.565-1.035a9.33,9.33,0,0,0-1.823.13,27.633,27.633,0,0,0-13.45,7.5,47.763,47.763,0,0,0-9.281,13.386C7.395,38.59,5.232,51.546,4.446,58.233c-.213,1.811-.405,3.774-.589,6H0A130.161,130.161,0,0,1,1.43,49.776c1.095-6.476,3.876-18.963,10.2-29.828A44.266,44.266,0,0,1,21.592,7.824a27.7,27.7,0,0,1,13.828-6.2,20.47,20.47,0,0,1,2.23-.082c1.451,0,3.2.056,4.921.156A12.837,12.837,0,0,1,48.028.085C48.791.028,49.574,0,50.355,0A39.608,39.608,0,0,1,63.514,2.41,56.68,56.68,0,0,1,76.083,8.8a65.591,65.591,0,0,1,10.863,9.115A55.094,55.094,0,0,1,94.986,28.5c3.283,5.715,4.97,12.563,5.013,20.354a65.9,65.9,0,0,1-3.51,20.927,47.915,47.915,0,0,1-7.036,13.827c-3.776,4.853-8.079,7.34-12.788,7.394Z" transform="translate(113 264)"/></g><g class="h" transform="translate(47 236)"><path class="f" d="M65.223,23.445c4.2-5.992,12-21.21,17.915-23.351,3.81-1.379,2.7,12.886,2.746,15.607a228.013,228.013,0,0,1-2.107,31.416C81.5,65.937,74.045,82.7,63.822,98.715c-5.26,8.242-11.431,16.584-19.977,21.727-3.934,2.368-8.667,2.765-12.552,4.805-4.524,2.375-2.06.455-4.1,5.17-2.832,6.546-3.737,14.99-5.047,21.975C16.132,184.455,1.568,353.945,4.093,386.558c.224,2.891-3.807,3.582-4.008.053C-.984,367.9,8.27,238.322,12.94,195.947s9.394-79.812,14.132-94.473C32.819,83.687,43.2,62.3,51.84,45.711A197.235,197.235,0,0,1,65.223,23.445Z" transform="translate(113 88)"/><path class="i" d="M100.414,2.278C111.349-5.75,123.186,9.4,113.29,17.43c-5.47,4.438-11.189,2.859-14.409-.839-2.09,2.548-4.046,5.211-5.926,7.461-5.727,6.856-11.139,13.876-16.312,21.059C65.9,60.035,56.689,75.8,47.06,91.278c-9.5,15.276-18.929,30.63-27.541,46.292C12.223,150.841,2.5,166.452,0,181c3.79-30.854,18.172-60.51,35.3-87.709C52.285,66.314,71.779,36.853,98.081,15.564A9.316,9.316,0,0,1,100.414,2.278Z" transform="translate(109 317)"/><path class="f" d="M1.913.031c6.119,1.2,16.118,15.039,21.162,20.314a197.547,197.547,0,0,1,16.56,19.947,337.377,337.377,0,0,1,29.3,47.788,444.19,444.19,0,0,1,32.6,84.838,349.969,349.969,0,0,1,9.891,55.647c.353,3.523,4.047,30.688-1.276,31.42-4.787.659-3.309-20.626-3.54-23.522C104,203.8,96.177,172.015,85.3,141.226c-2.37-6.707-4.571-14.922-8.36-20.958-2.729-4.347-.02-2.831-4.815-4.477-4.118-1.414-8.81-1.068-13.027-2.8-9.161-3.757-16.5-11.05-22.925-18.385-12.5-14.257-22.4-29.68-27.558-47.948A230.852,230.852,0,0,1,1.658,15.9C1.281,13.2-2.028-.74,1.913.031Z" transform="translate(0 244)"/><path class="g" d="M14.061,13.716C37.111,53.69,56.053,97.6,68.283,142.076c7.41,26.947,12.593,54.6,17.742,82.05C94,266.632,101.538,309.134,103.683,352.4c2.158,43.511,6.425,93.7-7.822,135.6,7.117-42.548.341-87.838-.859-130.65-.573-20.438-2.235-40.676-4.414-60.995-2.115-19.71-5.57-39.326-8.787-58.881q-2.351-14.286-4.889-28.537c-.5-2.836-.712-11.25-2.51-13.187S63.354,193,60.454,191.574a74.878,74.878,0,0,1-16.193-11.3c-9.319-8.291-17.426-19.123-23.825-29.8C5.631,125.764-.288,95.61.011,66.994.068,61.438,9,1.61,5.415.786Q5.739.407,6.028,0,10.1,6.823,14.061,13.716Z" transform="translate(12)"/><path class="g" d="M164.846,3.887c.356-.513,2.67-4.081,1.5-3.853C168.724-.43,163.087,3.969,169,1.27c-2.808,2.652-1.187,6.1-1.15,9.665a86.554,86.554,0,0,1-2,17.211,118.022,118.022,0,0,1-8.022,26.013c-8.127,18.166-21.927,35.655-38.31,47.012-8.088,5.608-16.014,7.517-25.239,10.1-5.826,1.631-6.288,4.645-9.381,10.3-6.439,11.776-12.763,23.509-18.441,35.683-6.78,14.536-13.362,29.088-19.571,43.88C25.969,250.957,8.945,302.578,0,356c-.219-31.481,7.064-63.9,16.25-93.912,6.692-21.863,15.4-42.937,24.695-63.8,2.252-5.054,5.664-11.555,6.62-17.135.669-3.909-1.377-7.669-2.315-11.788-3.654-16.037-3.392-34-.184-50.128,3.538-17.779,13.768-26.031,31.074-28.549,6.329-.921,14.374-.584,20.177-3.282,6.323-2.939,8.931-12.6,12.526-18.8a255.666,255.666,0,0,1,34.306-46.665A111.285,111.285,0,0,1,154.888,11.15C157.513,9.053,163.058,6.47,164.846,3.887Z" transform="translate(110 154)"/><path class="i" d="M.845,5.729A5,5,0,0,1,5.791,0H67.209a5,5,0,0,1,4.946,5.729L67.408,37.918A20,20,0,0,1,47.622,55H25.378A20,20,0,0,1,5.592,37.918Z" transform="translate(75 476)"/></g><g transform="translate(512 280)"><path class="j" d="M0,187.541a21.86,21.86,0,0,0,1,4A8.448,8.448,0,0,1,0,187.541Zm8-33.535a83.426,83.426,0,0,1,17.288-23.47c-1.4-5.019-14.961-12.859-6.384-17.011,4.555-2.194,8.875,2.063,9.617,6.373.509,2.961-.7,6.586-1.922,9.372q3.289-3.129,6.8-6.035c3.225-2.678,6.518-5.269,9.84-7.825-4.979-5.144-9.2-19.328-2.056-21.242,10.545-2.816,4.548,15.923,3.636,19.446a.568.568,0,0,1-.473-.206c.041.328.09.681.153,1.037,6.357-4.864,12.8-9.62,19.048-14.613a27.139,27.139,0,0,1-1.922-2.806,30.332,30.332,0,0,1-3.721-6.01c-1.5-3.424-2.832-8.829,1.712-10.561,4.942-1.888,6.917,4.251,6.761,7.843-.108,2.485-.916,4.809-1.4,7.224-.151.753.1,4.2-.87,2.671a7.325,7.325,0,0,1-.032,1.216q1.683-1.351,3.344-2.732a1.284,1.284,0,0,1-.071-.418A1.256,1.256,0,0,1,69.2,95.182q2.2-1.859,4.342-3.781c3.026-2.722,6.1-5.523,9.153-8.389-.6-.567-.311-1.294-.868-1.892s-1.7-.969-2.357-1.531a16.543,16.543,0,0,1-3.941-5.368C73.979,71,72.108,64.305,77.2,63.071c5.253-1.274,7.544,5.193,7.667,9.169a100.122,100.122,0,0,1-1.5,10.135c5.655-5.326,11.232-10.868,16.32-16.536-1.447-.088-5.4-3.238-6.183-4.082-1.921-2.06-4.91-6.547-1.24-8.648,3.262-1.863,7,1.274,8.2,4.2a39.661,39.661,0,0,1,.7,6.862c2.109-2.407,4.127-4.832,6.016-7.273q1.887-2.433,3.559-5a2.342,2.342,0,0,1-.661-.715c-5.216-1.157-11.5-9.638-5.164-12.146,3.014-1.193,6.06,1.75,7.381,4.1a30.025,30.025,0,0,1,.917,4.709,97.142,97.142,0,0,0,7.873-18.019,1.141,1.141,0,0,1-.841-1.1c-2.479-1.575-4.432-2.881-6.07-5.748-1.017-1.78-2.8-5.82.5-6.608,4.3-1.024,6.626,5.523,6.806,8.7.021.369-.037,1.435-.1,2.41a1.454,1.454,0,0,1,.441.031c1.181-3.878,2.168-7.817,3-11.771-2.273-.857-2.037-12.906-.407-14.539,3.645-3.657,5.781,2.009,5.442,4.928a19.273,19.273,0,0,1-4.175,9.189c-.217.284-.158.274-.189-.14a.816.816,0,0,1-.224.451,51.727,51.727,0,0,1-.085,5.3,121.486,121.486,0,0,1-2.317,13.7q-.375,1.644-.831,3.255a27.1,27.1,0,0,1,5.526-3.12c2.606-1,6.593-2.013,9.02.032a4.191,4.191,0,0,1,.151,6.314c-2.16,2.153-5.881,1.877-8.65,1.513-1.253-.165-7.942-1.046-6.292-2.052a5.523,5.523,0,0,0-.669.274q-.263.787-.547,1.569c.039.025.071.051.112.076-.044-.022-.076-.046-.114-.068a60.926,60.926,0,0,1-7.721,14.666,14.65,14.65,0,0,1,3.525-.74c3.528-.257,10.757,2.822,6.592,7.24-3.993,4.234-9.593-.822-13.823-1.7a198.561,198.561,0,0,1-14.353,15.8,1.136,1.136,0,0,1,.667.611c1.969-.864,4.041-2.138,5.836-2.42,2.589-.4,7.859-.458,9.674,1.912,2.233,2.916-.439,5.051-3.281,5.441-4.119.564-9.355-1.687-13.209-3.224a1.3,1.3,0,0,1-1.21-.471l-.254-.1C87.9,84.444,82.6,89.281,77.341,94.007H77.5a13.667,13.667,0,0,1,4.316-1.686c3.55-.664,7.674-.454,10.385,2.2s3.473,7.073.394,9.729c-6.165,5.317-14.131-7.948-17.062-8.636-5.342,4.749-10.958,9.155-16.654,13.461a9.732,9.732,0,0,1,1.931-.286c5.373-.229,17.58,6.913,10.68,12.959-6.013,5.269-12.064-5.787-16.475-9.772-5.365,4.011-10.755,7.991-16.01,12.144a14.766,14.766,0,0,1,8.318.484c2.99,1.068,7.771,3.594,5.636,7.556-2.172,4.028-7.958,1.843-10.955.373-1.633-.8-4.858-3.39-7.748-4.559a100.276,100.276,0,0,0-21.554,24.412,87.074,87.074,0,0,0-8.537,18.825C2.827,175.412.246,182.441.393,188-1.122,176.81,3.383,163.7,8,154.006ZM125.252,21.058c.437,0,2.08-4.441,2.6-5.1a14.806,14.806,0,0,1,5.857-4.246c3.6-1.555,8.166.707,5.975,5.2-1.75,3.588-6.489,4.31-10.594,4.31C127.687,21.225,126.36,21.141,125.252,21.058Z" transform="translate(411.081 78.745) rotate(-3)"/></g></g></svg>