<svg xmlns="http://www.w3.org/2000/svg" xmlns:xlink="http://www.w3.org/1999/xlink" width="1417.5" height="782.37" viewBox="0 0 1417.5 782.37"><defs><style>.a{fill:url(#a);}.b{fill:url(#b);}.c{fill:#f2f2f2;}.d{fill:rgba(0,0,0,0.1);}.e{fill:#afb9c5;}.f{fill:#c5cfd6;}.g{fill:#dde3e9;}.h{opacity:0.7;}.i,.o{fill:none;}.i{stroke:#cbcbcb;stroke-miterlimit:10;stroke-width:8px;}.j{fill:#c1dee2;}.k{fill:#89c5cc;}.l{fill:#69a1ac;}.m{fill:#fff;}.n{fill:#d1d1d1;}.o{stroke:#fff;stroke-linecap:round;}.p,.q{stroke:none;}.q{fill:#707070;}</style><linearGradient id="a" x1="-1.235" y1="0.386" x2="0.576" y2="0.907" gradientUnits="objectBoundingBox"><stop offset="0" stop-color="#fc88d9" stop-opacity="0.651"/><stop offset="0.402" stop-color="#ec00bc" stop-opacity="0.651"/><stop offset="0.772" stop-color="#dc00be" stop-opacity="0.651"/><stop offset="1" stop-color="#6d056a" stop-opacity="0.651"/></linearGradient><linearGradient id="b" x1="0.014" y1="-0.253" x2="1.796" y2="1.837" gradientUnits="objectBoundingBox"><stop offset="0" stop-color="#fc88d9" stop-opacity="0.651"/><stop offset="0.178" stop-color="#ec00bc" stop-opacity="0.651"/><stop offset="0.777" stop-color="#dc00be" stop-opacity="0.651"/><stop offset="1" stop-color="#6d056a" stop-opacity="0.651"/></linearGradient></defs><g transform="translate(-0.5 14)"><path class="a" d="M32.507,767.5c78-34.6,283.084-127.909,309.733-164.078,33.006-44.795,29.2-102.255,219.787-163.844,29.755-9.616,54.247-20.374,74.409-31.692V767.5Z" transform="translate(729.063)"/><path class="b" d="M399.732,767.5V411.556C543.8,449.333,538.88,509.639,538.88,509.639s-20.414,74.732,171.466,95.674,190.426,59.475,225.035,85.751c24.1,18.3,181.794,50.92,275.351,69.047V767.5Z" transform="translate(-399.232)"/><g transform="translate(1205.015 112.887)"><circle class="c" cx="53" cy="53" r="53" transform="translate(-0.015 0.113)"/><circle class="d" cx="3" cy="3" r="3" transform="translate(49.985 8.113)"/><circle class="d" cx="3" cy="3" r="3" transform="translate(7.985 50.113)"/><circle class="d" cx="3" cy="3" r="3" transform="translate(91.985 50.113)"/><circle class="d" cx="3" cy="3" r="3" transform="translate(49.985 92.113)"/><path class="e" d="M2,0,4,35H0Z" transform="translate(50.558 16.629)"/><path class="e" d="M2,0,4,24H0Z" transform="translate(71.671 68.913) rotate(135)"/><circle class="f" cx="4" cy="4" r="4" transform="translate(48.985 49.113)"/></g><g transform="translate(73.85 -14)"><g transform="translate(0 195.225)"><ellipse class="c" cx="42.5" cy="22.5" rx="42.5" ry="22.5" transform="translate(7 12)"/><path class="g" d="M99,50C99,22.386,76.838,0,49.5,0S0,22.386,0,50"/></g><rect class="g" width="5" height="202" transform="translate(46.15)"/></g><g class="h" transform="translate(183.901 -14)"><g transform="translate(0 145.268)"><ellipse class="c" cx="31.768" cy="18.158" rx="31.768" ry="18.158" transform="translate(5.232 9.684)"/><path class="g" d="M74,40.351C74,18.066,57.435,0,37,0S0,18.066,0,40.351"/></g><rect class="g" width="5" height="169" transform="translate(35.099)"/></g><g transform="translate(1211.139 261.794)"><path class="i" d="M0,28.691,26.272,6.16a12.692,12.692,0,0,1,16.012,0l69.945,59.985a18.119,18.119,0,0,1,6.628,13.72V477.206" transform="translate(59.233 10)"/><rect class="e" width="59" height="7" rx="3" transform="translate(147.861 486.206)"/><g transform="translate(47.066 0) rotate(45)"><path class="f" d="M33,0h0A33,33,0,0,1,66,33V61a0,0,0,0,1,0,0H0a0,0,0,0,1,0,0V33A33,33,0,0,1,33,0Z"/><ellipse class="c" cx="33" cy="6.5" rx="33" ry="6.5" transform="translate(0.179 53.562)"/></g></g><g transform="translate(11.373 511)"><g transform="translate(22.634)"><rect class="e" width="38" height="9" rx="2" transform="translate(20.993 144)"/><path class="g" d="M15.5,75a15.5,15.5,0,0,1,0-31H23c6.44-20.872,7.217-44,7.217-44h4.566A167.709,167.709,0,0,0,42,44h6.5a15.5,15.5,0,0,1,0,31Z" transform="translate(7.993 71)"/><path class="f" d="M4.622,1.679S21.811,0,39,0,73.378,1.679,73.378,1.679L78,81.133S58.5,83,39,83,0,81.133,0,81.133Z"/></g><path class="c" d="M104,104V22H21v82H0V0H125V104Z" transform="translate(-0.373 153)"/></g><g transform="translate(1246.763 486)"><g transform="translate(13.245 0)"><path class="j" d="M.381.208C9.214,21.2,24.229,35.781,32.182,57.6c4.716,12.942,6.682,27.015,6.8,41.427.065,7.828-.071,15.662-.108,23.49-.036,7.634-.243,15.219-.891,22.8-.651,7.625-1.38,15.16-1.7,22.833-.25,5.978-.365,12.932-2.391,18.385-1.611,4.337-5.707,4.972-6.794-.288a42.045,42.045,0,0,1-.461-9.193c.085-3.855.31-7.7.424-11.559.46-15.468-.136-30.938.175-46.412.3-15.119,2.248-30.221.1-45.238-1.776-12.4-6.287-23.051-11.471-33.26C10.874,30.771,5.445,21.187,2.075,10.014A53.84,53.84,0,0,1,0,.03Q.235-.079.381.208Z" transform="translate(3 0)"/><path class="k" d="M.974.617C2.723,1.88,3.7,3.728,4.882,5.551c1.47,2.266,3.2,4.313,4.668,6.581C12.615,16.86,15.308,21.879,18.1,26.8a96.064,96.064,0,0,1,11.326,30.1c2.067,11.2,2.625,22.754,3.492,34.117.92,12.044,1.846,24.176,1.968,36.267.055,5.417.347,11.167-.3,16.546-.4,3.349-1.916,6.2-5.323,6.175-7.237-.057-10.634-8.073-12.053-14.646-2.089-9.679-2.506-19.961-2.175-29.86C15.432,93.558,17.5,81.8,18.4,69.912c.95-12.587.413-24.951-3.914-36.8-2.186-5.989-4.724-11.835-7-17.784A57.489,57.489,0,0,0,4.409,7.831C2.951,5.208,1.142,2.826,0,0Z" transform="translate(0 41)"/><path class="j" d="M17.334.518,18,0a66.162,66.162,0,0,1-2.676,7.341,59.91,59.91,0,0,0-1.729,7.136c-1.255,5.681-2.7,11.234-3.889,16.963C7.36,42.777,7.8,54.99,9.342,67.568c1.453,11.881,3.751,23.745,4.845,35.623a163.552,163.552,0,0,1,.432,29.409c-.588,6.383-2.517,14-7.771,13.361-2.474-.3-3.764-3.281-4.284-6.642-.835-5.4-1.01-11.074-1.335-16.443C.5,110.9.358,98.951.214,87.092.078,75.9-.3,64.494.452,53.587a102.687,102.687,0,0,1,6.2-28.758c1.7-4.61,3.317-9.328,5.225-13.721.915-2.107,2.033-3.97,2.949-6.075C15.563,3.339,16.148,1.6,17.334.518Z" transform="translate(67 16)"/><path class="j" d="M.209.3C1.166-1.3,3.272,3.993,3.593,4.66q-.2-.5-.409-.993A44.1,44.1,0,0,1,7.9,13.734c1.069,3.585,1.987,7.242,2.99,10.853,1.882,6.774,4.31,13.356,6.016,20.191a65.7,65.7,0,0,1,1.678,20.1A171.685,171.685,0,0,0,18.4,86.462c.233,3.418,1.344,6.6,2.1,9.892s1.362,6.632,2.263,9.884c.207-.424.233.993.233,1.1a6.829,6.829,0,0,1-.381,2.265,6.1,6.1,0,0,1-3.841,4.212c-3.456.988-6.666-2.157-7.78-5.477A90.858,90.858,0,0,1,7.755,93.3,70.881,70.881,0,0,1,7.1,79.44c.409-9.179,2.07-18.238,2.519-27.414.489-9.99-1.49-19.376-3.147-29.1A84.98,84.98,0,0,0,3.356,9.134,38.761,38.761,0,0,0,1.048,4.061C.558,3.112-.431,1.418.209.3Z" transform="translate(3 76)"/><path class="l" d="M10.252,35.7c-.4,11.445-1.08,22.8-2.606,34.127C6.089,81.38,4.3,92.9,2.8,104.463c-1.459,11.259-2.987,22.7-2.784,34.121.15,8.409-1.244,22.634,8.1,26.784,9.459,4.2,11.488-13.746,12.109-19.67,1.19-11.366.8-22.852.227-34.28-.593-11.729-1.583-23.4-2.81-35.085-1.363-12.981-2.432-26.02-3.29-39.038-.425-6.439-.529-12.867-.412-19.308C14.048,11.911,13.817,5.77,11.656,0l-.339.246" transform="translate(21 25)"/><path class="k" d="M12.083,5.955c-1.7,2.478-3.416,4.932-5.022,7.557C4.186,18.209,1.587,23.432.8,30.147-.831,44.2.481,59.379.8,73.863c.065,2.96-.31,5.83.857,8.647,1.058,2.554,3.035,4.5,4.92,4.49C10.611,86.977,10,77.1,10,72.746c.012-7.623-.843-15.324-.769-22.94a159.271,159.271,0,0,1,1.626-22.278A128.354,128.354,0,0,1,15.729,6.81c.3-.9,2.429-7.872.415-6.671" transform="translate(68 91)"/><path class="l" d="M14.262,0c-2.653,0-2.637,13.226-2.717,14.925-.288,6.131-.221,12.263-.4,18.395-.4,13.381-.889,26.88-2.9,40.107C7.161,80.547,5.907,87.636,4.557,94.7,3.2,101.789,1.387,108.867.5,116.044c-.855,6.9-.372,13.934-.255,20.867a182.673,182.673,0,0,0,1.242,20.877c.225,1.707.49,3.407.773,5.1a40.455,40.455,0,0,0,.5,4.51c.639,2.152,3.379,2.856,5.224,2.519,4.993-.912,8.182-7.18,9.887-11.76,2.178-5.848,3.334-12.192,4.474-18.356a160.431,160.431,0,0,0,2.4-21.181c.722-14.448-.2-28.911-1.24-43.313-.576-8.009-1.241-15.984-2.258-23.943-1.013-7.926-2.313-15.816-3.16-23.765-.615-5.777-1.221-11.561-1.619-17.36C16.371,8.859,16.291,0,14.262,0" transform="translate(48 22)"/><path class="k" d="M26.941,118.139c-.432-13.886-6.014-74.88-7.284-91.672-.318-4.2-3.375-21.7-3.772-26.467-1.075,1.347-.983,22.309-.972,27.126.012,4.765-.578,9.45-.882,14.189-.31,4.836-7.459,67.285-8.386,71.932-1.846,9.244-3.081,18.729-4.033,28.18C.683,150.639-.76,160.358.482,169.618a28.306,28.306,0,0,0,1.473,6.188c.795,2.116,1.339,4.073,1.977,6.287,1.026,3.567,2.883,6.7,5.736,8.169,5.849,3.019,8.99-3.815,10.583-9.765a159.221,159.221,0,0,0,4.94-29.138c.847-11.04,2.1-22.1,1.75-33.22" transform="translate(32 0)"/></g><g transform="translate(0 159)"><rect class="m" width="91" height="91" rx="2" transform="translate(10.237)"/><rect class="f" width="10" height="113" rx="2" transform="translate(0.237 10)"/><rect class="f" width="10" height="113" rx="2" transform="translate(50.237 10)"/><rect class="f" width="10" height="113" rx="2" transform="translate(101.237 10)"/></g></g><g transform="translate(-17 18.733)"><g class="n" transform="matrix(1, 0.017, -0.017, 1, 192.911, 701.807)"><path class="p" d="M 23.42116355895996 46.73501586914063 C 19.84651374816895 46.73501586914063 16.64320373535156 46.39201354980469 13.90024280548096 45.71554565429688 C 11.01693344116211 45.00445556640625 8.559543609619141 43.90445327758789 6.596353054046631 42.44608306884766 C 4.540713310241699 40.91904449462891 2.96535325050354 38.95265579223633 1.914043188095093 36.60156631469727 C 0.8098631501197815 34.13225555419922 0.2500031292438507 31.16489410400391 0.2500031292438507 27.78190422058105 C 0.2500031292438507 24.91558456420898 0.6545931100845337 21.74492454528809 1.420023083686829 18.61271476745605 C 2.205363035202026 15.39904499053955 3.354433059692383 12.30419445037842 4.74301290512085 9.662734985351563 C 6.255143165588379 6.786244869232178 7.994873046875 4.512044906616211 9.913872718811035 2.903294801712036 C 12.01402282714844 1.14269495010376 14.26065349578857 0.2499949187040329 16.59137344360352 0.2499949187040329 C 18.76340293884277 0.2499949187040329 21.01394271850586 1.032254934310913 23.28049278259277 2.575054883956909 C 26.72749328613281 4.921364784240723 30.08669281005859 6.835844993591309 33.05045318603516 8.524954795837402 C 37.58229446411133 11.10775470733643 41.49613189697266 13.33833503723145 44.2454948425293 16.21190452575684 C 45.68755340576172 17.7191047668457 46.73193359375 19.32187461853027 47.43832397460938 21.11179542541504 C 48.20970153808594 23.06642532348633 48.58468246459961 25.24823570251465 48.58468246459961 27.78190422058105 C 48.58468246459961 34.28474426269531 46.11801147460938 39.21588516235352 41.25318145751953 42.4383430480957 C 39.05824279785156 43.89227676391602 36.36790466308594 44.99460601806641 33.25688171386719 45.71470642089844 C 30.33198356628418 46.3917350769043 27.02277374267578 46.73501586914063 23.42116355895996 46.73501586914063 Z"/><path class="q" d="M 16.59137344360352 0.4999961853027344 C 14.32099151611328 0.4999961853027344 12.12839126586914 1.373043060302734 10.07448196411133 3.094886779785156 C 8.180534362792969 4.682624816894531 6.461223602294922 6.931503295898438 4.964302062988281 9.779054641723633 C 3.585063934326172 12.40274429321289 2.443454742431641 15.47789573669434 1.662872314453125 18.67206573486328 C 0.9021224975585938 21.7851448059082 0.5000038146972656 24.93527603149414 0.5000038146972656 27.78190612792969 C 0.5000038146972656 31.12949371337891 1.052543640136719 34.06252288818359 2.142261505126953 36.49950408935547 C 3.175872802734375 38.81101608276367 4.724601745605469 40.74421310424805 6.745433807373047 42.24539566040039 C 8.681831359863281 43.68386459350586 11.10920333862305 44.76972579956055 13.96010208129883 45.47281646728516 C 16.68350219726563 46.14446640014648 19.86666297912598 46.48501586914063 23.42116355895996 46.48501586914063 C 27.00382232666016 46.48501586914063 30.2940731048584 46.14390563964844 33.20050430297852 45.47114562988281 C 36.28231430053711 44.75780487060547 38.94518280029297 43.66729354858398 41.1151237487793 42.22992324829102 C 45.90567398071289 39.05666351318359 48.33468246459961 34.19564437866211 48.33468246459961 27.78190612792969 C 48.33468246459961 25.28022384643555 47.96541213989258 23.1284351348877 47.20577239990234 21.20357513427734 C 46.51150512695313 19.44434547424316 45.48409271240234 17.86808586120605 44.06485366821289 16.38473510742188 C 41.34068298339844 13.53749465942383 37.44152450561523 11.31527519226074 32.92667388916016 8.742164611816406 C 29.95885276794434 7.050735473632813 26.59505271911621 5.133636474609375 23.13981246948242 2.781715393066406 C 20.91551399230957 1.267673492431641 18.71229362487793 0.4999961853027344 16.59137344360352 0.4999961853027344 M 16.59137344360352 -3.814697265625e-06 C 18.71964454650879 -3.814697265625e-06 21.00471687316895 0.7235565185546875 23.42116355895996 2.368385314941406 C 37.26420211791992 11.79108428955078 48.83468246459961 13.74640464782715 48.83468246459961 27.78190612792969 C 48.83468246459961 41.8173942565918 37.45667266845703 46.98501586914063 23.42116355895996 46.98501586914063 C 9.385662078857422 46.98501586914063 3.814697265625e-06 41.8173942565918 3.814697265625e-06 27.78190612792969 C 3.814697265625e-06 16.19644927978516 6.527481079101563 -3.814697265625e-06 16.59137344360352 -3.814697265625e-06 Z"/></g><path class="o" d="M0,0S2.175,10.94,13.41,13.84" transform="matrix(1, 0.017, -0.017, 1, 198.513, 728.439)"/></g><g transform="matrix(0.545, 0.839, -0.839, 0.545, 347.609, 697.407)"><g class="n" transform="matrix(1, 0.017, -0.017, 1, 0.432, 0)"><path class="p" d="M 12.3363676071167 24.49786758422852 C 8.4998779296875 24.49786758422852 5.542027950286865 23.74566650390625 3.54497766494751 22.26214790344238 C 2.478707790374756 21.47006797790527 1.661537766456604 20.45003700256348 1.116167783737183 19.23041725158691 C 0.5414177775382996 17.94507789611816 0.2499977648258209 16.39836692810059 0.2499977648258209 14.6332368850708 C 0.2499977648258209 11.54130744934082 1.151597738265991 7.905477046966553 2.602957725524902 5.144597053527832 C 4.262197971343994 1.988267064094543 6.441347599029541 0.2499970942735672 8.738977432250977 0.2499970942735672 C 9.858847618103027 0.2499970942735672 11.02185821533203 0.6551371216773987 12.19569778442383 1.454147100448608 C 14.01518821716309 2.692637205123901 15.78671741485596 3.702267169952393 17.34970855712891 4.593047142028809 C 19.72866821289063 5.948867321014404 21.78321838378906 7.119797229766846 23.21943855285645 8.62089729309082 C 24.75632858276367 10.22721672058105 25.47213745117188 12.13767719268799 25.47213745117188 14.6332368850708 C 25.47213745117188 18.01622772216797 24.19071769714355 20.58036804199219 21.66347694396973 22.25440788269043 C 19.44776725769043 23.72209739685059 16.22250747680664 24.49786758422852 12.3363676071167 24.49786758422852 Z"/><path class="q" d="M 8.738986968994141 0.4999961853027344 C 5.77027702331543 0.4999961853027344 3.758956909179688 3.482866287231445 2.824247360229492 5.260916709899902 C 1.390598297119141 7.988117218017578 0.4999980926513672 11.57937717437744 0.4999980926513672 14.6332368850708 C 0.4999980926513672 16.36296653747559 0.7840976715087891 17.87534713745117 1.344398498535156 19.12835693359375 C 1.87205696105957 20.30839729309082 2.662607192993164 21.29523658752441 3.694057464599609 22.06145668029785 C 5.647058486938477 23.51225662231445 8.55474853515625 24.24786758422852 12.3363676071167 24.24786758422852 C 16.17325782775879 24.24786758422852 19.35077667236328 23.4864673614502 21.52541732788086 22.04598617553711 C 23.97837829589844 20.42114639282227 25.22213745117188 17.92713737487793 25.22213745117188 14.6332368850708 C 25.22213745117188 12.17288684844971 24.54876708984375 10.37191677093506 23.03879737854004 8.793737411499023 C 21.62776756286621 7.318966865539551 19.58789825439453 6.156396865844727 17.22591781616211 4.810247421264648 C 15.6588773727417 3.917156219482422 13.88274765014648 2.9049072265625 12.05501747131348 1.660797119140625 C 10.92342758178711 0.8905467987060547 9.807747840881348 0.4999961853027344 8.738986968994141 0.4999961853027344 M 8.738988876342773 -5.7220458984375e-06 C 9.859990119934082 -5.7220458984375e-06 11.06357860565186 0.3811054229736328 12.3363676071167 1.247467041015625 C 19.62774658203125 6.210577011108398 25.72213745117188 7.240487098693848 25.72213745117188 14.6332368850708 C 25.72213745117188 22.02598762512207 19.72911834716797 24.74786758422852 12.3363676071167 24.74786758422852 C 4.943607330322266 24.74786758422852 -1.9073486328125e-06 22.02598762512207 -1.9073486328125e-06 14.6332368850708 C -1.9073486328125e-06 8.530969619750977 3.438146591186523 -5.7220458984375e-06 8.738988876342773 -5.7220458984375e-06 Z"/></g><path class="o" d="M0,0A9.966,9.966,0,0,0,7.063,7.29" transform="matrix(1, 0.017, -0.017, 1, 3.383, 14.028)"/></g><g transform="translate(397.091 738.637)"><g class="n" transform="matrix(1, 0.017, -0.017, 1, 0.432, 0)"><path class="p" d="M 12.3363676071167 24.49786758422852 C 8.4998779296875 24.49786758422852 5.542027950286865 23.74566650390625 3.54497766494751 22.26214790344238 C 2.478707790374756 21.47006797790527 1.661537766456604 20.45003700256348 1.116167783737183 19.23041725158691 C 0.5414177775382996 17.94507789611816 0.2499977648258209 16.39836692810059 0.2499977648258209 14.6332368850708 C 0.2499977648258209 11.54130744934082 1.151597738265991 7.905477046966553 2.602957725524902 5.144597053527832 C 4.262197971343994 1.988267064094543 6.441347599029541 0.2499970942735672 8.738977432250977 0.2499970942735672 C 9.858847618103027 0.2499970942735672 11.02185821533203 0.6551371216773987 12.19569778442383 1.454147100448608 C 14.01518821716309 2.692637205123901 15.78671741485596 3.702267169952393 17.34970855712891 4.593047142028809 C 19.72866821289063 5.948867321014404 21.78321838378906 7.119797229766846 23.21943855285645 8.62089729309082 C 24.75632858276367 10.22721672058105 25.47213745117188 12.13767719268799 25.47213745117188 14.6332368850708 C 25.47213745117188 18.01622772216797 24.19071769714355 20.58036804199219 21.66347694396973 22.25440788269043 C 19.44776725769043 23.72209739685059 16.22250747680664 24.49786758422852 12.3363676071167 24.49786758422852 Z"/><path class="q" d="M 8.738986968994141 0.4999961853027344 C 5.77027702331543 0.4999961853027344 3.758956909179688 3.482866287231445 2.824247360229492 5.260916709899902 C 1.390598297119141 7.988117218017578 0.4999980926513672 11.57937717437744 0.4999980926513672 14.6332368850708 C 0.4999980926513672 16.36296653747559 0.7840976715087891 17.87534713745117 1.344398498535156 19.12835693359375 C 1.87205696105957 20.30839729309082 2.662607192993164 21.29523658752441 3.694057464599609 22.06145668029785 C 5.647058486938477 23.51225662231445 8.55474853515625 24.24786758422852 12.3363676071167 24.24786758422852 C 16.17325782775879 24.24786758422852 19.35077667236328 23.4864673614502 21.52541732788086 22.04598617553711 C 23.97837829589844 20.42114639282227 25.22213745117188 17.92713737487793 25.22213745117188 14.6332368850708 C 25.22213745117188 12.17288684844971 24.54876708984375 10.37191677093506 23.03879737854004 8.793737411499023 C 21.62776756286621 7.318966865539551 19.58789825439453 6.156396865844727 17.22591781616211 4.810247421264648 C 15.6588773727417 3.917156219482422 13.88274765014648 2.9049072265625 12.05501747131348 1.660797119140625 C 10.92342758178711 0.8905467987060547 9.807747840881348 0.4999961853027344 8.738986968994141 0.4999961853027344 M 8.738988876342773 -5.7220458984375e-06 C 9.859990119934082 -5.7220458984375e-06 11.06357860565186 0.3811054229736328 12.3363676071167 1.247467041015625 C 19.62774658203125 6.210577011108398 25.72213745117188 7.240487098693848 25.72213745117188 14.6332368850708 C 25.72213745117188 22.02598762512207 19.72911834716797 24.74786758422852 12.3363676071167 24.74786758422852 C 4.943607330322266 24.74786758422852 -1.9073486328125e-06 22.02598762512207 -1.9073486328125e-06 14.6332368850708 C -1.9073486328125e-06 8.530969619750977 3.438146591186523 -5.7220458984375e-06 8.738988876342773 -5.7220458984375e-06 Z"/></g><path class="o" d="M0,0A9.966,9.966,0,0,0,7.063,7.29" transform="matrix(1, 0.017, -0.017, 1, 3.383, 14.028)"/></g><g transform="translate(109 7.127)"><g class="n" transform="matrix(1, 0.017, -0.017, 1, 192.407, 701.807)"><path class="p" d="M 9.028059005737305 17.86111068725586 C 6.235129356384277 17.86111068725586 4.083959102630615 17.3150806427002 2.634279251098633 16.23818016052246 C 1.052189350128174 15.06291007995605 0.2499992996454239 13.20262050628662 0.2499992996454239 10.70897006988525 C 0.2499992996454239 8.456430435180664 0.9068692922592163 5.807590007781982 1.964259266853333 3.79613995552063 C 3.16637921333313 1.509380102157593 4.740059375762939 0.2500000596046448 6.395409107208252 0.2500000596046448 C 7.201249122619629 0.2500000596046448 8.039669036865234 0.5425700545310974 8.887389183044434 1.119600057601929 C 10.22114944458008 2.027470111846924 11.51882934570313 2.76705002784729 12.66375923156738 3.419559955596924 C 14.40017890930176 4.40919017791748 15.89980888366699 5.263870239257813 16.94411849975586 6.355350017547607 C 18.0713996887207 7.533550262451172 18.57409858703613 8.876250267028809 18.57409858703613 10.70897006988525 C 18.57409858703613 13.16084003448486 17.64642906188965 15.01852989196777 15.81684970855713 16.23044013977051 C 14.20634937286377 17.2972297668457 11.85882949829102 17.86111068725586 9.028059005737305 17.86111068725586 Z"/><path class="q" d="M 6.39540958404541 0.5 C 4.293309211730957 0.5 2.855509757995605 2.638020515441895 2.185539245605469 3.912469863891602 C 1.145858764648438 5.890230178833008 0.5 8.494489669799805 0.5 10.70897006988525 C 0.5 15.35340023040771 3.289548873901367 17.61111068725586 9.028059005737305 17.61111068725586 C 11.80956935882568 17.61111068725586 14.10935974121094 17.06160926818848 15.67878913879395 16.02202033996582 C 17.43408966064453 14.85931015014648 18.32409858703613 13.07174015045166 18.32409858703613 10.70897006988525 C 18.32409858703613 6.933270454406738 16.02304840087891 5.62185001373291 12.5399694442749 3.636759757995605 C 11.39098930358887 2.981940269470215 10.08870887756348 2.239740371704102 8.746708869934082 1.326259613037109 C 7.941239356994629 0.7779998779296875 7.150138854980469 0.5 6.39540958404541 0.5 M 6.395408630371094 -9.5367431640625e-07 C 7.215785026550293 -9.5367431640625e-07 8.096600532531738 0.278904914855957 9.028059005737305 0.9129304885864258 C 14.36406898498535 4.545060157775879 18.82409858703613 5.298769950866699 18.82409858703613 10.70897006988525 C 18.82409858703613 16.11916923522949 14.43825912475586 18.11111068725586 9.028059005737305 18.11111068725586 C 3.617849349975586 18.11111068725586 0 16.11916923522949 0 10.70897006988525 C 0 6.24317741394043 2.516120910644531 -9.5367431640625e-07 6.395408630371094 -9.5367431640625e-07 Z"/></g><path class="o" d="M0,0A7.294,7.294,0,0,0,5.169,5.335" transform="matrix(1, 0.017, -0.017, 1, 194.566, 712.073)"/></g><g transform="translate(323.511 728.737)"><g class="n" transform="matrix(1, 0.017, -0.017, 1, 0.166, 0)"><path class="p" d="M 4.755240917205811 9.28945255279541 C 1.723680973052979 9.28945255279541 0.250000923871994 8.095902442932129 0.250000923871994 5.640612602233887 C 0.250000923871994 4.472172737121582 0.5907809138298035 3.09807276725769 1.139340877532959 2.054552793502808 C 1.493630886077881 1.380612730979919 2.254340887069702 0.2500026822090149 3.36858081817627 0.2500026822090149 C 3.768841028213501 0.2500026822090149 4.188050746917725 0.3972126841545105 4.614571094512939 0.6875327229499817 C 5.320981025695801 1.168362736701965 6.006660938262939 1.559152722358704 6.611630916595459 1.903932690620422 C 8.450301170349121 2.95183277130127 9.665000915527344 3.644112586975098 9.665000915527344 5.640612602233887 C 9.665000915527344 6.889892578125 9.19420051574707 7.835182666778564 8.265681266784668 8.45023250579834 C 7.436841011047363 8.999252319335938 6.22295093536377 9.28945255279541 4.755240917205811 9.28945255279541 Z"/><path class="q" d="M 3.36858081817627 0.499992847442627 C 2.385740756988525 0.499992847442627 1.688671112060547 1.546852588653564 1.360630989074707 2.170872688293457 C 0.8297710418701172 3.180712699890137 0.5000009536743164 4.510232925415039 0.5000009536743164 5.640612602233887 C 0.5000009536743164 6.847932815551758 0.8621606826782227 7.703842639923096 1.607160568237305 8.257282257080078 C 2.305840969085693 8.77629280090332 3.36500072479248 9.03945255279541 4.755240917205811 9.03945255279541 C 6.881000995635986 9.03945255279541 9.415000915527344 8.449782371520996 9.415000915527344 5.640612602233887 C 9.415000915527344 3.789382457733154 8.313220977783203 3.161452770233154 6.487851142883301 2.121142864227295 C 5.878830909729004 1.77404260635376 5.188540935516357 1.380632877349854 4.473890781402588 0.8941826820373535 C 4.089621067047119 0.6326227188110352 3.717741012573242 0.499992847442627 3.36858081817627 0.499992847442627 M 3.368580341339111 -3.814697265625e-06 C 3.800686359405518 -3.814697265625e-06 4.264626502990723 0.1469011306762695 4.755240917205811 0.4808526039123535 C 7.565820693969727 2.393962860107422 9.915000915527344 2.790952682495117 9.915000915527344 5.640612602233887 C 9.915000915527344 8.490262985229492 7.60490083694458 9.53945255279541 4.755240917205811 9.53945255279541 C 1.905591011047363 9.53945255279541 9.5367431640625e-07 8.490262985229492 9.5367431640625e-07 5.640612602233887 C 9.5367431640625e-07 3.28839111328125 1.325292587280273 -3.814697265625e-06 3.368580341339111 -3.814697265625e-06 Z"/></g><path class="o" d="M0,0A3.842,3.842,0,0,0,2.723,2.81" transform="matrix(1, 0.017, -0.017, 1, 1.304, 5.407)"/></g><g transform="translate(459.037 730.714) rotate(8)"><g class="n" transform="matrix(1, 0.017, -0.017, 1, 0.166, 0)"><path class="p" d="M 4.755240917205811 9.28945255279541 C 1.723680973052979 9.28945255279541 0.250000923871994 8.095902442932129 0.250000923871994 5.640612602233887 C 0.250000923871994 4.472172737121582 0.5907809138298035 3.09807276725769 1.139340877532959 2.054552793502808 C 1.493630886077881 1.380612730979919 2.254340887069702 0.2500026822090149 3.36858081817627 0.2500026822090149 C 3.768841028213501 0.2500026822090149 4.188050746917725 0.3972126841545105 4.614571094512939 0.6875327229499817 C 5.320981025695801 1.168362736701965 6.006660938262939 1.559152722358704 6.611630916595459 1.903932690620422 C 8.450301170349121 2.95183277130127 9.665000915527344 3.644112586975098 9.665000915527344 5.640612602233887 C 9.665000915527344 6.889892578125 9.19420051574707 7.835182666778564 8.265681266784668 8.45023250579834 C 7.436841011047363 8.999252319335938 6.22295093536377 9.28945255279541 4.755240917205811 9.28945255279541 Z"/><path class="q" d="M 3.36858081817627 0.499992847442627 C 2.385740756988525 0.499992847442627 1.688671112060547 1.546852588653564 1.360630989074707 2.170872688293457 C 0.8297710418701172 3.180712699890137 0.5000009536743164 4.510232925415039 0.5000009536743164 5.640612602233887 C 0.5000009536743164 6.847932815551758 0.8621606826782227 7.703842639923096 1.607160568237305 8.257282257080078 C 2.305840969085693 8.77629280090332 3.36500072479248 9.03945255279541 4.755240917205811 9.03945255279541 C 6.881000995635986 9.03945255279541 9.415000915527344 8.449782371520996 9.415000915527344 5.640612602233887 C 9.415000915527344 3.789382457733154 8.313220977783203 3.161452770233154 6.487851142883301 2.121142864227295 C 5.878830909729004 1.77404260635376 5.188540935516357 1.380632877349854 4.473890781402588 0.8941826820373535 C 4.089621067047119 0.6326227188110352 3.717741012573242 0.499992847442627 3.36858081817627 0.499992847442627 M 3.368580341339111 -3.814697265625e-06 C 3.800686359405518 -3.814697265625e-06 4.264626502990723 0.1469011306762695 4.755240917205811 0.4808526039123535 C 7.565820693969727 2.393962860107422 9.915000915527344 2.790952682495117 9.915000915527344 5.640612602233887 C 9.915000915527344 8.490262985229492 7.60490083694458 9.53945255279541 4.755240917205811 9.53945255279541 C 1.905591011047363 9.53945255279541 9.5367431640625e-07 8.490262985229492 9.5367431640625e-07 5.640612602233887 C 9.5367431640625e-07 3.28839111328125 1.325292587280273 -3.814697265625e-06 3.368580341339111 -3.814697265625e-06 Z"/></g><path class="o" d="M0,0A3.842,3.842,0,0,0,2.723,2.81" transform="matrix(1, 0.017, -0.017, 1, 1.304, 5.407)"/></g><g transform="translate(36 -4.437)"><g class="n" transform="matrix(1, 0.017, -0.017, 1, 192.519, 701.807)"><path class="p" d="M 12.24184894561768 24.30827140808105 C 8.435169219970703 24.30827140808105 5.500369548797607 23.56195068359375 3.518959283828735 22.09006118774414 C 2.461129426956177 21.30424118041992 1.650429368019104 20.29229164123535 1.109369397163391 19.08230018615723 C 0.539129376411438 17.80706024169922 0.2499993741512299 16.2724609375 0.2499993741512299 14.52113056182861 C 0.2499993741512299 11.45318031311035 1.144609332084656 7.845540523529053 2.58471941947937 5.106070518493652 C 4.230899333953857 1.974590659141541 6.392749309539795 0.2500006854534149 8.672029495239258 0.2500006854534149 C 9.782918930053711 0.2500006854534149 10.93664932250977 0.6519206762313843 12.1011791229248 1.44459068775177 C 13.90679931640625 2.673640727996826 15.6647891998291 3.675560712814331 17.21582984924316 4.559530735015869 C 19.57643890380859 5.904890537261963 21.6151294708252 7.066790580749512 23.0401496887207 8.556180953979492 C 24.56489944458008 10.14981079101563 25.27505874633789 12.04522037506104 25.27505874633789 14.52113056182861 C 25.27505874633789 17.87752151489258 24.00374984741211 20.42148017883301 21.49643898010254 22.08232116699219 C 19.29802894592285 23.53855133056641 16.09783935546875 24.30827140808105 12.24184894561768 24.30827140808105 Z"/><path class="q" d="M 8.672029495239258 0.5 C 5.728078842163086 0.5 3.733139038085938 3.458730697631836 2.805999755859375 5.222400665283203 C 1.383609771728516 7.928180694580078 0.5 11.49124050140381 0.5 14.52112007141113 C 0.5 16.237060546875 0.7818088531494141 17.73731994628906 1.337589263916016 18.98025131225586 C 1.86094856262207 20.1506404876709 2.64501953125 21.12940979003906 3.668039321899414 21.88936042785645 C 5.605400085449219 23.32854080200195 8.490039825439453 24.05825996398926 12.24184894561768 24.05825996398926 C 16.0485897064209 24.05825996398926 19.20102882385254 23.30292129516602 21.35837936401367 21.8738899230957 C 23.79140853881836 20.26225090026855 25.02505874633789 17.78842163085938 25.02505874633789 14.52112007141113 C 25.02505874633789 12.08069038391113 24.35717964172363 10.29433059692383 22.8595085144043 8.729010581970215 C 21.45967864990234 7.26594066619873 19.43565940856934 6.112410545349121 17.09204864501953 4.776731491088867 C 15.53694915771484 3.890451431274414 13.77435970306396 2.885910034179688 11.96049976348877 1.651250839233398 C 10.83822917938232 0.8873405456542969 9.731819152832031 0.5 8.672029495239258 0.5 M 8.672027587890625 0 C 9.784439086914063 0 10.97881317138672 0.3781948089599609 12.24184894561768 1.237920761108398 C 19.47735977172852 6.16300106048584 25.52505874633789 7.18501091003418 25.52505874633789 14.52112007141113 C 25.52505874633789 21.85724067687988 19.57795906066895 24.55825996398926 12.24184894561768 24.55825996398926 C 4.905729293823242 24.55825996398926 0 21.85724067687988 0 14.52112007141113 C 0 8.465605735778809 3.411800384521484 0 8.672027587890625 0 Z"/></g><path class="o" d="M0,0A9.89,9.89,0,0,0,7.009,7.234" transform="matrix(1, 0.017, -0.017, 1, 195.448, 715.727)"/></g><g transform="translate(271.06 723.646)"><g class="n" transform="matrix(1, 0.017, -0.017, 1, 0.226, 0)"><path class="p" d="M 6.448010921478271 12.68528747558594 C 2.277390956878662 12.68528747558594 0.2500009536743164 11.03775691986084 0.2500009536743164 7.648547172546387 C 0.2500009536743164 6.050617218017578 0.7160009741783142 4.171507358551025 1.466150999069214 2.74451732635498 C 1.955890893936157 1.812897324562073 3.010061025619507 0.250007301568985 4.567720890045166 0.250007301568985 C 5.128661155700684 0.250007301568985 5.713951110839844 0.4547972977161407 6.3073410987854 0.8587073087692261 C 7.262290954589844 1.50871729850769 8.190430641174316 2.037687301635742 9.009310722351074 2.504387378692627 C 11.52955055236816 3.940727233886719 13.19452095031738 4.889627456665039 13.19452095031738 7.648547172546387 C 13.19452095031738 9.37425708770752 12.54272079467773 10.68100738525391 11.25723075866699 11.5325174331665 C 10.11872100830078 12.28666687011719 8.455720901489258 12.68528747558594 6.448010921478271 12.68528747558594 Z"/><path class="q" d="M 4.567721366882324 0.5000076293945313 C 3.141461372375488 0.5000076293945313 2.150940895080566 1.979146957397461 1.687440872192383 2.860847473144531 C 0.9550008773803711 4.254137516021729 0.5000009536743164 6.088677406311035 0.5000009536743164 7.648547172546387 C 0.5000009536743164 9.345867156982422 1.014580726623535 10.55320739746094 2.073141098022461 11.33956718444824 C 3.051891326904297 12.06663703918457 4.523811340332031 12.43528747558594 6.448010921478271 12.43528747558594 C 8.406471252441406 12.43528747558594 10.02173042297363 12.05104732513428 11.11917114257813 11.32409763336182 C 12.33038139343262 10.52178764343262 12.94452095031738 9.285157203674316 12.94452095031738 7.648547172546387 C 12.94452095031738 6.428807258605957 12.61298084259033 5.538357257843018 11.86954116821289 4.761327266693115 C 11.15607070922852 4.015627384185791 10.1038703918457 3.415947437286377 8.885520935058594 2.721587181091309 C 8.062581062316895 2.25257682800293 7.1298508644104 1.720987319946289 6.166670799255371 1.065367698669434 C 5.61552095413208 0.6902275085449219 5.077561378479004 0.5000076293945313 4.567721366882324 0.5000076293945313 M 4.567718505859375 2.86102294921875e-06 C 5.153646469116211 2.86102294921875e-06 5.782744884490967 0.1992044448852539 6.448010921478271 0.6520376205444336 C 10.25909042358398 3.246167182922363 13.44452095031738 3.784477233886719 13.44452095031738 7.648547172546387 C 13.44452095031738 11.51260757446289 10.31208038330078 12.93528747558594 6.448010921478271 12.93528747558594 C 2.583940505981445 12.93528747558594 9.5367431640625e-07 11.51260757446289 9.5367431640625e-07 7.648547172546387 C 9.5367431640625e-07 4.458991527557373 1.797056198120117 2.86102294921875e-06 4.567718505859375 2.86102294921875e-06 Z"/></g><path class="o" d="M0,0A5.209,5.209,0,0,0,3.692,3.81" transform="matrix(1, 0.017, -0.017, 1, 1.768, 7.332)"/></g><g transform="translate(387.221 714.765) rotate(42)"><g class="n" transform="matrix(1, 0.017, -0.017, 1, 0.226, 0)"><path class="p" d="M 6.448010921478271 12.68528747558594 C 2.277390956878662 12.68528747558594 0.2500009536743164 11.03775691986084 0.2500009536743164 7.648547172546387 C 0.2500009536743164 6.050617218017578 0.7160009741783142 4.171507358551025 1.466150999069214 2.74451732635498 C 1.955890893936157 1.812897324562073 3.010061025619507 0.250007301568985 4.567720890045166 0.250007301568985 C 5.128661155700684 0.250007301568985 5.713951110839844 0.4547972977161407 6.3073410987854 0.8587073087692261 C 7.262290954589844 1.50871729850769 8.190430641174316 2.037687301635742 9.009310722351074 2.504387378692627 C 11.52955055236816 3.940727233886719 13.19452095031738 4.889627456665039 13.19452095031738 7.648547172546387 C 13.19452095031738 9.37425708770752 12.54272079467773 10.68100738525391 11.25723075866699 11.5325174331665 C 10.11872100830078 12.28666687011719 8.455720901489258 12.68528747558594 6.448010921478271 12.68528747558594 Z"/><path class="q" d="M 4.567721366882324 0.5000076293945313 C 3.141461372375488 0.5000076293945313 2.150940895080566 1.979146957397461 1.687440872192383 2.860847473144531 C 0.9550008773803711 4.254137516021729 0.5000009536743164 6.088677406311035 0.5000009536743164 7.648547172546387 C 0.5000009536743164 9.345867156982422 1.014580726623535 10.55320739746094 2.073141098022461 11.33956718444824 C 3.051891326904297 12.06663703918457 4.523811340332031 12.43528747558594 6.448010921478271 12.43528747558594 C 8.406471252441406 12.43528747558594 10.02173042297363 12.05104732513428 11.11917114257813 11.32409763336182 C 12.33038139343262 10.52178764343262 12.94452095031738 9.285157203674316 12.94452095031738 7.648547172546387 C 12.94452095031738 6.428807258605957 12.61298084259033 5.538357257843018 11.86954116821289 4.761327266693115 C 11.15607070922852 4.015627384185791 10.1038703918457 3.415947437286377 8.885520935058594 2.721587181091309 C 8.062581062316895 2.25257682800293 7.1298508644104 1.720987319946289 6.166670799255371 1.065367698669434 C 5.61552095413208 0.6902275085449219 5.077561378479004 0.5000076293945313 4.567721366882324 0.5000076293945313 M 4.567718505859375 2.86102294921875e-06 C 5.153646469116211 2.86102294921875e-06 5.782744884490967 0.1992044448852539 6.448010921478271 0.6520376205444336 C 10.25909042358398 3.246167182922363 13.44452095031738 3.784477233886719 13.44452095031738 7.648547172546387 C 13.44452095031738 11.51260757446289 10.31208038330078 12.93528747558594 6.448010921478271 12.93528747558594 C 2.583940505981445 12.93528747558594 9.5367431640625e-07 11.51260757446289 9.5367431640625e-07 7.648547172546387 C 9.5367431640625e-07 4.458991527557373 1.797056198120117 2.86102294921875e-06 4.567718505859375 2.86102294921875e-06 Z"/></g><path class="o" d="M0,0A5.209,5.209,0,0,0,3.692,3.81" transform="matrix(1, 0.017, -0.017, 1, 1.768, 7.332)"/></g><g transform="translate(88 35.588)"><g class="n" transform="matrix(1, 0.017, -0.017, 1, 192.553, 701.807)"><path class="p" d="M 13.20905303955078 26.24856376647949 C 9.097283363342285 26.24856376647949 5.926642894744873 25.44197463989258 3.785212993621826 23.85120391845703 C 2.641052961349487 23.00125503540039 1.764193058013916 21.90673446655273 1.178993105888367 20.59802436828613 C 0.5625630617141724 19.21947479248047 0.2500030696392059 17.56091499328613 0.2500030696392059 15.66841411590576 C 0.2500030696392059 12.35506439208984 1.216163039207458 8.458873748779297 2.771443128585815 5.500304222106934 C 4.551272869110107 2.114593982696533 6.890132904052734 0.2500041127204895 9.357192993164063 0.2500041127204895 C 10.55989265441895 0.2500041127204895 11.80851268768311 0.6848241090774536 13.06838321685791 1.542394042015076 C 15.0160026550293 2.868103981018066 16.91252326965332 3.948974132537842 18.58579254150391 4.902604103088379 C 21.13425254821777 6.355023860931396 23.33517265319824 7.609374046325684 24.8747730255127 9.218534469604492 C 26.52373313903809 10.94198417663574 27.2917423248291 12.99147415161133 27.2917423248291 15.66841411590576 C 27.2917423248291 19.29703330993652 25.91701316833496 22.04751396179199 23.20573234558105 23.84346389770508 C 21.97873306274414 24.65623474121094 20.47342300415039 25.27276420593262 18.73160362243652 25.67594337463379 C 17.0900821685791 26.05590438842773 15.23202323913574 26.24856376647949 13.20905303955078 26.24856376647949 Z"/><path class="q" d="M 9.357192993164063 0.5000038146972656 C 6.159883499145508 0.5000038146972656 3.997272491455078 3.705734252929688 2.992733001708984 5.616634368896484 C 1.455163955688477 8.54151439666748 0.5000038146972656 12.39313411712646 0.5000038146972656 15.66841411590576 C 0.5000038146972656 17.52551460266113 0.8052330017089844 19.14973449707031 1.40721321105957 20.49596405029297 C 1.974712371826172 21.76508331298828 2.824943542480469 22.82642364501953 3.934293746948242 23.65051460266113 C 6.031673431396484 25.20856475830078 9.152153015136719 25.99856376647949 13.20905303955078 25.99856376647949 C 17.32433319091797 25.99856376647949 20.7333927154541 25.1812744140625 23.06768417358398 23.63504409790039 C 25.70467376708984 21.8882942199707 27.0417423248291 19.20793342590332 27.0417423248291 15.66841411590576 C 27.0417423248291 13.02419376373291 26.31771278381348 11.08828449249268 24.69413375854492 9.391364097595215 C 23.17972373962402 7.808533668518066 20.99347305297852 6.562543869018555 18.46200180053711 5.119804382324219 C 16.78468322753906 4.163864135742188 14.88356304168701 3.080373764038086 12.92770290374756 1.749053955078125 C 11.7100830078125 0.9202442169189453 10.50879287719727 0.5000038146972656 9.357192993164063 0.5000038146972656 M 9.357189178466797 1.9073486328125e-06 C 10.55749130249023 1.9073486328125e-06 11.84622573852539 0.4080753326416016 13.20905303955078 1.335723876953125 C 21.01623344421387 6.649924278259277 27.5417423248291 7.752683639526367 27.5417423248291 15.66841411590576 C 27.5417423248291 23.58413314819336 21.12478256225586 26.49856376647949 13.20905303955078 26.49856376647949 C 5.293323516845703 26.49856376647949 3.814697265625e-06 23.58413314819336 3.814697265625e-06 15.66841411590576 C 3.814697265625e-06 9.134458541870117 3.681360244750977 1.9073486328125e-06 9.357189178466797 1.9073486328125e-06 Z"/></g><path class="o" d="M0,0A10.671,10.671,0,0,0,7.563,7.805" transform="matrix(1, 0.017, -0.017, 1, 195.713, 716.827)"/></g><g transform="translate(315.511 745.621)"><g class="n" transform="matrix(1, 0.017, -0.017, 1, 0.244, 0)"><path class="p" d="M 6.957454681396484 13.70728302001953 C 4.817684650421143 13.70728302001953 3.171384572982788 13.29029273986816 2.06430459022522 12.46788311004639 C 0.8604245781898499 11.57358264923096 0.2500045895576477 10.15543270111084 0.2500045895576477 8.252842903137207 C 0.2500045895576477 6.525652885437012 0.7536945939064026 4.494553089141846 1.564504623413086 2.952162981033325 C 2.095014572143555 1.942992925643921 3.237504482269287 0.250002920627594 4.928604602813721 0.250002920627594 C 5.537904739379883 0.250002920627594 6.173174381256104 0.4721329212188721 6.816784381866455 0.9102228879928589 C 7.846524715423584 1.611142873764038 8.847624778747559 2.181692838668823 9.730884552001953 2.685082912445068 C 12.45625495910645 4.238332748413086 14.25674438476563 5.264462947845459 14.25674438476563 8.252842903137207 C 14.25674438476563 10.12193298339844 13.55047416687012 11.53748321533203 12.15755462646484 12.4601526260376 C 10.92584419250488 13.27603244781494 9.127684593200684 13.70728302001953 6.957454681396484 13.70728302001953 Z"/><path class="q" d="M 4.928604125976563 0.5000019073486328 C 3.368904113769531 0.5000019073486328 2.290054321289063 2.10924243927002 1.785794258117676 3.06849193572998 C 0.9926948547363281 4.577191829681396 0.500004768371582 6.563722133636475 0.500004768371582 8.252841949462891 C 0.500004768371582 10.09763145446777 1.060454368591309 11.41074180603027 2.213384628295898 12.26720237731934 C 3.27641487121582 13.05688190460205 4.872554779052734 13.45728206634521 6.957454681396484 13.45728206634521 C 9.078424453735352 13.45728206634521 10.82885456085205 13.04041194915771 12.01949501037598 12.25173187255859 C 13.338134765625 11.37826156616211 14.00674438476563 10.03284168243408 14.00674438476563 8.252841949462891 C 14.00674438476563 6.925762176513672 13.64563465118408 5.956532001495361 12.83587455749512 5.110191822052002 C 12.06204414367676 4.301412105560303 10.92438507080078 3.653032302856445 9.607094764709473 2.902281761169434 C 8.719784736633301 2.396581649780273 7.714084625244141 1.82341194152832 6.676104545593262 1.11688232421875 C 6.07474422454834 0.7075519561767578 5.486804962158203 0.5000019073486328 4.928604125976563 0.5000019073486328 M 4.928606033325195 9.5367431640625e-07 C 5.560827255249023 9.5367431640625e-07 6.239628791809082 0.2149410247802734 6.957454681396484 0.70355224609375 C 11.06964492797852 3.502632141113281 14.50674438476563 4.083481788635254 14.50674438476563 8.252841949462891 C 14.50674438476563 12.42220211029053 11.12681484222412 13.95728206634521 6.957454681396484 13.95728206634521 C 2.788094520568848 13.95728206634521 4.76837158203125e-06 12.42220211029053 4.76837158203125e-06 8.252841949462891 C 4.76837158203125e-06 4.811287879943848 1.939043045043945 9.5367431640625e-07 4.928606033325195 9.5367431640625e-07 Z"/></g><path class="o" d="M0,0A5.621,5.621,0,0,0,3.983,4.111" transform="matrix(1, 0.017, -0.017, 1, 1.908, 7.911)"/></g><g transform="translate(457.244 743.473) rotate(8)"><g class="n" transform="matrix(1, 0.017, -0.017, 1, 0.244, 0)"><path class="p" d="M 6.957454681396484 13.70728302001953 C 4.817684650421143 13.70728302001953 3.171384572982788 13.29029273986816 2.06430459022522 12.46788311004639 C 0.8604245781898499 11.57358264923096 0.2500045895576477 10.15543270111084 0.2500045895576477 8.252842903137207 C 0.2500045895576477 6.525652885437012 0.7536945939064026 4.494553089141846 1.564504623413086 2.952162981033325 C 2.095014572143555 1.942992925643921 3.237504482269287 0.250002920627594 4.928604602813721 0.250002920627594 C 5.537904739379883 0.250002920627594 6.173174381256104 0.4721329212188721 6.816784381866455 0.9102228879928589 C 7.846524715423584 1.611142873764038 8.847624778747559 2.181692838668823 9.730884552001953 2.685082912445068 C 12.45625495910645 4.238332748413086 14.25674438476563 5.264462947845459 14.25674438476563 8.252842903137207 C 14.25674438476563 10.12193298339844 13.55047416687012 11.53748321533203 12.15755462646484 12.4601526260376 C 10.92584419250488 13.27603244781494 9.127684593200684 13.70728302001953 6.957454681396484 13.70728302001953 Z"/><path class="q" d="M 4.928604125976563 0.5000019073486328 C 3.368904113769531 0.5000019073486328 2.290054321289063 2.10924243927002 1.785794258117676 3.06849193572998 C 0.9926948547363281 4.577191829681396 0.500004768371582 6.563722133636475 0.500004768371582 8.252841949462891 C 0.500004768371582 10.09763145446777 1.060454368591309 11.41074180603027 2.213384628295898 12.26720237731934 C 3.27641487121582 13.05688190460205 4.872554779052734 13.45728206634521 6.957454681396484 13.45728206634521 C 9.078424453735352 13.45728206634521 10.82885456085205 13.04041194915771 12.01949501037598 12.25173187255859 C 13.338134765625 11.37826156616211 14.00674438476563 10.03284168243408 14.00674438476563 8.252841949462891 C 14.00674438476563 6.925762176513672 13.64563465118408 5.956532001495361 12.83587455749512 5.110191822052002 C 12.06204414367676 4.301412105560303 10.92438507080078 3.653032302856445 9.607094764709473 2.902281761169434 C 8.719784736633301 2.396581649780273 7.714084625244141 1.82341194152832 6.676104545593262 1.11688232421875 C 6.07474422454834 0.7075519561767578 5.486804962158203 0.5000019073486328 4.928604125976563 0.5000019073486328 M 4.928606033325195 9.5367431640625e-07 C 5.560827255249023 9.5367431640625e-07 6.239628791809082 0.2149410247802734 6.957454681396484 0.70355224609375 C 11.06964492797852 3.502632141113281 14.50674438476563 4.083481788635254 14.50674438476563 8.252841949462891 C 14.50674438476563 12.42220211029053 11.12681484222412 13.95728206634521 6.957454681396484 13.95728206634521 C 2.788094520568848 13.95728206634521 4.76837158203125e-06 12.42220211029053 4.76837158203125e-06 8.252841949462891 C 4.76837158203125e-06 4.811287879943848 1.939043045043945 9.5367431640625e-07 4.928606033325195 9.5367431640625e-07 Z"/></g><path class="o" d="M0,0A5.621,5.621,0,0,0,3.983,4.111" transform="matrix(1, 0.017, -0.017, 1, 1.908, 7.911)"/></g><g transform="translate(41 30)"><g class="n" transform="matrix(1, 0.017, -0.017, 1, 192.683, 701.807)"><path class="p" d="M 16.92479515075684 33.70270156860352 C 11.64093494415283 33.70270156860352 7.564274787902832 32.66455078125 4.808064937591553 30.6170711517334 C 3.332254648208618 29.52076148986816 2.201244831085205 28.10900115966797 1.446444749832153 26.4210205078125 C 0.6525447368621826 24.64559173583984 0.250004768371582 22.51082038879395 0.250004768371582 20.07599067687988 C 0.250004768371582 15.81988143920898 1.491044759750366 10.81514167785645 3.488814830780029 7.014831066131592 C 4.577304840087891 4.944231033325195 5.828824996948242 3.307851314544678 7.208594799041748 2.151141166687012 C 8.713395118713379 0.8896312713623047 10.32188510894775 0.2500012516975403 11.98939514160156 0.2500012516975403 C 13.54479503631592 0.2500012516975403 15.1579647064209 0.8112412691116333 16.78412437438965 1.918131232261658 C 19.27731513977051 3.615191221237183 21.70604515075684 4.999381065368652 23.8488655090332 6.220631122589111 C 27.11899566650391 8.084341049194336 29.94317436218262 9.693901062011719 31.92295455932617 11.76312160491943 C 32.95869445800781 12.84565162658691 33.70868301391602 13.99650096893311 34.21578598022461 15.2814416885376 C 34.76994323730469 16.6856517791748 35.03933334350586 18.25396156311035 35.03933334350586 20.07599067687988 C 35.03933334350586 24.75041198730469 33.26729583740234 28.29434204101563 29.77242469787598 30.60934066772461 C 28.19323539733887 31.65539169311523 26.25673484802246 32.44869232177734 24.01672554016113 32.96718215942383 C 21.90823554992676 33.45524215698242 19.52216529846191 33.70270156860352 16.92479515075684 33.70270156860352 Z"/><path class="q" d="M 11.98939514160156 0.5000038146972656 C 8.898334503173828 0.5000038146972656 5.958024978637695 2.85499382019043 3.710094451904297 7.131162643432617 C 1.730033874511719 10.89777374267578 0.4999961853027344 15.85794353485107 0.4999961853027344 20.07599258422852 C 0.4999961853027344 22.47541427612305 0.8952064514160156 24.57585334777832 1.674655914306641 26.31896209716797 C 2.411754608154297 27.96736335754395 3.516145706176758 29.34594345092773 4.957134246826172 30.4163932800293 C 7.669303894042969 32.43114471435547 11.69580459594727 33.45270156860352 16.92479515075684 33.45270156860352 C 19.50321578979492 33.45270156860352 21.87031555175781 33.20740509033203 23.9603443145752 32.7236213684082 C 26.1711540222168 32.21189117431641 28.08016586303711 31.43042373657227 29.63436508178711 30.40092277526855 C 33.0549430847168 28.13512229919434 34.78932571411133 24.66131210327148 34.78932571411133 20.07599258422852 C 34.78932571411133 18.28596305847168 34.5256462097168 16.74767303466797 33.98322296142578 15.37321281433105 C 33.48824310302734 14.11897277832031 32.75523376464844 12.99463272094727 31.74230575561523 11.93595314025879 C 29.78771591186523 9.893062591552734 26.97820472717285 8.291862487792969 23.72507476806641 6.437822341918945 C 21.57819366455078 5.214273452758789 19.14486503601074 3.827463150024414 16.6434440612793 2.124794006347656 C 15.05954551696777 1.046663284301758 13.49369430541992 0.5000038146972656 11.98939514160156 0.5000038146972656 M 11.98939514160156 -1.9073486328125e-06 C 13.52734375 -1.9073486328125e-06 15.1786003112793 0.5228633880615234 16.92479515075684 1.711463928222656 C 26.92816543579102 8.520572662353516 35.28932571411133 9.933542251586914 35.28932571411133 20.07599258422852 C 35.28932571411133 30.21843338012695 27.0672550201416 33.95270156860352 16.92479515075684 33.95270156860352 C 6.782344818115234 33.95270156860352 -3.814697265625e-06 30.21843338012695 -3.814697265625e-06 20.07599258422852 C -3.814697265625e-06 11.70401382446289 4.716938018798828 -1.9073486328125e-06 11.98939514160156 -1.9073486328125e-06 Z"/></g><path class="o" d="M0,0S1.571,7.906,9.69,10" transform="matrix(1, 0.017, -0.017, 1, 196.732, 721.052)"/></g><g transform="translate(368.541 749.731)"><g class="n" transform="matrix(1, 0.017, -0.017, 1, 0.312, 0)"><path class="p" d="M 8.914602279663086 17.63351631164551 C 6.157472610473633 17.63351631164551 4.033962726593018 17.09455680847168 2.603052616119385 16.03159523010254 C 1.041682720184326 14.87172603607178 0.2500027120113373 13.0356559753418 0.2500027120113373 10.57439613342285 C 0.2500027120113373 8.35063648223877 0.8984727263450623 5.73564624786377 1.942352652549744 3.749896049499512 C 3.12880277633667 1.492946028709412 4.681712627410889 0.2499960213899612 6.315032482147217 0.2499960213899612 C 7.110102653503418 0.2499960213899612 7.937392711639404 0.5387160181999207 8.773932456970215 1.108126044273376 C 10.09103298187256 2.004646062850952 11.37246227264404 2.734966039657593 12.50304222106934 3.379306077957153 C 14.21744251251221 4.356376171112061 15.69804286956787 5.20020580291748 16.72891235351563 6.277646064758301 C 17.84142303466797 7.440415859222412 18.33754348754883 8.765576362609863 18.33754348754883 10.57439613342285 C 18.33754348754883 12.99433612823486 17.4220027923584 14.82779598236084 15.61634254455566 16.02386665344238 C 14.02660274505615 17.07690620422363 11.70918273925781 17.63351631164551 8.914602279663086 17.63351631164551 Z"/><path class="q" d="M 6.315032958984375 0.4999961853027344 C 4.242652893066406 0.4999961853027344 2.824522972106934 2.60904598236084 2.163642883300781 3.866226196289063 C 1.137472152709961 5.818276405334473 0.5000019073486328 8.388706207275391 0.5000019073486328 10.57439613342285 C 0.5000019073486328 15.15623569488525 3.252442359924316 17.38351631164551 8.914602279663086 17.38351631164551 C 11.65992259979248 17.38351631164551 13.92961311340332 16.84128570556641 15.4782829284668 15.81543636322021 C 17.20966339111328 14.66857624053955 18.08754348754883 12.90523624420166 18.08754348754883 10.57439613342285 C 18.08754348754883 6.849785804748535 15.81666278839111 5.55556583404541 12.37925338745117 3.596506118774414 C 11.2446231842041 2.949855804443359 9.958592414855957 2.216916084289551 8.63325309753418 1.314785957336426 C 7.838973045349121 0.7741355895996094 7.059012413024902 0.4999961853027344 6.315032958984375 0.4999961853027344 M 6.315035820007324 -4.76837158203125e-06 C 7.125102043151855 -4.76837158203125e-06 7.994850158691406 0.2753982543945313 8.914602279663086 0.9014558792114258 C 14.18356323242188 4.487936019897461 18.58754348754883 5.232175827026367 18.58754348754883 10.57439613342285 C 18.58754348754883 15.91660594940186 14.25682258605957 17.88351631164551 8.914602279663086 17.88351631164551 C 3.572392463684082 17.88351631164551 1.9073486328125e-06 15.91660594940186 1.9073486328125e-06 10.57439613342285 C 1.9073486328125e-06 6.164716720581055 2.484500885009766 -4.76837158203125e-06 6.315035820007324 -4.76837158203125e-06 Z"/></g><path class="o" d="M0,0A7.2,7.2,0,0,0,5.1,5.268" transform="matrix(1, 0.017, -0.017, 1, 2.445, 10.137)"/></g><g transform="translate(428.819 737.57) rotate(8)"><g class="n" transform="matrix(1, 0.017, -0.017, 1, 0.312, 0)"><path class="p" d="M 8.914602279663086 17.63351631164551 C 6.157472610473633 17.63351631164551 4.033962726593018 17.09455680847168 2.603052616119385 16.03159523010254 C 1.041682720184326 14.87172603607178 0.2500027120113373 13.0356559753418 0.2500027120113373 10.57439613342285 C 0.2500027120113373 8.35063648223877 0.8984727263450623 5.73564624786377 1.942352652549744 3.749896049499512 C 3.12880277633667 1.492946028709412 4.681712627410889 0.2499960213899612 6.315032482147217 0.2499960213899612 C 7.110102653503418 0.2499960213899612 7.937392711639404 0.5387160181999207 8.773932456970215 1.108126044273376 C 10.09103298187256 2.004646062850952 11.37246227264404 2.734966039657593 12.50304222106934 3.379306077957153 C 14.21744251251221 4.356376171112061 15.69804286956787 5.20020580291748 16.72891235351563 6.277646064758301 C 17.84142303466797 7.440415859222412 18.33754348754883 8.765576362609863 18.33754348754883 10.57439613342285 C 18.33754348754883 12.99433612823486 17.4220027923584 14.82779598236084 15.61634254455566 16.02386665344238 C 14.02660274505615 17.07690620422363 11.70918273925781 17.63351631164551 8.914602279663086 17.63351631164551 Z"/><path class="q" d="M 6.315032958984375 0.4999961853027344 C 4.242652893066406 0.4999961853027344 2.824522972106934 2.60904598236084 2.163642883300781 3.866226196289063 C 1.137472152709961 5.818276405334473 0.5000019073486328 8.388706207275391 0.5000019073486328 10.57439613342285 C 0.5000019073486328 15.15623569488525 3.252442359924316 17.38351631164551 8.914602279663086 17.38351631164551 C 11.65992259979248 17.38351631164551 13.92961311340332 16.84128570556641 15.4782829284668 15.81543636322021 C 17.20966339111328 14.66857624053955 18.08754348754883 12.90523624420166 18.08754348754883 10.57439613342285 C 18.08754348754883 6.849785804748535 15.81666278839111 5.55556583404541 12.37925338745117 3.596506118774414 C 11.2446231842041 2.949855804443359 9.958592414855957 2.216916084289551 8.63325309753418 1.314785957336426 C 7.838973045349121 0.7741355895996094 7.059012413024902 0.4999961853027344 6.315032958984375 0.4999961853027344 M 6.315035820007324 -4.76837158203125e-06 C 7.125102043151855 -4.76837158203125e-06 7.994850158691406 0.2753982543945313 8.914602279663086 0.9014558792114258 C 14.18356323242188 4.487936019897461 18.58754348754883 5.232175827026367 18.58754348754883 10.57439613342285 C 18.58754348754883 15.91660594940186 14.25682258605957 17.88351631164551 8.914602279663086 17.88351631164551 C 3.572392463684082 17.88351631164551 1.9073486328125e-06 15.91660594940186 1.9073486328125e-06 10.57439613342285 C 1.9073486328125e-06 6.164716720581055 2.484500885009766 -4.76837158203125e-06 6.315035820007324 -4.76837158203125e-06 Z"/></g><path class="o" d="M0,0A7.2,7.2,0,0,0,5.1,5.268" transform="matrix(1, 0.017, -0.017, 1, 2.445, 10.137)"/></g><g transform="translate(-335.983 453.775) rotate(-51)"><g class="n" transform="matrix(1, 0.017, -0.017, 1, 192.683, 701.807)"><path class="p" d="M 16.92479515075684 33.70270156860352 C 11.64093494415283 33.70270156860352 7.564274787902832 32.66455078125 4.808064937591553 30.6170711517334 C 3.332254648208618 29.52076148986816 2.201244831085205 28.10900115966797 1.446444749832153 26.4210205078125 C 0.6525447368621826 24.64559173583984 0.250004768371582 22.51082038879395 0.250004768371582 20.07599067687988 C 0.250004768371582 15.81988143920898 1.491044759750366 10.81514167785645 3.488814830780029 7.014831066131592 C 4.577304840087891 4.944231033325195 5.828824996948242 3.307851314544678 7.208594799041748 2.151141166687012 C 8.713395118713379 0.8896312713623047 10.32188510894775 0.2500012516975403 11.98939514160156 0.2500012516975403 C 13.54479503631592 0.2500012516975403 15.1579647064209 0.8112412691116333 16.78412437438965 1.918131232261658 C 19.27731513977051 3.615191221237183 21.70604515075684 4.999381065368652 23.8488655090332 6.220631122589111 C 27.11899566650391 8.084341049194336 29.94317436218262 9.693901062011719 31.92295455932617 11.76312160491943 C 32.95869445800781 12.84565162658691 33.70868301391602 13.99650096893311 34.21578598022461 15.2814416885376 C 34.76994323730469 16.6856517791748 35.03933334350586 18.25396156311035 35.03933334350586 20.07599067687988 C 35.03933334350586 24.75041198730469 33.26729583740234 28.29434204101563 29.77242469787598 30.60934066772461 C 28.19323539733887 31.65539169311523 26.25673484802246 32.44869232177734 24.01672554016113 32.96718215942383 C 21.90823554992676 33.45524215698242 19.52216529846191 33.70270156860352 16.92479515075684 33.70270156860352 Z"/><path class="q" d="M 11.98939514160156 0.5000038146972656 C 8.898334503173828 0.5000038146972656 5.958024978637695 2.85499382019043 3.710094451904297 7.131162643432617 C 1.730033874511719 10.89777374267578 0.4999961853027344 15.85794353485107 0.4999961853027344 20.07599258422852 C 0.4999961853027344 22.47541427612305 0.8952064514160156 24.57585334777832 1.674655914306641 26.31896209716797 C 2.411754608154297 27.96736335754395 3.516145706176758 29.34594345092773 4.957134246826172 30.4163932800293 C 7.669303894042969 32.43114471435547 11.69580459594727 33.45270156860352 16.92479515075684 33.45270156860352 C 19.50321578979492 33.45270156860352 21.87031555175781 33.20740509033203 23.9603443145752 32.7236213684082 C 26.1711540222168 32.21189117431641 28.08016586303711 31.43042373657227 29.63436508178711 30.40092277526855 C 33.0549430847168 28.13512229919434 34.78932571411133 24.66131210327148 34.78932571411133 20.07599258422852 C 34.78932571411133 18.28596305847168 34.5256462097168 16.74767303466797 33.98322296142578 15.37321281433105 C 33.48824310302734 14.11897277832031 32.75523376464844 12.99463272094727 31.74230575561523 11.93595314025879 C 29.78771591186523 9.893062591552734 26.97820472717285 8.291862487792969 23.72507476806641 6.437822341918945 C 21.57819366455078 5.214273452758789 19.14486503601074 3.827463150024414 16.6434440612793 2.124794006347656 C 15.05954551696777 1.046663284301758 13.49369430541992 0.5000038146972656 11.98939514160156 0.5000038146972656 M 11.98939514160156 -1.9073486328125e-06 C 13.52734375 -1.9073486328125e-06 15.1786003112793 0.5228633880615234 16.92479515075684 1.711463928222656 C 26.92816543579102 8.520572662353516 35.28932571411133 9.933542251586914 35.28932571411133 20.07599258422852 C 35.28932571411133 30.21843338012695 27.0672550201416 33.95270156860352 16.92479515075684 33.95270156860352 C 6.782344818115234 33.95270156860352 -3.814697265625e-06 30.21843338012695 -3.814697265625e-06 20.07599258422852 C -3.814697265625e-06 11.70401382446289 4.716938018798828 -1.9073486328125e-06 11.98939514160156 -1.9073486328125e-06 Z"/></g><path class="o" d="M0,0S1.571,7.906,9.69,10" transform="matrix(1, 0.017, -0.017, 1, 196.732, 721.052)"/></g><g transform="translate(370.588 738.448) rotate(-51)"><g class="n" transform="matrix(1, 0.017, -0.017, 1, 0.312, 0)"><path class="p" d="M 8.91460132598877 17.63351821899414 C 6.157471656799316 17.63351821899414 4.033961772918701 17.09455871582031 2.603051662445068 16.0315990447998 C 1.04168176651001 14.87172889709473 0.2500017583370209 13.03565883636475 0.2500017583370209 10.5743989944458 C 0.2500017583370209 8.350639343261719 0.8984717726707458 5.735649108886719 1.942351698875427 3.749898910522461 C 3.128801822662354 1.492948889732361 4.681711673736572 0.2499988824129105 6.3150315284729 0.2499988824129105 C 7.110101699829102 0.2499988824129105 7.937391757965088 0.5387188792228699 8.773931503295898 1.108128905296326 C 10.09103202819824 2.004648923873901 11.37246131896973 2.734968900680542 12.50304126739502 3.379308938980103 C 14.21744155883789 4.35637903213501 15.69804191589355 5.20020866394043 16.72891235351563 6.27764892578125 C 17.84142112731934 7.440418720245361 18.3375415802002 8.765579223632813 18.3375415802002 10.5743989944458 C 18.3375415802002 12.99433898925781 17.42200088500977 14.82779884338379 15.61634159088135 16.02386856079102 C 14.02660179138184 17.07690811157227 11.7091817855835 17.63351821899414 8.91460132598877 17.63351821899414 Z"/><path class="q" d="M 6.315032005310059 0.4999990463256836 C 4.24265193939209 0.4999990463256836 2.824522018432617 2.609048843383789 2.163640975952148 3.866229057312012 C 1.137472152709961 5.818279266357422 0.5000019073486328 8.38870906829834 0.5000019073486328 10.5743989944458 C 0.5000019073486328 15.1562385559082 3.25244140625 17.38351821899414 8.91460132598877 17.38351821899414 C 11.65992164611816 17.38351821899414 13.92961120605469 16.84128952026367 15.47828197479248 15.81543922424316 C 17.20966148376465 14.6685791015625 18.0875415802002 12.90523910522461 18.0875415802002 10.5743989944458 C 18.0875415802002 6.849788665771484 15.8166618347168 5.555568695068359 12.37925148010254 3.596508979797363 C 11.24462127685547 2.949858665466309 9.958591461181641 2.2169189453125 8.633252143859863 1.314788818359375 C 7.838972091674805 0.7741384506225586 7.059011459350586 0.4999990463256836 6.315032005310059 0.4999990463256836 M 6.315034866333008 -1.9073486328125e-06 C 7.125101089477539 -1.9073486328125e-06 7.99484920501709 0.2754011154174805 8.91460132598877 0.901458740234375 C 14.18356132507324 4.48793888092041 18.5875415802002 5.232178688049316 18.5875415802002 10.5743989944458 C 18.5875415802002 15.9166088104248 14.25682163238525 17.88351821899414 8.91460132598877 17.88351821899414 C 3.572391510009766 17.88351821899414 1.9073486328125e-06 15.9166088104248 1.9073486328125e-06 10.5743989944458 C 1.9073486328125e-06 6.164719581604004 2.484498977661133 -1.9073486328125e-06 6.315034866333008 -1.9073486328125e-06 Z"/></g><path class="o" d="M0,0A7.2,7.2,0,0,0,5.1,5.268" transform="matrix(1, 0.017, -0.017, 1, 2.445, 10.137)"/></g><g transform="translate(474.907 754.87) rotate(-43)"><g class="n" transform="matrix(1, 0.017, -0.017, 1, 0.312, 0)"><path class="p" d="M 8.91460132598877 17.63351821899414 C 6.157471656799316 17.63351821899414 4.033961772918701 17.09455871582031 2.603051662445068 16.0315990447998 C 1.04168176651001 14.87172889709473 0.2500017583370209 13.03565883636475 0.2500017583370209 10.5743989944458 C 0.2500017583370209 8.350639343261719 0.8984717726707458 5.735649108886719 1.942351698875427 3.749898910522461 C 3.128801822662354 1.492948889732361 4.681711673736572 0.2499988824129105 6.3150315284729 0.2499988824129105 C 7.110101699829102 0.2499988824129105 7.937391757965088 0.5387188792228699 8.773931503295898 1.108128905296326 C 10.09103202819824 2.004648923873901 11.37246131896973 2.734968900680542 12.50304126739502 3.379308938980103 C 14.21744155883789 4.35637903213501 15.69804191589355 5.20020866394043 16.72891235351563 6.27764892578125 C 17.84142112731934 7.440418720245361 18.3375415802002 8.765579223632813 18.3375415802002 10.5743989944458 C 18.3375415802002 12.99433898925781 17.42200088500977 14.82779884338379 15.61634159088135 16.02386856079102 C 14.02660179138184 17.07690811157227 11.7091817855835 17.63351821899414 8.91460132598877 17.63351821899414 Z"/><path class="q" d="M 6.315032005310059 0.4999990463256836 C 4.24265193939209 0.4999990463256836 2.824522018432617 2.609048843383789 2.163640975952148 3.866229057312012 C 1.137472152709961 5.818279266357422 0.5000019073486328 8.38870906829834 0.5000019073486328 10.5743989944458 C 0.5000019073486328 15.1562385559082 3.25244140625 17.38351821899414 8.91460132598877 17.38351821899414 C 11.65992164611816 17.38351821899414 13.92961120605469 16.84128952026367 15.47828197479248 15.81543922424316 C 17.20966148376465 14.6685791015625 18.0875415802002 12.90523910522461 18.0875415802002 10.5743989944458 C 18.0875415802002 6.849788665771484 15.8166618347168 5.555568695068359 12.37925148010254 3.596508979797363 C 11.24462127685547 2.949858665466309 9.958591461181641 2.2169189453125 8.633252143859863 1.314788818359375 C 7.838972091674805 0.7741384506225586 7.059011459350586 0.4999990463256836 6.315032005310059 0.4999990463256836 M 6.315034866333008 -1.9073486328125e-06 C 7.125101089477539 -1.9073486328125e-06 7.99484920501709 0.2754011154174805 8.91460132598877 0.901458740234375 C 14.18356132507324 4.48793888092041 18.5875415802002 5.232178688049316 18.5875415802002 10.5743989944458 C 18.5875415802002 15.9166088104248 14.25682163238525 17.88351821899414 8.91460132598877 17.88351821899414 C 3.572391510009766 17.88351821899414 1.9073486328125e-06 15.9166088104248 1.9073486328125e-06 10.5743989944458 C 1.9073486328125e-06 6.164719581604004 2.484498977661133 -1.9073486328125e-06 6.315034866333008 -1.9073486328125e-06 Z"/></g><path class="o" d="M0,0A7.2,7.2,0,0,0,5.1,5.268" transform="matrix(1, 0.017, -0.017, 1, 2.445, 10.137)"/></g><g transform="matrix(0.602, -0.799, 0.799, 0.602, -412.608, 439.182)"><g class="n" transform="matrix(1, 0.017, -0.017, 1, 192.501, 701.807)"><path class="p" d="M 11.71058177947998 23.24250793457031 C 8.071481704711914 23.24250793457031 5.266221523284912 22.529296875 3.372711658477783 21.1226978302002 C 2.362301588058472 20.37210655212402 1.587941527366638 19.40550804138184 1.071131587028503 18.24975776672363 C 0.5262715816497803 17.03125762939453 0.2500015795230865 15.56474781036377 0.2500015795230865 13.89094734191895 C 0.2500015795230865 10.95779705047607 1.105311512947083 7.508657455444336 2.482151508331299 4.889527320861816 C 4.054921627044678 1.897687435150146 6.119541645050049 0.249997466802597 8.295681953430176 0.249997466802597 C 9.356151580810547 0.249997466802597 10.45775127410889 0.6338474750518799 11.56991195678711 1.390867471694946 C 13.29752159118652 2.56681752204895 14.97941112518311 3.525367498397827 16.46332168579102 4.371077537536621 C 18.72075080871582 5.657627582550049 20.67033195495605 6.768747329711914 22.03242111206055 8.192357063293457 C 23.48896217346191 9.714687347412109 24.1673412322998 11.52545738220215 24.1673412322998 13.89094734191895 C 24.1673412322998 17.09781837463379 22.95283126831055 19.52832794189453 20.55756187438965 21.11495780944824 C 18.45633125305176 22.50681686401367 15.39710140228271 23.24250793457031 11.71058177947998 23.24250793457031 Z"/><path class="q" d="M 8.295680999755859 0.4999980926513672 C 5.49089241027832 0.4999980926513672 3.588062286376953 3.323057174682617 2.703432083129883 5.005857467651367 C 1.344310760498047 7.591287612915039 0.5000019073486328 10.99585723876953 0.5000019073486328 13.89094734191895 C 0.5000019073486328 15.52934741973877 0.7689418792724609 16.96151733398438 1.299350738525391 18.14769744873047 C 1.7984619140625 19.26386833190918 2.546192169189453 20.1972770690918 3.521800994873047 20.92200660705566 C 5.371252059936523 22.2958869934082 8.126361846923828 22.99250793457031 11.71058177947998 22.99250793457031 C 15.34784126281738 22.99250793457031 18.35934066772461 22.27118682861328 20.41950225830078 20.90653800964355 C 22.74050140380859 19.36910820007324 23.9173412322998 17.00872802734375 23.9173412322998 13.89094734191895 C 23.9173412322998 8.907027244567871 20.9027214050293 7.188937187194824 16.33954238891602 4.588277816772461 C 14.85158157348633 3.740257263183594 13.16508197784424 2.779087066650391 11.42923164367676 1.597526550292969 C 10.35933113098145 0.8692569732666016 9.305051803588867 0.4999980926513672 8.295680999755859 0.4999980926513672 M 8.295680999755859 0 C 9.359816551208496 0 10.50235748291016 0.3617820739746094 11.71058177947998 1.184198379516602 C 18.63210105895996 5.895537376403809 24.4173412322998 6.873197555541992 24.4173412322998 13.89094734191895 C 24.4173412322998 20.9086971282959 18.72833251953125 23.49250793457031 11.71058177947998 23.49250793457031 C 4.692831039428711 23.49250793457031 1.9073486328125e-06 20.9086971282959 1.9073486328125e-06 13.89094734191895 C 1.9073486328125e-06 8.098219871520996 3.263734817504883 0 8.295680999755859 0 Z"/></g><path class="o" d="M0,0A9.461,9.461,0,0,0,6.7,6.92" transform="matrix(1, 0.017, -0.017, 1, 195.302, 715.123)"/></g><g transform="translate(361.656 717.37)"><g class="n" transform="matrix(1, 0.017, -0.017, 1, 0.216, 0)"><path class="p" d="M 6.16818380355835 12.12393856048584 C 2.185853958129883 12.12393856048584 0.2500038743019104 10.55144882202148 0.2500038743019104 7.3166184425354 C 0.2500038743019104 5.789688587188721 0.6953038573265076 3.994058609008789 1.412133932113647 2.63045859336853 C 1.879483938217163 1.741438508033752 2.885143995285034 0.2499985545873642 4.369493961334229 0.2499985545873642 C 4.903873920440674 0.2499985545873642 5.461713790893555 0.4452785551548004 6.027513980865479 0.8304085731506348 C 6.941373825073242 1.452458500862122 7.829433917999268 1.958578586578369 8.612954139709473 2.405128479003906 C 11.02053356170654 3.777248620986938 12.61106395721436 4.683728694915771 12.61106395721436 7.3166184425354 C 12.61106395721436 8.963568687438965 11.98918342590332 10.21057891845703 10.76270389556885 11.02299880981445 C 9.675394058227539 11.74323844909668 8.086633682250977 12.12393856048584 6.16818380355835 12.12393856048584 Z"/><path class="q" d="M 4.36949348449707 0.4999980926513672 C 3.016533851623535 0.4999980926513672 2.07452392578125 1.907678604125977 1.633414268493652 2.746788501739502 C 0.9343042373657227 4.076688766479492 0.5000038146972656 5.827748775482178 0.5000038146972656 7.3166184425354 C 0.5000038146972656 8.932938575744629 0.9893836975097656 10.08218860626221 1.996113777160645 10.83003807067871 C 2.928564071655273 11.52271842956543 4.332243919372559 11.87392807006836 6.16818380355835 11.87392807006836 C 8.037374496459961 11.87392807006836 9.578393936157227 11.50760841369629 10.62464332580566 10.81456851959229 C 11.77685356140137 10.05134868621826 12.36106395721436 8.874468803405762 12.36106395721436 7.3166184425354 C 12.36106395721436 6.155828475952148 12.04577350616455 5.308648586273193 11.33875370025635 4.569688320159912 C 10.65843391418457 3.858638763427734 9.653163909912109 3.285718441009521 8.489164352416992 2.622328758239746 C 7.70159387588501 2.173468589782715 6.808933734893799 1.664728164672852 5.886833667755127 1.037068367004395 C 5.363284111022949 0.6806983947753906 4.852773666381836 0.4999980926513672 4.36949348449707 0.4999980926513672 M 4.369491577148438 -1.9073486328125e-06 C 4.929991722106934 -1.9073486328125e-06 5.531790256500244 0.190556526184082 6.16818380355835 0.6237382888793945 C 9.813873291015625 3.105288505554199 12.86106395721436 3.620238780975342 12.86106395721436 7.3166184425354 C 12.86106395721436 11.01298809051514 9.864563941955566 12.37392807006836 6.16818380355835 12.37392807006836 C 2.471803665161133 12.37392807006836 3.814697265625e-06 11.01298809051514 3.814697265625e-06 7.3166184425354 C 3.814697265625e-06 4.265480518341064 1.719072341918945 -1.9073486328125e-06 4.369491577148438 -1.9073486328125e-06 Z"/></g><path class="o" d="M0,0A4.983,4.983,0,0,0,3.532,3.645" transform="matrix(1, 0.017, -0.017, 1, 1.691, 7.014)"/></g><g transform="translate(444.067 716.123) rotate(8)"><g class="n" transform="matrix(1, 0.017, -0.017, 1, 0.216, 0)"><path class="p" d="M 6.16818380355835 12.12393856048584 C 2.185853958129883 12.12393856048584 0.2500038743019104 10.55144882202148 0.2500038743019104 7.3166184425354 C 0.2500038743019104 5.789688587188721 0.6953038573265076 3.994058609008789 1.412133932113647 2.63045859336853 C 1.879483938217163 1.741438508033752 2.885143995285034 0.2499985545873642 4.369493961334229 0.2499985545873642 C 4.903873920440674 0.2499985545873642 5.461713790893555 0.4452785551548004 6.027513980865479 0.8304085731506348 C 6.941373825073242 1.452458500862122 7.829433917999268 1.958578586578369 8.612954139709473 2.405128479003906 C 11.02053356170654 3.777248620986938 12.61106395721436 4.683728694915771 12.61106395721436 7.3166184425354 C 12.61106395721436 8.963568687438965 11.98918342590332 10.21057891845703 10.76270389556885 11.02299880981445 C 9.675394058227539 11.74323844909668 8.086633682250977 12.12393856048584 6.16818380355835 12.12393856048584 Z"/><path class="q" d="M 4.36949348449707 0.4999980926513672 C 3.016533851623535 0.4999980926513672 2.07452392578125 1.907678604125977 1.633414268493652 2.746788501739502 C 0.9343042373657227 4.076688766479492 0.5000038146972656 5.827748775482178 0.5000038146972656 7.3166184425354 C 0.5000038146972656 8.932938575744629 0.9893836975097656 10.08218860626221 1.996113777160645 10.83003807067871 C 2.928564071655273 11.52271842956543 4.332243919372559 11.87392807006836 6.16818380355835 11.87392807006836 C 8.037374496459961 11.87392807006836 9.578393936157227 11.50760841369629 10.62464332580566 10.81456851959229 C 11.77685356140137 10.05134868621826 12.36106395721436 8.874468803405762 12.36106395721436 7.3166184425354 C 12.36106395721436 6.155828475952148 12.04577350616455 5.308648586273193 11.33875370025635 4.569688320159912 C 10.65843391418457 3.858638763427734 9.653163909912109 3.285718441009521 8.489164352416992 2.622328758239746 C 7.70159387588501 2.173468589782715 6.808933734893799 1.664728164672852 5.886833667755127 1.037068367004395 C 5.363284111022949 0.6806983947753906 4.852773666381836 0.4999980926513672 4.36949348449707 0.4999980926513672 M 4.369491577148438 -1.9073486328125e-06 C 4.929991722106934 -1.9073486328125e-06 5.531790256500244 0.190556526184082 6.16818380355835 0.6237382888793945 C 9.813873291015625 3.105288505554199 12.86106395721436 3.620238780975342 12.86106395721436 7.3166184425354 C 12.86106395721436 11.01298809051514 9.864563941955566 12.37392807006836 6.16818380355835 12.37392807006836 C 2.471803665161133 12.37392807006836 3.814697265625e-06 11.01298809051514 3.814697265625e-06 7.3166184425354 C 3.814697265625e-06 4.265480518341064 1.719072341918945 -1.9073486328125e-06 4.369491577148438 -1.9073486328125e-06 Z"/></g><path class="o" d="M0,0A4.983,4.983,0,0,0,3.532,3.645" transform="matrix(1, 0.017, -0.017, 1, 1.691, 7.014)"/></g></g></svg>